NotoAmalgamated-CondensedItalic.ufo
<glyph name="quotedbl" format="2">
  <advance width="338"/>
  <unicode hex="0022"/>
  <outline>
    <contour>
      <point x="250" y="456" type="line"/>
      <point x="309" y="456" type="line"/>
      <point x="378" y="714" type="line"/>
      <point x="292" y="714" type="line"/>
    </contour>
    <contour>
      <point x="99" y="456" type="line"/>
      <point x="158" y="456" type="line"/>
      <point x="226" y="714" type="line"/>
      <point x="140" y="714" type="line"/>
    </contour>
  </outline>
</glyph>
<glyph name="numbersign" format="2">
  <advance width="423"/>
  <unicode hex="0023"/>
  <outline>
    <contour>
      <point x="4" y="0" type="line"/>
      <point x="65" y="0" type="line"/>
      <point x="132" y="218" type="line"/>
      <point x="222" y="218" type="line"/>
      <point x="153" y="0" type="line"/>
      <point x="214" y="0" type="line"/>
      <point x="282" y="218" type="line"/>
      <point x="368" y="218" type="line"/>
      <point x="379" y="280" type="line"/>
      <point x="301" y="280" type="line"/>
      <point x="355" y="451" type="line"/>
      <point x="436" y="451" type="line"/>
      <point x="448" y="513" type="line"/>
      <point x="375" y="513" type="line"/>
      <point x="437" y="714" type="line"/>
      <point x="377" y="714" type="line"/>
      <point x="314" y="513" type="line"/>
      <point x="225" y="513" type="line"/>
      <point x="288" y="714" type="line"/>
      <point x="227" y="714" type="line"/>
      <point x="165" y="513" type="line"/>
      <point x="79" y="513" type="line"/>
      <point x="68" y="451" type="line"/>
      <point x="145" y="451" type="line"/>
      <point x="91" y="280" type="line"/>
      <point x="11" y="280" type="line"/>
      <point x="0" y="218" type="line"/>
      <point x="72" y="218" type="line"/>
    </contour>
    <contour>
      <point x="152" y="280" type="line"/>
      <point x="206" y="451" type="line"/>
      <point x="295" y="451" type="line"/>
      <point x="241" y="280" type="line"/>
    </contour>
  </outline>
</glyph>
<glyph name="dollar" format="2">
  <advance width="391"/>
  <unicode hex="0024"/>
  <outline>
    <contour>
      <point x="121" y="48" type="curve"/>
      <point x="98" y="-58" type="line"/>
      <point x="139" y="-58" type="line"/>
      <point x="161" y="48" type="line"/>
      <point x="264" y="58"/>
      <point x="335" y="121"/>
      <point x="335" y="231" type="curve" smooth="yes"/>
      <point x="335" y="311"/>
      <point x="291" y="353"/>
      <point x="235" y="396" type="curve"/>
      <point x="280" y="610" type="line"/>
      <point x="317" y="607"/>
      <point x="346" y="594"/>
      <point x="374" y="576" type="curve"/>
      <point x="409" y="641" type="line"/>
      <point x="380" y="659"/>
      <point x="346" y="674"/>
      <point x="295" y="677" type="curve"/>
      <point x="312" y="760" type="line"/>
      <point x="272" y="760" type="line"/>
      <point x="254" y="677" type="line"/>
      <point x="155" y="669"/>
      <point x="85" y="610"/>
      <point x="85" y="497" type="curve" smooth="yes"/>
      <point x="85" y="421"/>
      <point x="134" y="380"/>
      <point x="183" y="342" type="curve"/>
      <point x="136" y="116" type="line"/>
      <point x="82" y="119"/>
      <point x="37" y="139"/>
      <point x="10" y="160" type="curve"/>
      <point x="0" y="81" type="line"/>
      <point x="26" y="64"/>
      <point x="68" y="50"/>
    </contour>
    <contour>
      <point x="176" y="119" type="curve"/>
      <point x="217" y="315" type="line"/>
      <point x="253" y="281"/>
      <point x="264" y="257"/>
      <point x="264" y="220" type="curve" smooth="yes"/>
      <point x="264" y="168"/>
      <point x="238" y="127"/>
    </contour>
    <contour>
      <point x="240" y="609" type="curve"/>
      <point x="201" y="424" type="line"/>
      <point x="167" y="455"/>
      <point x="155" y="477"/>
      <point x="155" y="508" type="curve" smooth="yes"/>
      <point x="155" y="562"/>
      <point x="183" y="601"/>
    </contour>
  </outline>
</glyph>
<glyph name="dollar.serif" format="2">
  <advance width="461"/>
  <unicode hex="0024"/>
  <outline>
    <contour>
      <point x="171" y="37" type="curve"/>
      <point x="146" y="-79" type="line"/>
      <point x="187" y="-79" type="line"/>
      <point x="211" y="36" type="line"/>
      <point x="320" y="42"/>
      <point x="405" y="111"/>
      <point x="405" y="234" type="curve" smooth="yes"/>
      <point x="405" y="306"/>
      <point x="370" y="349"/>
      <point x="301" y="392" type="curve" smooth="yes"/>
      <point x="289" y="398" type="line"/>
      <point x="339" y="641" type="line"/>
      <point x="383" y="629"/>
      <point x="391" y="567"/>
      <point x="389" y="517" type="curve"/>
      <point x="435" y="517"/>
      <point x="464" y="549"/>
      <point x="464" y="590" type="curve" smooth="yes"/>
      <point x="463" y="645"/>
      <point x="422" y="677"/>
      <point x="349" y="684" type="curve"/>
      <point x="365" y="760" type="line"/>
      <point x="324" y="760" type="line"/>
      <point x="309" y="684" type="line"/>
      <point x="207" y="678"/>
      <point x="130" y="622"/>
      <point x="130" y="492" type="curve" smooth="yes"/>
      <point x="130" y="419"/>
      <point x="169" y="369"/>
      <point x="231" y="333" type="curve"/>
      <point x="181" y="85" type="line"/>
      <point x="131" y="99"/>
      <point x="103" y="166"/>
      <point x="106" y="253" type="curve"/>
      <point x="68" y="253"/>
      <point x="32" y="220"/>
      <point x="32" y="162" type="curve" smooth="yes"/>
      <point x="32" y="97"/>
      <point x="81" y="44"/>
    </contour>
    <contour>
      <point x="222" y="84" type="curve"/>
      <point x="268" y="311" type="line"/>
      <point x="303" y="288"/>
      <point x="321" y="261"/>
      <point x="321" y="218" type="curve" smooth="yes"/>
      <point x="321" y="147"/>
      <point x="284" y="92"/>
    </contour>
    <contour>
      <point x="297" y="641" type="curve"/>
      <point x="254" y="421" type="line"/>
      <point x="225" y="444"/>
      <point x="213" y="470"/>
      <point x="213" y="508" type="curve" smooth="yes"/>
      <point x="213" y="583"/>
      <point x="249" y="631"/>
    </contour>
  </outline>
</glyph>
<glyph name="percent" format="2">
  <advance width="608"/>
  <unicode hex="0025"/>
  <outline>
    <contour>
      <point x="92" y="0" type="line"/>
      <point x="157" y="0" type="line"/>
      <point x="527" y="714" type="line"/>
      <point x="464" y="714" type="line"/>
    </contour>
    <contour>
      <point x="129" y="276" type="curve" smooth="yes"/>
      <point x="246" y="276"/>
      <point x="296" y="506"/>
      <point x="296" y="610" type="curve" smooth="yes"/>
      <point x="296" y="686"/>
      <point x="265" y="724"/>
      <point x="215" y="724" type="curve" smooth="yes"/>
      <point x="99" y="724"/>
      <point x="48" y="499"/>
      <point x="48" y="391" type="curve" smooth="yes"/>
      <point x="48" y="315"/>
      <point x="77" y="276"/>
    </contour>
    <contour>
      <point x="137" y="335" type="curve" smooth="yes"/>
      <point x="119" y="335"/>
      <point x="109" y="351"/>
      <point x="109" y="391" type="curve" smooth="yes"/>
      <point x="109" y="461"/>
      <point x="148" y="666"/>
      <point x="207" y="666" type="curve" smooth="yes"/>
      <point x="226" y="666"/>
      <point x="235" y="649"/>
      <point x="235" y="610" type="curve" smooth="yes"/>
      <point x="235" y="543"/>
      <point x="197" y="335"/>
    </contour>
    <contour>
      <point x="408" y="-10" type="curve" smooth="yes"/>
      <point x="524" y="-10"/>
      <point x="575" y="218"/>
      <point x="575" y="324" type="curve" smooth="yes"/>
      <point x="575" y="400"/>
      <point x="544" y="438"/>
      <point x="494" y="438" type="curve" smooth="yes"/>
      <point x="382" y="438"/>
      <point x="327" y="224"/>
      <point x="327" y="105" type="curve" smooth="yes"/>
      <point x="327" y="29"/>
      <point x="356" y="-10"/>
    </contour>
    <contour>
      <point x="415" y="49" type="curve" smooth="yes"/>
      <point x="397" y="49"/>
      <point x="387" y="66"/>
      <point x="387" y="105" type="curve" smooth="yes"/>
      <point x="387" y="169"/>
      <point x="424" y="380"/>
      <point x="485" y="380" type="curve" smooth="yes"/>
      <point x="503" y="380"/>
      <point x="513" y="363"/>
      <point x="513" y="325" type="curve" smooth="yes"/>
      <point x="513" y="256"/>
      <point x="475" y="49"/>
    </contour>
  </outline>
</glyph>
<glyph name="ampersand" format="2">
  <advance width="428"/>
  <unicode hex="0026"/>
  <outline>
    <contour>
      <point x="116" y="-10" type="curve" smooth="yes"/>
      <point x="179" y="-10"/>
      <point x="219" y="25"/>
      <point x="258" y="67" type="curve"/>
      <point x="278" y="0" type="line"/>
      <point x="367" y="0" type="line"/>
      <point x="320" y="128" type="line"/>
      <point x="361" y="189"/>
      <point x="397" y="268"/>
      <point x="415" y="338" type="curve"/>
      <point x="339" y="338" type="line"/>
      <point x="325" y="287"/>
      <point x="308" y="240"/>
      <point x="289" y="204" type="curve"/>
      <point x="236" y="377" type="line"/>
      <point x="313" y="444"/>
      <point x="364" y="527"/>
      <point x="364" y="622" type="curve" smooth="yes"/>
      <point x="364" y="690"/>
      <point x="321" y="724"/>
      <point x="268" y="724" type="curve" smooth="yes"/>
      <point x="174" y="724"/>
      <point x="123" y="633"/>
      <point x="123" y="522" type="curve" smooth="yes"/>
      <point x="123" y="476"/>
      <point x="132" y="432"/>
      <point x="146" y="390" type="curve"/>
      <point x="52" y="321"/>
      <point x="-6" y="236"/>
      <point x="-6" y="125" type="curve" smooth="yes"/>
      <point x="-6" y="41"/>
      <point x="40" y="-10"/>
    </contour>
    <contour>
      <point x="131" y="60" type="curve" smooth="yes"/>
      <point x="93" y="60"/>
      <point x="73" y="88"/>
      <point x="73" y="139" type="curve" smooth="yes"/>
      <point x="73" y="216"/>
      <point x="106" y="280"/>
      <point x="168" y="333" type="curve"/>
      <point x="232" y="132" type="line"/>
      <point x="205" y="96"/>
      <point x="176" y="60"/>
    </contour>
    <contour>
      <point x="212" y="433" type="curve"/>
      <point x="202" y="464"/>
      <point x="197" y="496"/>
      <point x="197" y="534" type="curve" smooth="yes"/>
      <point x="197" y="594"/>
      <point x="213" y="662"/>
      <point x="257" y="662" type="curve" smooth="yes"/>
      <point x="280" y="662"/>
      <point x="290" y="641"/>
      <point x="290" y="611" type="curve" smooth="yes"/>
      <point x="290" y="543"/>
      <point x="258" y="478"/>
    </contour>
  </outline>
</glyph>
<glyph name="ampersand.serif" format="2">
  <advance width="606"/>
  <unicode hex="0026"/>
  <outline>
    <contour>
      <point x="204" y="-10" type="curve" smooth="yes"/>
      <point x="283" y="-10"/>
      <point x="342" y="29"/>
      <point x="388" y="85" type="curve"/>
      <point x="429" y="0" type="line"/>
      <point x="560" y="0" type="line"/>
      <point x="570" y="41" type="line"/>
      <point x="563" y="41" type="line" smooth="yes"/>
      <point x="517" y="41"/>
      <point x="500" y="56"/>
      <point x="482" y="90" type="curve" smooth="yes"/>
      <point x="444" y="157" type="line"/>
      <point x="473" y="210"/>
      <point x="494" y="266"/>
      <point x="513" y="311" type="curve" smooth="yes"/>
      <point x="540" y="373"/>
      <point x="575" y="380"/>
      <point x="612" y="380" type="curve" smooth="yes"/>
      <point x="619" y="380" type="line"/>
      <point x="628" y="421" type="line"/>
      <point x="480" y="421" type="line"/>
      <point x="472" y="381" type="line" smooth="yes"/>
      <point x="460" y="322"/>
      <point x="442" y="258"/>
      <point x="416" y="201" type="curve"/>
      <point x="316" y="397" type="line"/>
      <point x="438" y="453"/>
      <point x="494" y="490"/>
      <point x="494" y="601" type="curve" smooth="yes"/>
      <point x="494" y="669"/>
      <point x="453" y="724"/>
      <point x="361" y="724" type="curve" smooth="yes"/>
      <point x="247" y="724"/>
      <point x="183" y="662"/>
      <point x="183" y="543" type="curve" smooth="yes"/>
      <point x="183" y="499"/>
      <point x="194" y="453"/>
      <point x="215" y="405" type="curve"/>
      <point x="117" y="360"/>
      <point x="34" y="305"/>
      <point x="34" y="166" type="curve" smooth="yes"/>
      <point x="34" y="69"/>
      <point x="87" y="-10"/>
    </contour>
    <contour>
      <point x="220" y="45" type="curve" smooth="yes"/>
      <point x="161" y="45"/>
      <point x="125" y="98"/>
      <point x="125" y="171" type="curve" smooth="yes"/>
      <point x="125" y="265"/>
      <point x="153" y="312"/>
      <point x="238" y="363" type="curve"/>
      <point x="363" y="126" type="line"/>
      <point x="325" y="78"/>
      <point x="278" y="45"/>
    </contour>
    <contour>
      <point x="295" y="436" type="curve"/>
      <point x="276" y="479"/>
      <point x="268" y="517"/>
      <point x="268" y="551" type="curve" smooth="yes"/>
      <point x="268" y="632"/>
      <point x="298" y="676"/>
      <point x="355" y="676" type="curve" smooth="yes"/>
      <point x="396" y="676"/>
      <point x="420" y="647"/>
      <point x="420" y="595" type="curve" smooth="yes"/>
      <point x="420" y="516"/>
      <point x="387" y="482"/>
    </contour>
  </outline>
</glyph>
<glyph name="parenleft" format="2">
  <advance width="257"/>
  <unicode hex="0028"/>
  <outline>
    <contour>
      <point x="70" y="-158" type="curve"/>
      <point x="134" y="-158" type="line"/>
      <point x="106" y="-85"/>
      <point x="93" y="13"/>
      <point x="93" y="102" type="curve" smooth="yes"/>
      <point x="93" y="321"/>
      <point x="180" y="542"/>
      <point x="321" y="719" type="curve"/>
      <point x="254" y="719" type="line"/>
      <point x="106" y="556"/>
      <point x="18" y="325"/>
      <point x="18" y="103" type="curve" smooth="yes"/>
      <point x="18" y="16"/>
      <point x="36" y="-92"/>
    </contour>
  </outline>
</glyph>
<glyph name="parenright" format="2">
  <advance width="257"/>
  <unicode hex="0029"/>
  <outline>
    <contour>
      <point x="-73" y="-158" type="curve"/>
      <point x="-6" y="-158" type="line"/>
      <point x="141" y="3"/>
      <point x="229" y="232"/>
      <point x="229" y="458" type="curve" smooth="yes"/>
      <point x="229" y="549"/>
      <point x="213" y="647"/>
      <point x="178" y="719" type="curve"/>
      <point x="113" y="719" type="line"/>
      <point x="141" y="651"/>
      <point x="154" y="545"/>
      <point x="154" y="459" type="curve" smooth="yes"/>
      <point x="154" y="240"/>
      <point x="68" y="19"/>
    </contour>
  </outline>
</glyph>
<glyph name="asterisk" format="2">
  <advance width="361"/>
  <unicode hex="002A"/>
  <outline>
    <contour>
      <point x="287" y="430" type="line"/>
      <point x="353" y="464" type="line"/>
      <point x="285" y="579" type="line"/>
      <point x="401" y="580" type="line"/>
      <point x="395" y="653" type="line"/>
      <point x="280" y="629" type="line"/>
      <point x="309" y="754" type="line"/>
      <point x="233" y="764" type="line"/>
      <point x="228" y="635" type="line"/>
      <point x="122" y="689" type="line"/>
      <point x="98" y="620" type="line"/>
      <point x="208" y="588" type="line"/>
      <point x="113" y="495" type="line"/>
      <point x="167" y="446" type="line"/>
      <point x="244" y="551" type="line"/>
    </contour>
  </outline>
</glyph>
<glyph name="comma" format="2">
  <advance width="202"/>
  <unicode hex="002C"/>
  <outline>
    <contour>
      <point x="-45" y="-132" type="curve"/>
      <point x="15" y="-132" type="line"/>
      <point x="58" y="-60"/>
      <point x="99" y="22"/>
      <point x="130" y="102" type="curve"/>
      <point x="127" y="112" type="line"/>
      <point x="46" y="112" type="line"/>
      <point x="27" y="41"/>
      <point x="-17" y="-65"/>
    </contour>
  </outline>
</glyph>
<glyph name="hyphen" format="2">
  <advance width="259"/>
  <unicode hex="002D"/>
  <outline>
    <contour>
      <point x="15" y="232" type="line"/>
      <point x="224" y="232" type="line"/>
      <point x="239" y="308" type="line"/>
      <point x="30" y="308" type="line"/>
    </contour>
  </outline>
</glyph>
<glyph name="slash" format="2">
  <advance width="334"/>
  <unicode hex="002F"/>
  <outline>
    <contour>
      <point x="-49" y="-3" type="line"/>
      <point x="23" y="-3" type="line"/>
      <point x="409" y="717" type="line"/>
      <point x="336" y="717" type="line"/>
    </contour>
  </outline>
</glyph>
<glyph name="zero" format="2">
  <advance width="391"/>
  <unicode hex="0030"/>
  <outline>
    <contour>
      <point x="137" y="-10" type="curve" smooth="yes"/>
      <point x="318" y="-10"/>
      <point x="390" y="391"/>
      <point x="390" y="557" type="curve" smooth="yes"/>
      <point x="390" y="671"/>
      <point x="352" y="724"/>
      <point x="276" y="724" type="curve" smooth="yes"/>
      <point x="95" y="724"/>
      <point x="22" y="318"/>
      <point x="22" y="160" type="curve" smooth="yes"/>
      <point x="22" y="43"/>
      <point x="60" y="-10"/>
    </contour>
    <contour>
      <point x="144" y="63" type="curve" smooth="yes"/>
      <point x="112" y="63"/>
      <point x="98" y="91"/>
      <point x="98" y="158" type="curve" smooth="yes"/>
      <point x="98" y="279"/>
      <point x="167" y="651"/>
      <point x="269" y="651" type="curve" smooth="yes"/>
      <point x="301" y="651"/>
      <point x="314" y="621"/>
      <point x="314" y="560" type="curve" smooth="yes"/>
      <point x="314" y="433"/>
      <point x="249" y="63"/>
    </contour>
  </outline>
</glyph>
<glyph name="one" format="2">
  <advance width="391"/>
  <unicode hex="0031"/>
  <outline>
    <contour>
      <point x="230" y="501" type="curve" smooth="yes"/>
      <point x="123.998" y="0" type="line"/>
      <point x="203" y="0" type="line"/>
      <point x="354" y="714" type="line"/>
      <point x="281" y="714" type="line"/>
      <point x="104" y="557" type="line"/>
      <point x="141" y="506" type="line"/>
      <point x="223" y="577" type="line" smooth="yes"/>
      <point x="236" y="588"/>
      <point x="246" y="599"/>
      <point x="256" y="610" type="curve"/>
      <point x="240" y="549"/>
      <point x="238" y="540"/>
    </contour>
  </outline>
</glyph>
<glyph name="two" format="2">
  <advance width="391"/>
  <unicode hex="0032"/>
  <outline>
    <contour>
      <point x="-33" y="0" type="line"/>
      <point x="280" y="0" type="line"/>
      <point x="295" y="71" type="line"/>
      <point x="74" y="71" type="line"/>
      <point x="74" y="74" type="line"/>
      <point x="219" y="246" type="line" smooth="yes"/>
      <point x="317" y="359"/>
      <point x="392" y="469"/>
      <point x="392" y="584" type="curve" smooth="yes"/>
      <point x="392" y="671"/>
      <point x="339" y="724"/>
      <point x="258" y="724" type="curve" smooth="yes"/>
      <point x="197" y="724"/>
      <point x="149" y="699"/>
      <point x="106" y="658" type="curve"/>
      <point x="136" y="600" type="line"/>
      <point x="171" y="628"/>
      <point x="202" y="653"/>
      <point x="242" y="653" type="curve" smooth="yes"/>
      <point x="287" y="653"/>
      <point x="310" y="624"/>
      <point x="310" y="571" type="curve" smooth="yes"/>
      <point x="310" y="464"/>
      <point x="233" y="368"/>
      <point x="151" y="267" type="curve" smooth="yes"/>
      <point x="-22" y="59" type="line"/>
    </contour>
  </outline>
</glyph>
<glyph name="three" format="2">
  <advance width="391"/>
  <unicode hex="0033"/>
  <outline>
    <contour>
      <point x="106" y="-10" type="curve" smooth="yes"/>
      <point x="249" y="-10"/>
      <point x="329" y="104"/>
      <point x="329" y="230" type="curve" smooth="yes"/>
      <point x="329" y="307"/>
      <point x="293" y="353"/>
      <point x="241" y="370" type="curve"/>
      <point x="242" y="373" type="line"/>
      <point x="336" y="398"/>
      <point x="395" y="485"/>
      <point x="395" y="588" type="curve" smooth="yes"/>
      <point x="395" y="673"/>
      <point x="342" y="724"/>
      <point x="256" y="724" type="curve" smooth="yes"/>
      <point x="196" y="724"/>
      <point x="150" y="704"/>
      <point x="106" y="670" type="curve"/>
      <point x="130" y="609" type="line"/>
      <point x="167" y="637"/>
      <point x="203" y="654"/>
      <point x="242" y="654" type="curve" smooth="yes"/>
      <point x="290" y="654"/>
      <point x="314" y="623"/>
      <point x="314" y="571" type="curve" smooth="yes"/>
      <point x="314" y="479"/>
      <point x="254" y="403"/>
      <point x="157" y="403" type="curve" smooth="yes"/>
      <point x="125" y="403" type="line"/>
      <point x="110" y="334" type="line"/>
      <point x="143" y="334" type="line" smooth="yes"/>
      <point x="211" y="334"/>
      <point x="247" y="298"/>
      <point x="247" y="223" type="curve" smooth="yes"/>
      <point x="247" y="133"/>
      <point x="195" y="60"/>
      <point x="103" y="60" type="curve" smooth="yes"/>
      <point x="62" y="60"/>
      <point x="17" y="72"/>
      <point x="-17" y="98" type="curve"/>
      <point x="-17" y="18" type="line"/>
      <point x="17" y="-1"/>
      <point x="53" y="-10"/>
    </contour>
  </outline>
</glyph>
<glyph name="four" format="2">
  <advance width="391"/>
  <unicode hex="0034"/>
  <outline>
    <contour>
      <point x="167" y="0" type="line"/>
      <point x="245" y="0" type="line"/>
      <point x="278" y="156" type="line"/>
      <point x="345" y="156" type="line"/>
      <point x="360" y="225" type="line"/>
      <point x="293" y="225" type="line"/>
      <point x="398" y="720" type="line"/>
      <point x="312" y="720" type="line"/>
      <point x="-5" y="219" type="line"/>
      <point x="-18" y="156" type="line"/>
      <point x="201" y="156" type="line"/>
    </contour>
    <contour>
      <point x="65" y="225" type="line"/>
      <point x="247" y="520" type="line" smooth="yes"/>
      <point x="263" y="546"/>
      <point x="276" y="570"/>
      <point x="300" y="616" type="curve"/>
      <point x="303" y="616" type="line"/>
      <point x="296" y="586"/>
      <point x="287" y="552"/>
      <point x="280" y="522" type="curve" smooth="yes"/>
      <point x="216" y="225" type="line"/>
    </contour>
  </outline>
</glyph>
<glyph name="five" format="2">
  <advance width="391"/>
  <unicode hex="0035"/>
  <outline>
    <contour>
      <point x="104" y="-10" type="curve" smooth="yes"/>
      <point x="266" y="-10"/>
      <point x="342" y="125"/>
      <point x="342" y="265" type="curve" smooth="yes"/>
      <point x="342" y="376"/>
      <point x="291" y="439"/>
      <point x="204" y="439" type="curve" smooth="yes"/>
      <point x="185" y="439"/>
      <point x="166" y="436"/>
      <point x="148" y="431" type="curve"/>
      <point x="207" y="641" type="line"/>
      <point x="385" y="641" type="line"/>
      <point x="401" y="714" type="line"/>
      <point x="152" y="714" type="line"/>
      <point x="63" y="385" type="line"/>
      <point x="89" y="354" type="line"/>
      <point x="115" y="364"/>
      <point x="139" y="370"/>
      <point x="165" y="370" type="curve" smooth="yes"/>
      <point x="228" y="370"/>
      <point x="259" y="327"/>
      <point x="259" y="250" type="curve" smooth="yes"/>
      <point x="259" y="150"/>
      <point x="205" y="60"/>
      <point x="105" y="60" type="curve" smooth="yes"/>
      <point x="57" y="60"/>
      <point x="17" y="75"/>
      <point x="-11" y="99" type="curve"/>
      <point x="-11" y="15" type="line"/>
      <point x="13" y="2"/>
      <point x="54" y="-10"/>
    </contour>
  </outline>
</glyph>
<glyph name="six" format="2">
  <advance width="391"/>
  <unicode hex="0036"/>
  <outline>
    <contour>
      <point x="155" y="-10" type="curve" smooth="yes"/>
      <point x="298" y="-10"/>
      <point x="358" y="172"/>
      <point x="358" y="302" type="curve" smooth="yes"/>
      <point x="358" y="388"/>
      <point x="324" y="451"/>
      <point x="252" y="451" type="curve" smooth="yes"/>
      <point x="201" y="451"/>
      <point x="158" y="422"/>
      <point x="129" y="376" type="curve"/>
      <point x="126" y="376" type="line"/>
      <point x="172" y="559"/>
      <point x="241" y="654"/>
      <point x="335" y="654" type="curve" smooth="yes"/>
      <point x="358" y="654"/>
      <point x="380" y="650"/>
      <point x="398" y="643" type="curve"/>
      <point x="416" y="714" type="line"/>
      <point x="395" y="720"/>
      <point x="370" y="724"/>
      <point x="335" y="724" type="curve" smooth="yes"/>
      <point x="248" y="724"/>
      <point x="183" y="661"/>
      <point x="142" y="598" type="curve" smooth="yes"/>
      <point x="69" y="492"/>
      <point x="25" y="319"/>
      <point x="25" y="170" type="curve" smooth="yes"/>
      <point x="25" y="63"/>
      <point x="64" y="-10"/>
    </contour>
    <contour>
      <point x="160" y="61" type="curve" smooth="yes"/>
      <point x="124" y="61"/>
      <point x="102" y="98"/>
      <point x="102" y="166" type="curve" smooth="yes"/>
      <point x="102" y="217"/>
      <point x="109" y="266"/>
      <point x="124" y="297" type="curve" smooth="yes"/>
      <point x="141" y="344"/>
      <point x="175" y="381"/>
      <point x="222" y="381" type="curve" smooth="yes"/>
      <point x="257" y="381"/>
      <point x="278" y="349"/>
      <point x="278" y="294" type="curve" smooth="yes"/>
      <point x="278" y="213"/>
      <point x="245" y="61"/>
    </contour>
  </outline>
</glyph>
<glyph name="seven" format="2">
  <advance width="391"/>
  <unicode hex="0037"/>
  <outline>
    <contour>
      <point x="31" y="0" type="line"/>
      <point x="113" y="0" type="line"/>
      <point x="424" y="655" type="line"/>
      <point x="434" y="714" type="line"/>
      <point x="109" y="714" type="line"/>
      <point x="93.994" y="641.005" type="line"/>
      <point x="340" y="641" type="line"/>
    </contour>
  </outline>
</glyph>
<glyph name="eight" format="2">
  <advance width="391"/>
  <unicode hex="0038"/>
  <outline>
    <contour>
      <point x="151" y="-10" type="curve" smooth="yes"/>
      <point x="267" y="-10"/>
      <point x="338" y="87"/>
      <point x="338" y="193" type="curve" smooth="yes"/>
      <point x="338" y="261"/>
      <point x="314" y="317"/>
      <point x="257" y="373" type="curve"/>
      <point x="349" y="423"/>
      <point x="403" y="497"/>
      <point x="403" y="588" type="curve" smooth="yes"/>
      <point x="403" y="671"/>
      <point x="351" y="724"/>
      <point x="269" y="724" type="curve" smooth="yes"/>
      <point x="157" y="724"/>
      <point x="91" y="641"/>
      <point x="91" y="536" type="curve" smooth="yes"/>
      <point x="91" y="476"/>
      <point x="112" y="424"/>
      <point x="154" y="377" type="curve"/>
      <point x="53" y="321"/>
      <point x="-7" y="252"/>
      <point x="-7" y="143" type="curve" smooth="yes"/>
      <point x="-7" y="48"/>
      <point x="51" y="-10"/>
    </contour>
    <contour>
      <point x="152" y="57" type="curve" smooth="yes"/>
      <point x="101" y="57"/>
      <point x="71" y="98"/>
      <point x="71" y="149" type="curve" smooth="yes"/>
      <point x="71" y="240"/>
      <point x="124" y="294"/>
      <point x="196" y="334" type="curve"/>
      <point x="235" y="292"/>
      <point x="261" y="246"/>
      <point x="261" y="189" type="curve" smooth="yes"/>
      <point x="260" y="118"/>
      <point x="225" y="57"/>
    </contour>
    <contour>
      <point x="216" y="415" type="curve"/>
      <point x="185" y="449"/>
      <point x="167" y="488"/>
      <point x="167" y="538" type="curve" smooth="yes"/>
      <point x="167" y="612"/>
      <point x="203" y="657"/>
      <point x="260" y="657" type="curve" smooth="yes"/>
      <point x="300" y="657"/>
      <point x="326" y="628"/>
      <point x="326" y="576" type="curve" smooth="yes"/>
      <point x="326" y="511"/>
      <point x="289" y="454"/>
    </contour>
  </outline>
</glyph>
<glyph name="nine" format="2">
  <advance width="391"/>
  <unicode hex="0039"/>
  <outline>
    <contour>
      <point x="83" y="-10" type="curve" smooth="yes"/>
      <point x="185" y="-10"/>
      <point x="255" y="65"/>
      <point x="301" y="160" type="curve" smooth="yes"/>
      <point x="357" y="266"/>
      <point x="387" y="419"/>
      <point x="387" y="548" type="curve" smooth="yes"/>
      <point x="387" y="663"/>
      <point x="343" y="724"/>
      <point x="261" y="724" type="curve" smooth="yes"/>
      <point x="115" y="724"/>
      <point x="55" y="541"/>
      <point x="55" y="414" type="curve" smooth="yes"/>
      <point x="55" y="329"/>
      <point x="88" y="263"/>
      <point x="161" y="263" type="curve" smooth="yes"/>
      <point x="210" y="263"/>
      <point x="254" y="293"/>
      <point x="284" y="338" type="curve"/>
      <point x="287" y="338" type="line"/>
      <point x="244" y="155"/>
      <point x="176" y="60"/>
      <point x="80" y="60" type="curve" smooth="yes"/>
      <point x="48" y="60"/>
      <point x="19" y="65"/>
      <point x="-1" y="73" type="curve"/>
      <point x="-1" y="1" type="line"/>
      <point x="21" y="-5"/>
      <point x="47" y="-10"/>
    </contour>
    <contour>
      <point x="191" y="334" type="curve" smooth="yes"/>
      <point x="155" y="334"/>
      <point x="134" y="366"/>
      <point x="134" y="425" type="curve" smooth="yes"/>
      <point x="134" y="514"/>
      <point x="175" y="653"/>
      <point x="253" y="653" type="curve" smooth="yes"/>
      <point x="290" y="653"/>
      <point x="310" y="617"/>
      <point x="310" y="550" type="curve" smooth="yes"/>
      <point x="310" y="478"/>
      <point x="296" y="420"/>
      <point x="267" y="384" type="curve" smooth="yes"/>
      <point x="249" y="354"/>
      <point x="223" y="334"/>
    </contour>
  </outline>
</glyph>
<glyph name="colon" format="2">
  <advance width="204"/>
  <unicode hex="003A"/>
  <outline>
    <contour>
      <point x="135" y="417" type="curve" smooth="yes"/>
      <point x="171" y="417"/>
      <point x="198" y="451"/>
      <point x="198" y="496" type="curve" smooth="yes"/>
      <point x="198" y="521"/>
      <point x="184" y="540"/>
      <point x="158" y="540" type="curve" smooth="yes"/>
      <point x="117" y="540"/>
      <point x="93" y="502"/>
      <point x="93" y="460" type="curve" smooth="yes"/>
      <point x="93" y="432"/>
      <point x="110" y="417"/>
    </contour>
    <contour>
      <point x="44" y="-8" type="curve" smooth="yes"/>
      <point x="79" y="-8"/>
      <point x="107" y="26"/>
      <point x="107" y="71" type="curve" smooth="yes"/>
      <point x="107" y="98"/>
      <point x="92" y="115"/>
      <point x="67" y="115" type="curve" smooth="yes"/>
      <point x="25" y="115"/>
      <point x="2" y="77"/>
      <point x="2" y="35" type="curve" smooth="yes"/>
      <point x="2" y="7"/>
      <point x="19" y="-8"/>
    </contour>
  </outline>
</glyph>
<glyph name="semicolon" format="2">
  <advance width="204"/>
  <unicode hex="003B"/>
  <outline>
    <contour>
      <point x="-50" y="-132" type="curve"/>
      <point x="10" y="-132" type="line"/>
      <point x="54" y="-59"/>
      <point x="95" y="23"/>
      <point x="126" y="102" type="curve"/>
      <point x="122" y="112" type="line"/>
      <point x="42" y="112" type="line"/>
      <point x="20" y="35"/>
      <point x="-13" y="-50"/>
    </contour>
    <contour>
      <point x="140" y="417" type="curve" smooth="yes"/>
      <point x="176" y="417"/>
      <point x="203" y="451"/>
      <point x="203" y="496" type="curve" smooth="yes"/>
      <point x="203" y="521"/>
      <point x="189" y="540"/>
      <point x="163" y="540" type="curve" smooth="yes"/>
      <point x="121" y="540"/>
      <point x="98" y="502"/>
      <point x="98" y="460" type="curve" smooth="yes"/>
      <point x="98" y="432"/>
      <point x="115" y="417"/>
    </contour>
  </outline>
</glyph>
<glyph name="less" format="2">
  <advance width="430"/>
  <unicode hex="003C"/>
  <outline>
    <contour>
      <point x="410" y="132" type="line"/>
      <point x="410" y="210" type="line"/>
      <point x="131" y="355" type="line"/>
      <point x="410" y="500" type="line"/>
      <point x="410" y="578" type="line"/>
      <point x="39" y="380" type="line"/>
      <point x="39" y="332" type="line"/>
    </contour>
  </outline>
</glyph>
<glyph name="question" format="2">
  <advance width="289"/>
  <unicode hex="003F"/>
  <outline>
    <contour>
      <point x="61" y="199" type="curve"/>
      <point x="125" y="199" type="line"/>
      <point x="140" y="284"/>
      <point x="162" y="319"/>
      <point x="221" y="386" type="curve" smooth="yes"/>
      <point x="282" y="455"/>
      <point x="331" y="518"/>
      <point x="331" y="606" type="curve" smooth="yes"/>
      <point x="331" y="680"/>
      <point x="288" y="724"/>
      <point x="211" y="724" type="curve" smooth="yes"/>
      <point x="168" y="724"/>
      <point x="125" y="709"/>
      <point x="84" y="678" type="curve"/>
      <point x="102" y="617" type="line"/>
      <point x="130" y="636"/>
      <point x="159" y="653"/>
      <point x="195" y="653" type="curve" smooth="yes"/>
      <point x="230" y="653"/>
      <point x="252" y="633"/>
      <point x="252" y="590" type="curve" smooth="yes"/>
      <point x="252" y="512"/>
      <point x="211" y="473"/>
      <point x="152" y="402" type="curve" smooth="yes"/>
      <point x="101" y="341"/>
      <point x="81" y="296"/>
    </contour>
    <contour>
      <point x="57" y="-8" type="curve" smooth="yes"/>
      <point x="92" y="-8"/>
      <point x="119" y="26"/>
      <point x="119" y="71" type="curve" smooth="yes"/>
      <point x="119" y="98"/>
      <point x="104" y="115"/>
      <point x="80" y="115" type="curve" smooth="yes"/>
      <point x="37" y="115"/>
      <point x="14" y="77"/>
      <point x="14" y="35" type="curve" smooth="yes"/>
      <point x="14" y="7"/>
      <point x="31" y="-8"/>
    </contour>
  </outline>
</glyph>
<glyph name="at" format="2">
  <advance width="586"/>
  <unicode hex="0040"/>
  <outline>
    <contour>
      <point x="220" y="-84" type="curve" smooth="yes"/>
      <point x="265" y="-84"/>
      <point x="312" y="-72"/>
      <point x="352" y="-52" type="curve"/>
      <point x="352" y="1" type="line"/>
      <point x="314" y="-19"/>
      <point x="267" y="-31"/>
      <point x="222" y="-31" type="curve" smooth="yes"/>
      <point x="121" y="-31"/>
      <point x="83" y="47"/>
      <point x="83" y="155" type="curve" smooth="yes"/>
      <point x="83" y="387"/>
      <point x="195" y="666"/>
      <point x="387" y="666" type="curve" smooth="yes"/>
      <point x="472" y="666"/>
      <point x="517" y="606"/>
      <point x="517" y="485" type="curve" smooth="yes"/>
      <point x="517" y="385"/>
      <point x="470" y="168"/>
      <point x="404" y="168" type="curve" smooth="yes"/>
      <point x="386" y="168"/>
      <point x="378" y="180"/>
      <point x="378" y="208" type="curve" smooth="yes"/>
      <point x="378" y="221"/>
      <point x="382" y="243"/>
      <point x="389" y="272" type="curve" smooth="yes"/>
      <point x="447" y="506" type="line"/>
      <point x="423" y="518"/>
      <point x="393" y="525"/>
      <point x="357" y="525" type="curve" smooth="yes"/>
      <point x="231" y="525"/>
      <point x="168" y="324"/>
      <point x="168" y="214" type="curve" smooth="yes"/>
      <point x="168" y="146"/>
      <point x="193" y="113"/>
      <point x="241" y="113" type="curve" smooth="yes"/>
      <point x="276" y="113"/>
      <point x="309" y="145"/>
      <point x="330" y="193" type="curve"/>
      <point x="331" y="193" type="line"/>
      <point x="335" y="145"/>
      <point x="349" y="115"/>
      <point x="398" y="115" type="curve" smooth="yes"/>
      <point x="505" y="115"/>
      <point x="575" y="342"/>
      <point x="575" y="491" type="curve" smooth="yes"/>
      <point x="575" y="628"/>
      <point x="509" y="720"/>
      <point x="393" y="720" type="curve" smooth="yes"/>
      <point x="165" y="720"/>
      <point x="24" y="421"/>
      <point x="24" y="149" type="curve" smooth="yes"/>
      <point x="24" y="11"/>
      <point x="90" y="-84"/>
    </contour>
    <contour>
      <point x="257" y="168" type="curve" smooth="yes"/>
      <point x="239" y="168"/>
      <point x="229" y="185"/>
      <point x="229" y="222" type="curve" smooth="yes"/>
      <point x="229" y="303"/>
      <point x="273" y="472"/>
      <point x="347" y="472" type="curve" smooth="yes"/>
      <point x="359" y="472"/>
      <point x="368" y="471"/>
      <point x="376" y="468" type="curve"/>
      <point x="339" y="323" type="line" smooth="yes"/>
      <point x="311" y="218"/>
      <point x="286" y="168"/>
    </contour>
  </outline>
</glyph>
<glyph name="at.serif" format="2">
  <advance width="737"/>
  <unicode hex="0040"/>
  <outline>
    <contour>
      <point x="336" y="-142" type="curve" smooth="yes"/>
      <point x="436" y="-142"/>
      <point x="520" y="-93"/>
      <point x="577" y="-43" type="curve"/>
      <point x="559" y="-11" type="line"/>
      <point x="508" y="-53"/>
      <point x="434" y="-93"/>
      <point x="345" y="-93" type="curve" smooth="yes"/>
      <point x="222" y="-93"/>
      <point x="123" y="-9"/>
      <point x="123" y="194" type="curve" smooth="yes"/>
      <point x="123" y="482"/>
      <point x="284" y="668"/>
      <point x="446" y="668" type="curve" smooth="yes"/>
      <point x="573" y="668"/>
      <point x="650" y="576"/>
      <point x="650" y="413" type="curve" smooth="yes"/>
      <point x="650" y="238"/>
      <point x="598" y="130"/>
      <point x="549" y="130" type="curve" smooth="yes"/>
      <point x="526" y="130"/>
      <point x="506" y="151"/>
      <point x="506" y="192" type="curve" smooth="yes"/>
      <point x="506" y="213"/>
      <point x="510" y="245"/>
      <point x="514" y="265" type="curve" smooth="yes"/>
      <point x="564" y="520" type="line"/>
      <point x="546" y="520" type="line"/>
      <point x="511" y="499" type="line"/>
      <point x="495" y="515"/>
      <point x="471" y="529"/>
      <point x="436" y="529" type="curve" smooth="yes"/>
      <point x="281" y="529"/>
      <point x="216" y="344"/>
      <point x="216" y="225" type="curve" smooth="yes"/>
      <point x="216" y="127"/>
      <point x="270" y="77"/>
      <point x="332" y="77" type="curve" smooth="yes"/>
      <point x="387" y="77"/>
      <point x="420" y="116"/>
      <point x="445" y="168" type="curve"/>
      <point x="449" y="168" type="line"/>
      <point x="462" y="112"/>
      <point x="493" y="77"/>
      <point x="541" y="77" type="curve" smooth="yes"/>
      <point x="628" y="77"/>
      <point x="714" y="212"/>
      <point x="714" y="411" type="curve" smooth="yes"/>
      <point x="714" y="582"/>
      <point x="627" y="714"/>
      <point x="453" y="714" type="curve" smooth="yes"/>
      <point x="225" y="714"/>
      <point x="57" y="486"/>
      <point x="57" y="193" type="curve" smooth="yes"/>
      <point x="57" y="-25"/>
      <point x="176" y="-142"/>
    </contour>
    <contour>
      <point x="350" y="130" type="curve" smooth="yes"/>
      <point x="317" y="130"/>
      <point x="295" y="160"/>
      <point x="295" y="223" type="curve" smooth="yes"/>
      <point x="295" y="306"/>
      <point x="338" y="488"/>
      <point x="435" y="488" type="curve" smooth="yes"/>
      <point x="454" y="488"/>
      <point x="473" y="477"/>
      <point x="478" y="458" type="curve"/>
      <point x="439" y="255" type="line" smooth="yes"/>
      <point x="428" y="194"/>
      <point x="402" y="130"/>
    </contour>
  </outline>
</glyph>
<glyph name="A" format="2">
  <advance width="404"/>
  <unicode hex="0041"/>
  <anchor x="146" y="0" name="bottom"/>
  <anchor x="284" y="715" name="top"/>
  <anchor x="480" y="714" name="topright"/>
  <outline>
    <contour>
      <point x="-65" y="0" type="line"/>
      <point x="22" y="0" type="line"/>
      <point x="115" y="227" type="line"/>
      <point x="257" y="227" type="line"/>
      <point x="256" y="0" type="line"/>
      <point x="339" y="0" type="line"/>
      <point x="336" y="717" type="line"/>
      <point x="234" y="717" type="line"/>
    </contour>
    <contour>
      <point x="142" y="300" type="line"/>
      <point x="238" y="551" type="line" smooth="yes"/>
      <point x="251" y="585"/>
      <point x="259" y="613"/>
      <point x="265" y="636" type="curve"/>
      <point x="268" y="636" type="line"/>
      <point x="265" y="612"/>
      <point x="264" y="583"/>
      <point x="264" y="551" type="curve" smooth="yes"/>
      <point x="260" y="300" type="line"/>
    </contour>
  </outline>
</glyph>
<glyph name="B" format="2">
  <advance width="430"/>
  <unicode hex="0042"/>
  <anchor x="163" y="0" name="bottom"/>
  <anchor x="311" y="714" name="top"/>
  <anchor x="505" y="714" name="topright"/>
  <outline>
    <contour>
      <point x="0" y="0" type="line"/>
      <point x="157" y="0" type="line" smooth="yes"/>
      <point x="302" y="0"/>
      <point x="380" y="108"/>
      <point x="380" y="241" type="curve" smooth="yes"/>
      <point x="380" y="303"/>
      <point x="353" y="357"/>
      <point x="302" y="372" type="curve"/>
      <point x="302" y="375" type="line"/>
      <point x="396" y="400"/>
      <point x="437" y="486"/>
      <point x="437" y="575" type="curve" smooth="yes"/>
      <point x="437" y="668"/>
      <point x="370" y="714"/>
      <point x="283" y="714" type="curve" smooth="yes"/>
      <point x="151" y="714" type="line"/>
    </contour>
    <contour>
      <point x="157" y="71" type="curve" smooth="yes"/>
      <point x="95" y="71" type="line"/>
      <point x="152" y="339" type="line"/>
      <point x="212" y="339" type="line" smooth="yes"/>
      <point x="265" y="339"/>
      <point x="297" y="306"/>
      <point x="297" y="243" type="curve" smooth="yes"/>
      <point x="297" y="149"/>
      <point x="254" y="71"/>
    </contour>
    <contour>
      <point x="223" y="407" type="curve" smooth="yes"/>
      <point x="166" y="407" type="line"/>
      <point x="216" y="644" type="line"/>
      <point x="267" y="644" type="line" smooth="yes"/>
      <point x="325" y="644"/>
      <point x="352" y="617"/>
      <point x="352" y="563" type="curve" smooth="yes"/>
      <point x="352" y="480"/>
      <point x="305" y="407"/>
    </contour>
  </outline>
</glyph>
<glyph name="B.serif" format="2">
  <advance width="531"/>
  <unicode hex="0042"/>
  <anchor x="209" y="0" name="bottom"/>
  <anchor x="361" y="714" name="top"/>
  <anchor x="606" y="714" name="topright"/>
  <outline>
    <contour>
      <point x="-17" y="0" type="line"/>
      <point x="228" y="0" type="line" smooth="yes"/>
      <point x="397" y="0"/>
      <point x="486" y="80"/>
      <point x="486" y="237" type="curve" smooth="yes"/>
      <point x="486" y="314"/>
      <point x="448" y="362"/>
      <point x="394" y="374" type="curve"/>
      <point x="395" y="378" type="line"/>
      <point x="472" y="400"/>
      <point x="533" y="458"/>
      <point x="533" y="571" type="curve" smooth="yes"/>
      <point x="533" y="664"/>
      <point x="471" y="714"/>
      <point x="351" y="714" type="curve" smooth="yes"/>
      <point x="133" y="714" type="line"/>
      <point x="124" y="673" type="line"/>
      <point x="135" y="673" type="line" smooth="yes"/>
      <point x="166" y="673"/>
      <point x="191" y="668"/>
      <point x="191" y="635" type="curve" smooth="yes"/>
      <point x="191" y="628"/>
      <point x="189" y="620"/>
      <point x="184" y="596" type="curve" smooth="yes"/>
      <point x="83" y="114" type="line"/>
      <point x="70" y="51"/>
      <point x="39" y="41"/>
      <point x="2" y="41" type="curve" smooth="yes"/>
      <point x="-8" y="41" type="line"/>
    </contour>
    <contour>
      <point x="233" y="49" type="curve" smooth="yes"/>
      <point x="161" y="49" type="line"/>
      <point x="225" y="350" type="line"/>
      <point x="288" y="350" type="line" smooth="yes"/>
      <point x="355" y="350"/>
      <point x="387" y="315"/>
      <point x="387" y="244" type="curve" smooth="yes"/>
      <point x="387" y="123"/>
      <point x="346" y="49"/>
    </contour>
    <contour>
      <point x="293" y="398" type="curve" smooth="yes"/>
      <point x="235" y="398" type="line"/>
      <point x="291" y="665" type="line"/>
      <point x="336" y="665" type="line" smooth="yes"/>
      <point x="400" y="665"/>
      <point x="433" y="632"/>
      <point x="433" y="565" type="curve" smooth="yes"/>
      <point x="433" y="462"/>
      <point x="394" y="398"/>
    </contour>
  </outline>
</glyph>
<glyph name="C" format="2">
  <advance width="386"/>
  <unicode hex="0043"/>
  <anchor x="148" y="0" name="bottom"/>
  <anchor x="300" y="714" name="top"/>
  <anchor x="462" y="714" name="topright"/>
  <outline>
    <contour>
      <point x="196" y="-10" type="curve" smooth="yes"/>
      <point x="233" y="-10"/>
      <point x="272" y="-3"/>
      <point x="309" y="13" type="curve"/>
      <point x="309" y="86" type="line"/>
      <point x="275" y="72"/>
      <point x="244" y="62"/>
      <point x="214" y="62" type="curve" smooth="yes"/>
      <point x="148" y="62"/>
      <point x="119" y="112"/>
      <point x="119" y="227" type="curve" smooth="yes"/>
      <point x="119" y="363"/>
      <point x="190" y="652"/>
      <point x="343" y="652" type="curve" smooth="yes"/>
      <point x="371" y="652"/>
      <point x="396" y="643"/>
      <point x="418" y="624" type="curve"/>
      <point x="460" y="689" type="line"/>
      <point x="429" y="714"/>
      <point x="390" y="725"/>
      <point x="344" y="725" type="curve" smooth="yes"/>
      <point x="137" y="725"/>
      <point x="36" y="419"/>
      <point x="36" y="220" type="curve" smooth="yes"/>
      <point x="36" y="68"/>
      <point x="90" y="-10"/>
    </contour>
  </outline>
</glyph>
<glyph name="C.serif" format="2">
  <advance width="511"/>
  <unicode hex="0043"/>
  <anchor x="247" y="0" name="bottom"/>
  <anchor x="392" y="714" name="top"/>
  <anchor x="586" y="714" name="topright"/>
  <outline>
    <contour>
      <point x="271" y="-10" type="curve" smooth="yes"/>
      <point x="390" y="-10"/>
      <point x="447" y="61"/>
      <point x="447" y="114" type="curve" smooth="yes"/>
      <point x="447" y="127"/>
      <point x="443" y="138"/>
      <point x="438" y="144" type="curve"/>
      <point x="409" y="99"/>
      <point x="361" y="53"/>
      <point x="287" y="53" type="curve" smooth="yes"/>
      <point x="198" y="53"/>
      <point x="152" y="116"/>
      <point x="152" y="227" type="curve" smooth="yes"/>
      <point x="152" y="408"/>
      <point x="247" y="674"/>
      <point x="396" y="674" type="curve" smooth="yes"/>
      <point x="462" y="674"/>
      <point x="469" y="593"/>
      <point x="466" y="537" type="curve"/>
      <point x="519" y="537"/>
      <point x="557" y="568"/>
      <point x="557" y="620" type="curve" smooth="yes"/>
      <point x="557" y="683"/>
      <point x="506" y="725"/>
      <point x="410" y="725" type="curve" smooth="yes"/>
      <point x="200" y="725"/>
      <point x="54" y="482"/>
      <point x="54" y="239" type="curve" smooth="yes"/>
      <point x="54" y="80"/>
      <point x="133" y="-10"/>
    </contour>
  </outline>
</glyph>
<glyph name="D" format="2">
  <advance width="465"/>
  <unicode hex="0044"/>
  <anchor x="177" y="0" name="bottom"/>
  <anchor x="258" y="357" name="center"/>
  <anchor x="328" y="714" name="top"/>
  <anchor x="539" y="714" name="topright"/>
  <outline>
    <contour>
      <point x="0" y="0" type="line"/>
      <point x="118" y="0" type="line" smooth="yes"/>
      <point x="360" y="0"/>
      <point x="450" y="286"/>
      <point x="450" y="503" type="curve" smooth="yes"/>
      <point x="450" y="642"/>
      <point x="386" y="714"/>
      <point x="268" y="714" type="curve" smooth="yes"/>
      <point x="151" y="714" type="line"/>
    </contour>
    <contour>
      <point x="130" y="73" type="curve" smooth="yes"/>
      <point x="95" y="73" type="line"/>
      <point x="216" y="641" type="line"/>
      <point x="259" y="641" type="line" smooth="yes"/>
      <point x="330" y="641"/>
      <point x="365" y="597"/>
      <point x="365" y="498" type="curve" smooth="yes"/>
      <point x="365" y="319"/>
      <point x="296" y="73"/>
    </contour>
  </outline>
</glyph>
<glyph name="D.serif" format="2">
  <advance width="590"/>
  <unicode hex="0044"/>
  <anchor x="238" y="0" name="bottom"/>
  <anchor x="333" y="357" name="center"/>
  <anchor x="390" y="714" name="top"/>
  <anchor x="665" y="714" name="topright"/>
  <outline>
    <contour>
      <point x="-17" y="0" type="line"/>
      <point x="242" y="0" type="line" smooth="yes"/>
      <point x="461" y="0"/>
      <point x="587" y="219"/>
      <point x="587" y="462" type="curve" smooth="yes"/>
      <point x="587" y="625"/>
      <point x="507" y="714"/>
      <point x="367" y="714" type="curve" smooth="yes"/>
      <point x="134" y="714" type="line"/>
      <point x="124" y="673" type="line"/>
      <point x="135" y="673" type="line" smooth="yes"/>
      <point x="164" y="673"/>
      <point x="191" y="670"/>
      <point x="191" y="635" type="curve" smooth="yes"/>
      <point x="191" y="625"/>
      <point x="188" y="613"/>
      <point x="185" y="599" type="curve" smooth="yes"/>
      <point x="83" y="114" type="line"/>
      <point x="70" y="50"/>
      <point x="37" y="41"/>
      <point x="2" y="41" type="curve" smooth="yes"/>
      <point x="-9" y="41" type="line"/>
    </contour>
    <contour>
      <point x="222" y="50" type="curve" smooth="yes"/>
      <point x="161" y="50" type="line"/>
      <point x="291" y="665" type="line"/>
      <point x="347" y="665" type="line" smooth="yes"/>
      <point x="433" y="665"/>
      <point x="486" y="605"/>
      <point x="486" y="473" type="curve" smooth="yes"/>
      <point x="486" y="232"/>
      <point x="387" y="50"/>
    </contour>
  </outline>
</glyph>
<glyph name="E" format="2">
  <advance width="366"/>
  <unicode hex="0045"/>
  <anchor x="128" y="0" name="bottom"/>
  <anchor x="279" y="714" name="top"/>
  <anchor x="442" y="714" name="topright"/>
  <outline>
    <contour>
      <point x="0" y="0" type="line"/>
      <point x="259" y="0" type="line"/>
      <point x="274" y="72" type="line"/>
      <point x="95" y="72" type="line"/>
      <point x="151" y="337" type="line"/>
      <point x="318" y="337" type="line"/>
      <point x="334" y="409" type="line"/>
      <point x="167" y="409" type="line"/>
      <point x="216" y="642" type="line"/>
      <point x="395" y="642" type="line"/>
      <point x="410" y="714" type="line"/>
      <point x="151" y="714" type="line"/>
    </contour>
  </outline>
</glyph>
<glyph name="E.serif" format="2">
  <advance width="505"/>
  <unicode hex="0045"/>
  <anchor x="196" y="0" name="bottom"/>
  <anchor x="348" y="714" name="top"/>
  <anchor x="580" y="714" name="topright"/>
  <outline>
    <contour>
      <point x="-17" y="0" type="line"/>
      <point x="420" y="0" type="line"/>
      <point x="462" y="174" type="line"/>
      <point x="417" y="174" type="line"/>
      <point x="403" y="131" type="line" smooth="yes"/>
      <point x="388" y="87"/>
      <point x="359" y="49"/>
      <point x="309" y="49" type="curve" smooth="yes"/>
      <point x="161" y="49" type="line"/>
      <point x="225" y="350" type="line"/>
      <point x="415" y="350" type="line"/>
      <point x="425" y="398" type="line"/>
      <point x="235" y="398" type="line"/>
      <point x="291" y="665" type="line"/>
      <point x="419" y="665" type="line" smooth="yes"/>
      <point x="458" y="665"/>
      <point x="473" y="638"/>
      <point x="473" y="603" type="curve" smooth="yes"/>
      <point x="473" y="595"/>
      <point x="467" y="549"/>
      <point x="466" y="540" type="curve"/>
      <point x="512" y="540" type="line"/>
      <point x="545" y="714" type="line"/>
      <point x="133" y="714" type="line"/>
      <point x="124" y="673" type="line"/>
      <point x="135" y="673" type="line" smooth="yes"/>
      <point x="166" y="673"/>
      <point x="189" y="667"/>
      <point x="189" y="627" type="curve" smooth="yes"/>
      <point x="189" y="617"/>
      <point x="188" y="606"/>
      <point x="183" y="585" type="curve" smooth="yes"/>
      <point x="81" y="108" type="line" smooth="yes"/>
      <point x="70" y="55"/>
      <point x="46" y="41"/>
      <point x="2" y="41" type="curve" smooth="yes"/>
      <point x="-8" y="41" type="line"/>
    </contour>
  </outline>
</glyph>
<glyph name="F" format="2">
  <advance width="345"/>
  <unicode hex="0046"/>
  <anchor x="117" y="0" name="bottom"/>
  <anchor x="268" y="714" name="top"/>
  <anchor x="420" y="714" name="topright"/>
  <outline>
    <contour>
      <point x="0" y="0" type="line"/>
      <point x="80" y="0" type="line"/>
      <point x="145" y="308" type="line"/>
      <point x="313" y="308" type="line"/>
      <point x="328" y="380" type="line"/>
      <point x="161" y="380" type="line"/>
      <point x="216" y="642" type="line"/>
      <point x="395" y="642" type="line"/>
      <point x="411" y="714" type="line"/>
      <point x="151" y="714" type="line"/>
    </contour>
  </outline>
</glyph>
<glyph name="F.serif" format="2">
  <advance width="479"/>
  <unicode hex="0046"/>
  <anchor x="113" y="0" name="bottom"/>
  <anchor x="334" y="714" name="top"/>
  <anchor x="554" y="714" name="topright"/>
  <outline>
    <contour>
      <point x="-17" y="0" type="line"/>
      <point x="241" y="0" type="line"/>
      <point x="250" y="41" type="line"/>
      <point x="221" y="41" type="line" smooth="yes"/>
      <point x="194" y="41"/>
      <point x="171" y="46"/>
      <point x="171" y="85" type="curve" smooth="yes"/>
      <point x="171" y="98"/>
      <point x="172" y="105"/>
      <point x="177" y="128" type="curve" smooth="yes"/>
      <point x="219" y="326" type="line"/>
      <point x="412" y="326" type="line"/>
      <point x="422" y="375" type="line"/>
      <point x="230" y="375" type="line"/>
      <point x="291" y="665" type="line"/>
      <point x="417" y="665" type="line" smooth="yes"/>
      <point x="459" y="665"/>
      <point x="474" y="639"/>
      <point x="474" y="603" type="curve" smooth="yes"/>
      <point x="474" y="595"/>
      <point x="470" y="563"/>
      <point x="468" y="540" type="curve"/>
      <point x="513" y="540" type="line"/>
      <point x="547" y="714" type="line"/>
      <point x="133" y="714" type="line"/>
      <point x="124" y="673" type="line"/>
      <point x="135" y="673" type="line" smooth="yes"/>
      <point x="167" y="673"/>
      <point x="191" y="667"/>
      <point x="191" y="635" type="curve" smooth="yes"/>
      <point x="191" y="626"/>
      <point x="188" y="609"/>
      <point x="184" y="589" type="curve" smooth="yes"/>
      <point x="82" y="108" type="line"/>
      <point x="68" y="49"/>
      <point x="37" y="41"/>
      <point x="2" y="41" type="curve" smooth="yes"/>
      <point x="-8" y="41" type="line"/>
    </contour>
  </outline>
</glyph>
<glyph name="G" format="2">
  <advance width="492"/>
  <unicode hex="0047"/>
  <anchor x="190" y="0" name="bottom"/>
  <anchor x="341" y="714" name="top"/>
  <anchor x="566" y="714" name="topright"/>
  <outline>
    <contour>
      <point x="227" y="-10" type="curve" smooth="yes"/>
      <point x="275" y="-10"/>
      <point x="329" y="1"/>
      <point x="381" y="21" type="curve"/>
      <point x="457" y="377" type="line"/>
      <point x="289" y="377" type="line"/>
      <point x="274" y="306" type="line"/>
      <point x="362" y="306" type="line"/>
      <point x="313" y="74" type="line"/>
      <point x="288" y="66"/>
      <point x="262" y="62"/>
      <point x="234" y="62" type="curve" smooth="yes"/>
      <point x="157" y="62"/>
      <point x="119" y="110"/>
      <point x="119" y="221" type="curve" smooth="yes"/>
      <point x="119" y="423"/>
      <point x="212" y="652"/>
      <point x="357" y="652" type="curve" smooth="yes"/>
      <point x="399" y="652"/>
      <point x="435" y="640"/>
      <point x="474" y="611" type="curve"/>
      <point x="514" y="680" type="line"/>
      <point x="476" y="707"/>
      <point x="423" y="725"/>
      <point x="364" y="725" type="curve" smooth="yes"/>
      <point x="174" y="725"/>
      <point x="36" y="498"/>
      <point x="36" y="217" type="curve" smooth="yes"/>
      <point x="36" y="68"/>
      <point x="98" y="-10"/>
    </contour>
  </outline>
</glyph>
<glyph name="G.serif" format="2">
  <advance width="587"/>
  <unicode hex="0047"/>
  <anchor x="264" y="0" name="bottom"/>
  <anchor x="419" y="714" name="top"/>
  <anchor x="662" y="714" name="topright"/>
  <outline>
    <contour>
      <point x="274" y="-10" type="curve" smooth="yes"/>
      <point x="345" y="-10"/>
      <point x="401" y="5"/>
      <point x="463" y="36" type="curve"/>
      <point x="501" y="215" type="line" smooth="yes"/>
      <point x="515" y="279"/>
      <point x="542" y="288"/>
      <point x="573" y="288" type="curve" smooth="yes"/>
      <point x="577" y="288" type="line"/>
      <point x="587" y="329" type="line"/>
      <point x="359" y="329" type="line"/>
      <point x="350" y="288" type="line"/>
      <point x="359" y="288" type="line" smooth="yes"/>
      <point x="390" y="288"/>
      <point x="414" y="283"/>
      <point x="414" y="250" type="curve" smooth="yes"/>
      <point x="414" y="242"/>
      <point x="413" y="233"/>
      <point x="408" y="211" type="curve" smooth="yes"/>
      <point x="378" y="75" type="line"/>
      <point x="354" y="56"/>
      <point x="318" y="43"/>
      <point x="286" y="43" type="curve" smooth="yes"/>
      <point x="191" y="43"/>
      <point x="153" y="116"/>
      <point x="153" y="222" type="curve" smooth="yes"/>
      <point x="153" y="452"/>
      <point x="266" y="672"/>
      <point x="405" y="672" type="curve" smooth="yes"/>
      <point x="476" y="672"/>
      <point x="503" y="618"/>
      <point x="501" y="540" type="curve"/>
      <point x="551" y="540"/>
      <point x="593" y="564"/>
      <point x="593" y="621" type="curve" smooth="yes"/>
      <point x="593" y="678"/>
      <point x="538" y="724"/>
      <point x="424" y="724" type="curve" smooth="yes"/>
      <point x="207" y="724"/>
      <point x="54" y="503"/>
      <point x="54" y="240" type="curve" smooth="yes"/>
      <point x="54" y="87"/>
      <point x="128" y="-10"/>
    </contour>
  </outline>
</glyph>
<glyph name="H" format="2">
  <advance width="483"/>
  <unicode hex="0048"/>
  <anchor x="186" y="0" name="bottom"/>
  <anchor x="267" y="357" name="center"/>
  <anchor x="337" y="714" name="top"/>
  <anchor x="558" y="714" name="topright"/>
  <outline>
    <contour>
      <point x="0" y="0" type="line"/>
      <point x="80" y="0" type="line"/>
      <point x="151" y="337" type="line"/>
      <point x="344" y="337" type="line"/>
      <point x="273" y="0" type="line"/>
      <point x="353" y="0" type="line"/>
      <point x="505" y="714" type="line"/>
      <point x="425" y="714" type="line"/>
      <point x="360" y="410" type="line"/>
      <point x="167" y="410" type="line"/>
      <point x="231" y="714" type="line"/>
      <point x="151" y="714" type="line"/>
    </contour>
  </outline>
</glyph>
<glyph name="H.serif" format="2">
  <advance width="641"/>
  <unicode hex="0048"/>
  <anchor x="264" y="0" name="bottom"/>
  <anchor x="354" y="357" name="center"/>
  <anchor x="416" y="714" name="top"/>
  <anchor x="716" y="714" name="topright"/>
  <outline>
    <contour>
      <point x="-17" y="0" type="line"/>
      <point x="224" y="0" type="line"/>
      <point x="234" y="41" type="line"/>
      <point x="224" y="41" type="line" smooth="yes"/>
      <point x="191" y="41"/>
      <point x="169" y="47"/>
      <point x="169" y="78" type="curve" smooth="yes"/>
      <point x="169" y="86"/>
      <point x="172" y="101"/>
      <point x="174" y="112" type="curve" smooth="yes"/>
      <point x="224" y="349" type="line"/>
      <point x="471" y="349" type="line"/>
      <point x="423" y="114" type="line" smooth="yes"/>
      <point x="410" y="50"/>
      <point x="378" y="41"/>
      <point x="344" y="41" type="curve" smooth="yes"/>
      <point x="333" y="41" type="line"/>
      <point x="324" y="0" type="line"/>
      <point x="566" y="0" type="line"/>
      <point x="576" y="41" type="line"/>
      <point x="565" y="41" type="line" smooth="yes"/>
      <point x="531" y="41"/>
      <point x="509" y="45"/>
      <point x="509" y="78" type="curve" smooth="yes"/>
      <point x="509" y="86"/>
      <point x="512" y="101"/>
      <point x="514" y="112" type="curve" smooth="yes"/>
      <point x="617" y="600" type="line" smooth="yes"/>
      <point x="630" y="664"/>
      <point x="663" y="673"/>
      <point x="698" y="673" type="curve" smooth="yes"/>
      <point x="708" y="673" type="line"/>
      <point x="717" y="714" type="line"/>
      <point x="475" y="714" type="line"/>
      <point x="467" y="673" type="line"/>
      <point x="477" y="673" type="line" smooth="yes"/>
      <point x="509" y="673"/>
      <point x="531" y="669"/>
      <point x="531" y="636" type="curve" smooth="yes"/>
      <point x="531" y="629"/>
      <point x="529" y="616"/>
      <point x="526" y="605" type="curve" smooth="yes"/>
      <point x="482" y="398" type="line"/>
      <point x="235" y="398" type="line"/>
      <point x="277" y="600" type="line"/>
      <point x="290" y="664"/>
      <point x="322" y="673"/>
      <point x="356" y="673" type="curve" smooth="yes"/>
      <point x="366" y="673" type="line"/>
      <point x="376" y="714" type="line"/>
      <point x="133" y="714" type="line"/>
      <point x="124" y="673" type="line"/>
      <point x="135" y="673" type="line" smooth="yes"/>
      <point x="168" y="673"/>
      <point x="191" y="668"/>
      <point x="191" y="636" type="curve" smooth="yes"/>
      <point x="191" y="629"/>
      <point x="189" y="618"/>
      <point x="185" y="598" type="curve" smooth="yes"/>
      <point x="83" y="114" type="line"/>
      <point x="70" y="50"/>
      <point x="37" y="41"/>
      <point x="2" y="41" type="curve" smooth="yes"/>
      <point x="-8" y="41" type="line"/>
    </contour>
  </outline>
</glyph>
<glyph name="I" format="2">
  <advance width="260"/>
  <unicode hex="0049"/>
  <anchor x="74" y="0" name="bottom"/>
  <anchor x="224" y="714" name="top"/>
  <anchor x="335" y="714" name="topright"/>
  <outline>
    <contour>
      <point x="-51" y="0" type="line"/>
      <point x="180" y="0" type="line"/>
      <point x="189" y="45" type="line"/>
      <point x="118" y="61" type="line"/>
      <point x="243" y="653" type="line"/>
      <point x="321" y="669" type="line"/>
      <point x="331" y="714" type="line"/>
      <point x="100" y="714" type="line"/>
      <point x="91" y="669" type="line"/>
      <point x="163" y="653" type="line"/>
      <point x="38" y="61" type="line"/>
      <point x="-41" y="45" type="line"/>
    </contour>
  </outline>
</glyph>
<glyph name="I.serif" format="2">
  <advance width="302"/>
  <unicode hex="0049"/>
  <anchor x="94" y="0" name="bottom"/>
  <anchor x="246" y="714" name="top"/>
  <anchor x="377" y="714" name="topright"/>
  <outline>
    <contour>
      <point x="-17" y="0" type="line"/>
      <point x="227" y="0" type="line"/>
      <point x="236" y="41" type="line"/>
      <point x="226" y="41" type="line" smooth="yes"/>
      <point x="193" y="41"/>
      <point x="169" y="47"/>
      <point x="169" y="79" type="curve" smooth="yes"/>
      <point x="169" y="87"/>
      <point x="173" y="103"/>
      <point x="176" y="117" type="curve" smooth="yes"/>
      <point x="279" y="600" type="line"/>
      <point x="291" y="664"/>
      <point x="323" y="673"/>
      <point x="359" y="673" type="curve" smooth="yes"/>
      <point x="369" y="673" type="line"/>
      <point x="378" y="714" type="line"/>
      <point x="133" y="714" type="line"/>
      <point x="124" y="673" type="line"/>
      <point x="135" y="673" type="line" smooth="yes"/>
      <point x="168" y="673"/>
      <point x="191" y="667"/>
      <point x="191" y="635" type="curve" smooth="yes"/>
      <point x="191" y="628"/>
      <point x="189" y="617"/>
      <point x="186" y="603" type="curve" smooth="yes"/>
      <point x="83" y="114" type="line"/>
      <point x="70" y="50"/>
      <point x="37" y="41"/>
      <point x="2" y="41" type="curve" smooth="yes"/>
      <point x="-8" y="41" type="line"/>
    </contour>
  </outline>
</glyph>
<glyph name="J" format="2">
  <advance width="202"/>
  <unicode hex="004A"/>
  <anchor x="-80" y="-192" name="bottom"/>
  <anchor x="196" y="714" name="top"/>
  <anchor x="277" y="714" name="topright"/>
  <outline>
    <contour>
      <point x="-80" y="-192" type="curve" smooth="yes"/>
      <point x="1" y="-192"/>
      <point x="52" y="-139"/>
      <point x="78" y="-14" type="curve" smooth="yes"/>
      <point x="232" y="714" type="line"/>
      <point x="152" y="714" type="line"/>
      <point x="1" y="0" type="line" smooth="yes"/>
      <point x="-15" y="-74"/>
      <point x="-35" y="-120"/>
      <point x="-82" y="-120" type="curve" smooth="yes"/>
      <point x="-98" y="-120"/>
      <point x="-114" y="-115"/>
      <point x="-129" y="-108" type="curve"/>
      <point x="-147" y="-180" type="line"/>
      <point x="-130" y="-188"/>
      <point x="-109" y="-192"/>
    </contour>
  </outline>
</glyph>
<glyph name="J.serif" format="2">
  <advance width="295"/>
  <unicode hex="004A"/>
  <anchor x="-67" y="-240" name="bottom"/>
  <anchor x="243" y="714" name="top"/>
  <anchor x="370" y="714" name="topright"/>
  <outline>
    <contour>
      <point x="-67" y="-240" type="curve" smooth="yes"/>
      <point x="47" y="-240"/>
      <point x="111" y="-170"/>
      <point x="145" y="-8" type="curve" smooth="yes"/>
      <point x="275" y="600" type="line"/>
      <point x="288" y="664"/>
      <point x="319" y="673"/>
      <point x="355" y="673" type="curve" smooth="yes"/>
      <point x="365" y="673" type="line"/>
      <point x="375" y="714" type="line"/>
      <point x="131" y="714" type="line"/>
      <point x="121" y="673" type="line"/>
      <point x="132" y="673" type="line" smooth="yes"/>
      <point x="164" y="673"/>
      <point x="187" y="667"/>
      <point x="187" y="635" type="curve" smooth="yes"/>
      <point x="187" y="628"/>
      <point x="185" y="613"/>
      <point x="183" y="604" type="curve" smooth="yes"/>
      <point x="53" y="-10" type="line"/>
      <point x="23" y="-156"/>
      <point x="-14" y="-194"/>
      <point x="-70" y="-194" type="curve" smooth="yes"/>
      <point x="-86" y="-194"/>
      <point x="-108" y="-191"/>
      <point x="-121" y="-185" type="curve"/>
      <point x="-134" y="-229" type="line"/>
      <point x="-114" y="-236"/>
      <point x="-96" y="-240"/>
    </contour>
  </outline>
</glyph>
<glyph name="K" format="2">
  <advance width="405"/>
  <unicode hex="004B"/>
  <anchor x="147" y="0" name="bottom"/>
  <anchor x="298" y="714" name="top"/>
  <anchor x="480" y="714" name="topright"/>
  <outline>
    <contour>
      <point x="0" y="0" type="line"/>
      <point x="80" y="0" type="line"/>
      <point x="137" y="270" type="line"/>
      <point x="192" y="326" type="line"/>
      <point x="256" y="0" type="line"/>
      <point x="343" y="0" type="line"/>
      <point x="261" y="387" type="line"/>
      <point x="486" y="714" type="line"/>
      <point x="399" y="714" type="line"/>
      <point x="211" y="444" type="line"/>
      <point x="156" y="359" type="line"/>
      <point x="231" y="714" type="line"/>
      <point x="151" y="714" type="line"/>
    </contour>
  </outline>
</glyph>
<glyph name="K.serif" format="2">
  <advance width="569"/>
  <unicode hex="004B"/>
  <anchor x="228" y="0" name="bottom"/>
  <anchor x="380" y="714" name="top"/>
  <anchor x="644" y="714" name="topright"/>
  <outline>
    <contour>
      <point x="-17" y="0" type="line"/>
      <point x="227" y="0" type="line"/>
      <point x="236" y="41" type="line"/>
      <point x="226" y="41" type="line" smooth="yes"/>
      <point x="193" y="41"/>
      <point x="169" y="47"/>
      <point x="169" y="79" type="curve" smooth="yes"/>
      <point x="169" y="86"/>
      <point x="172" y="101"/>
      <point x="174" y="111" type="curve" smooth="yes"/>
      <point x="206" y="258" type="line"/>
      <point x="319" y="371" type="line"/>
      <point x="274" y="376" type="line"/>
      <point x="346" y="123" type="line"/>
      <point x="369" y="35"/>
      <point x="389" y="0"/>
      <point x="485" y="0" type="curve" smooth="yes"/>
      <point x="514" y="0" type="line"/>
      <point x="524" y="41" type="line"/>
      <point x="521" y="41" type="line" smooth="yes"/>
      <point x="484" y="41"/>
      <point x="464" y="65"/>
      <point x="448" y="118" type="curve" smooth="yes"/>
      <point x="352" y="438" type="line"/>
      <point x="330" y="383" type="line"/>
      <point x="511" y="579" type="line" smooth="yes"/>
      <point x="564" y="637"/>
      <point x="602" y="674"/>
      <point x="640" y="674" type="curve"/>
      <point x="649" y="714" type="line"/>
      <point x="461" y="714" type="line"/>
      <point x="453" y="674" type="line"/>
      <point x="479" y="674"/>
      <point x="487" y="670"/>
      <point x="487" y="654" type="curve" smooth="yes"/>
      <point x="487" y="634"/>
      <point x="471" y="610"/>
      <point x="426" y="558" type="curve"/>
      <point x="220" y="319" type="line"/>
      <point x="277" y="600" type="line"/>
      <point x="291" y="664"/>
      <point x="321" y="673"/>
      <point x="356" y="673" type="curve" smooth="yes"/>
      <point x="366" y="673" type="line"/>
      <point x="376" y="714" type="line"/>
      <point x="133" y="714" type="line"/>
      <point x="124" y="673" type="line"/>
      <point x="135" y="673" type="line" smooth="yes"/>
      <point x="168" y="673"/>
      <point x="191" y="667"/>
      <point x="191" y="635" type="curve" smooth="yes"/>
      <point x="191" y="628"/>
      <point x="190" y="620"/>
      <point x="186" y="601" type="curve" smooth="yes"/>
      <point x="83" y="114" type="line" smooth="yes"/>
      <point x="69" y="50"/>
      <point x="37" y="41"/>
      <point x="2" y="41" type="curve" smooth="yes"/>
      <point x="-8" y="41" type="line"/>
    </contour>
  </outline>
</glyph>
<glyph name="L" format="2">
  <advance width="337"/>
  <unicode hex="004C"/>
  <anchor x="112" y="0" name="bottom"/>
  <anchor x="194" y="357" name="center"/>
  <anchor x="264" y="714" name="top"/>
  <anchor x="355" y="714" name="topright"/>
  <outline>
    <contour>
      <point x="0" y="0" type="line"/>
      <point x="256" y="0" type="line"/>
      <point x="270" y="72" type="line"/>
      <point x="95" y="72" type="line"/>
      <point x="231" y="714" type="line"/>
      <point x="151" y="714" type="line"/>
    </contour>
  </outline>
</glyph>
<glyph name="L.serif" format="2">
  <advance width="505"/>
  <unicode hex="004C"/>
  <anchor x="195" y="0" name="bottom"/>
  <anchor x="290" y="357" name="center"/>
  <anchor x="347" y="714" name="top"/>
  <anchor x="580" y="714" name="topright"/>
  <outline>
    <contour>
      <point x="-17" y="0" type="line"/>
      <point x="422" y="0" type="line"/>
      <point x="474" y="214" type="line"/>
      <point x="430" y="214" type="line"/>
      <point x="406" y="136" type="line" smooth="yes"/>
      <point x="390" y="86"/>
      <point x="364" y="49"/>
      <point x="314" y="49" type="curve" smooth="yes"/>
      <point x="162" y="49" type="line"/>
      <point x="279" y="605" type="line" smooth="yes"/>
      <point x="291" y="665"/>
      <point x="323" y="673"/>
      <point x="358" y="673" type="curve" smooth="yes"/>
      <point x="369" y="673" type="line"/>
      <point x="378" y="714" type="line"/>
      <point x="133" y="714" type="line"/>
      <point x="124" y="673" type="line"/>
      <point x="135" y="673" type="line" smooth="yes"/>
      <point x="168" y="673"/>
      <point x="191" y="667"/>
      <point x="191" y="635" type="curve" smooth="yes"/>
      <point x="191" y="628"/>
      <point x="189" y="617"/>
      <point x="186" y="601" type="curve" smooth="yes"/>
      <point x="83" y="114" type="line" smooth="yes"/>
      <point x="69" y="50"/>
      <point x="38" y="41"/>
      <point x="3" y="41" type="curve" smooth="yes"/>
      <point x="-8" y="41" type="line"/>
    </contour>
  </outline>
</glyph>
<glyph name="M" format="2">
  <advance width="647"/>
  <unicode hex="004D"/>
  <anchor x="268" y="0" name="bottom"/>
  <anchor x="419" y="714" name="top"/>
  <anchor x="722" y="714" name="topright"/>
  <outline>
    <contour>
      <point x="0" y="0" type="line"/>
      <point x="76" y="0" type="line"/>
      <point x="175" y="466" type="line" smooth="yes"/>
      <point x="182" y="500"/>
      <point x="187" y="534"/>
      <point x="195" y="575" type="curve"/>
      <point x="197" y="575" type="line"/>
      <point x="219" y="0" type="line"/>
      <point x="299" y="0" type="line"/>
      <point x="561" y="576" type="line"/>
      <point x="563" y="576" type="line"/>
      <point x="555" y="544"/>
      <point x="548" y="514"/>
      <point x="541" y="484" type="curve" smooth="yes"/>
      <point x="438" y="0" type="line"/>
      <point x="517" y="0" type="line"/>
      <point x="669" y="714" type="line"/>
      <point x="549" y="714" type="line"/>
      <point x="286" y="130" type="line"/>
      <point x="284" y="130" type="line"/>
      <point x="263" y="714" type="line"/>
      <point x="151" y="714" type="line"/>
    </contour>
  </outline>
</glyph>
<glyph name="M.serif" format="2">
  <advance width="754"/>
  <unicode hex="004D"/>
  <anchor x="320" y="0" name="bottom"/>
  <anchor x="472" y="714" name="top"/>
  <anchor x="829" y="714" name="topright"/>
  <outline>
    <contour>
      <point x="-17" y="0" type="line"/>
      <point x="182" y="0" type="line"/>
      <point x="192" y="41" type="line"/>
      <point x="183" y="41" type="line" smooth="yes"/>
      <point x="152" y="41"/>
      <point x="129" y="47"/>
      <point x="129" y="79" type="curve" smooth="yes"/>
      <point x="129" y="86"/>
      <point x="131" y="102"/>
      <point x="133" y="109" type="curve" smooth="yes"/>
      <point x="244" y="642" type="line"/>
      <point x="292" y="0" type="line"/>
      <point x="337" y="0" type="line"/>
      <point x="650" y="642" type="line"/>
      <point x="538" y="104" type="line" smooth="yes"/>
      <point x="527" y="49"/>
      <point x="499" y="41"/>
      <point x="468" y="41" type="curve" smooth="yes"/>
      <point x="459" y="41" type="line"/>
      <point x="449" y="0" type="line"/>
      <point x="679" y="0" type="line"/>
      <point x="690" y="41" type="line"/>
      <point x="679" y="41" type="line" smooth="yes"/>
      <point x="646" y="41"/>
      <point x="624" y="47"/>
      <point x="624" y="79" type="curve" smooth="yes"/>
      <point x="624" y="86"/>
      <point x="626" y="101"/>
      <point x="629" y="112" type="curve" smooth="yes"/>
      <point x="732" y="600" type="line" smooth="yes"/>
      <point x="746" y="664"/>
      <point x="775" y="673"/>
      <point x="812" y="673" type="curve" smooth="yes"/>
      <point x="821" y="673" type="line"/>
      <point x="831" y="714" type="line"/>
      <point x="639" y="714" type="line"/>
      <point x="365" y="151" type="line"/>
      <point x="325" y="714" type="line"/>
      <point x="133" y="714" type="line"/>
      <point x="124" y="673" type="line"/>
      <point x="135" y="673" type="line" smooth="yes"/>
      <point x="168" y="673"/>
      <point x="191" y="667"/>
      <point x="191" y="635" type="curve" smooth="yes"/>
      <point x="191" y="627"/>
      <point x="189" y="620"/>
      <point x="187" y="605" type="curve" smooth="yes"/>
      <point x="81" y="108" type="line" smooth="yes"/>
      <point x="68" y="47"/>
      <point x="37" y="41"/>
      <point x="3" y="41" type="curve" smooth="yes"/>
      <point x="-8" y="41" type="line"/>
    </contour>
  </outline>
</glyph>
<glyph name="N" format="2">
  <advance width="513"/>
  <unicode hex="004E"/>
  <anchor x="201" y="0" name="bottom"/>
  <anchor x="353" y="714" name="top"/>
  <anchor x="589" y="714" name="topright"/>
  <outline>
    <contour>
      <point x="0" y="0" type="line"/>
      <point x="77" y="0" type="line"/>
      <point x="154" y="366" type="line"/>
      <point x="162" y="404"/>
      <point x="184" y="502"/>
      <point x="194" y="578" type="curve"/>
      <point x="197" y="578" type="line"/>
      <point x="292" y="0" type="line"/>
      <point x="384" y="0" type="line"/>
      <point x="536" y="714" type="line"/>
      <point x="458" y="714" type="line"/>
      <point x="376.996" y="329.996" type="line"/>
      <point x="369" y="290"/>
      <point x="354" y="217"/>
      <point x="342" y="145" type="curve"/>
      <point x="339" y="145" type="line"/>
      <point x="246" y="714" type="line"/>
      <point x="151" y="714" type="line"/>
    </contour>
  </outline>
</glyph>
<glyph name="O" format="2">
  <advance width="496"/>
  <unicode hex="004F"/>
  <anchor x="192" y="0" name="bottom"/>
  <anchor x="273" y="357" name="center"/>
  <anchor x="343.009" y="714" name="top"/>
  <anchor x="571" y="714" name="topright"/>
  <outline>
    <contour>
      <point x="191" y="-10" type="curve" smooth="yes"/>
      <point x="399" y="-10"/>
      <point x="481" y="334"/>
      <point x="481" y="522" type="curve" smooth="yes"/>
      <point x="481" y="658"/>
      <point x="431" y="724"/>
      <point x="327" y="724" type="curve" smooth="yes"/>
      <point x="131" y="724"/>
      <point x="35" y="416"/>
      <point x="35" y="200" type="curve" smooth="yes"/>
      <point x="35" y="57"/>
      <point x="86" y="-10"/>
    </contour>
    <contour>
      <point x="197" y="63" type="curve" smooth="yes"/>
      <point x="145" y="63"/>
      <point x="118" y="103"/>
      <point x="118" y="199" type="curve" smooth="yes"/>
      <point x="118" y="327"/>
      <point x="173" y="652"/>
      <point x="320" y="652" type="curve" smooth="yes"/>
      <point x="373" y="652"/>
      <point x="399" y="611"/>
      <point x="399" y="523" type="curve" smooth="yes"/>
      <point x="399" y="363"/>
      <point x="333" y="63"/>
    </contour>
  </outline>
</glyph>
<glyph name="O.serif" format="2">
  <advance width="604"/>
  <unicode hex="004F"/>
  <anchor x="246" y="0" name="bottom"/>
  <anchor x="341" y="357" name="center"/>
  <anchor x="398" y="714" name="top"/>
  <anchor x="679" y="714" name="topright"/>
  <outline>
    <contour>
      <point x="256" y="-11" type="curve" smooth="yes"/>
      <point x="483" y="-11"/>
      <point x="601" y="282"/>
      <point x="601" y="470" type="curve" smooth="yes"/>
      <point x="601" y="646"/>
      <point x="508" y="725"/>
      <point x="400" y="725" type="curve" smooth="yes"/>
      <point x="177" y="725"/>
      <point x="54" y="443"/>
      <point x="54" y="247" type="curve" smooth="yes"/>
      <point x="54" y="79"/>
      <point x="141" y="-11"/>
    </contour>
    <contour>
      <point x="266" y="43" type="curve" smooth="yes"/>
      <point x="201" y="43"/>
      <point x="152" y="96"/>
      <point x="152" y="220" type="curve" smooth="yes"/>
      <point x="152" y="379"/>
      <point x="233" y="672"/>
      <point x="388" y="672" type="curve" smooth="yes"/>
      <point x="456" y="672"/>
      <point x="502" y="617"/>
      <point x="502" y="495" type="curve" smooth="yes"/>
      <point x="502" y="335"/>
      <point x="423" y="43"/>
    </contour>
  </outline>
</glyph>
<glyph name="P" format="2">
  <advance width="404"/>
  <unicode hex="0050"/>
  <anchor x="146" y="0" name="bottom"/>
  <anchor x="298" y="714" name="top"/>
  <anchor x="479" y="714" name="topright"/>
  <outline>
    <contour>
      <point x="0" y="0" type="line"/>
      <point x="80" y="0" type="line"/>
      <point x="139" y="279" type="line"/>
      <point x="184" y="279" type="line" smooth="yes"/>
      <point x="335" y="279"/>
      <point x="422" y="399"/>
      <point x="422" y="558" type="curve" smooth="yes"/>
      <point x="422" y="653"/>
      <point x="366" y="714"/>
      <point x="259" y="714" type="curve" smooth="yes"/>
      <point x="151" y="714" type="line"/>
    </contour>
    <contour>
      <point x="183" y="351" type="curve" smooth="yes"/>
      <point x="154" y="351" type="line"/>
      <point x="216" y="642" type="line"/>
      <point x="246" y="642" type="line" smooth="yes"/>
      <point x="307" y="642"/>
      <point x="339" y="610"/>
      <point x="339" y="548" type="curve" smooth="yes"/>
      <point x="339" y="431"/>
      <point x="285" y="351"/>
    </contour>
  </outline>
</glyph>
<glyph name="Q" format="2">
  <advance width="496"/>
  <unicode hex="0051"/>
  <anchor x="156" y="-170" name="bottom"/>
  <anchor x="343.009" y="714" name="top"/>
  <anchor x="571" y="714" name="topright"/>
  <outline>
    <contour>
      <point x="192" y="-8" type="curve"/>
      <point x="237" y="-170" type="line"/>
      <point x="329" y="-170" type="line"/>
      <point x="271" y="9" type="line"/>
      <point x="421" y="79"/>
      <point x="481" y="360"/>
      <point x="481" y="522" type="curve" smooth="yes"/>
      <point x="481" y="658"/>
      <point x="431" y="724"/>
      <point x="327" y="724" type="curve" smooth="yes"/>
      <point x="131" y="724"/>
      <point x="35" y="416"/>
      <point x="35" y="200" type="curve" smooth="yes"/>
      <point x="35" y="64"/>
      <point x="81" y="-4"/>
      <point x="175" y="-9" type="curve" smooth="yes"/>
      <point x="181" y="-9"/>
      <point x="186" y="-9"/>
    </contour>
    <contour>
      <point x="197" y="63" type="curve" smooth="yes"/>
      <point x="145" y="63"/>
      <point x="118" y="103"/>
      <point x="118" y="199" type="curve" smooth="yes"/>
      <point x="118" y="327"/>
      <point x="173" y="652"/>
      <point x="320" y="652" type="curve" smooth="yes"/>
      <point x="373" y="652"/>
      <point x="399" y="611"/>
      <point x="399" y="523" type="curve" smooth="yes"/>
      <point x="399" y="363"/>
      <point x="333" y="63"/>
    </contour>
  </outline>
</glyph>
<glyph name="Q.serif" format="2">
  <advance width="603"/>
  <unicode hex="0051"/>
  <anchor x="197" y="-222" name="bottom"/>
  <anchor x="396" y="714" name="top"/>
  <anchor x="678" y="714" name="topright"/>
  <outline>
    <contour>
      <point x="358" y="-222" type="curve" smooth="yes"/>
      <point x="394" y="-222"/>
      <point x="415" y="-214"/>
      <point x="440" y="-205" type="curve"/>
      <point x="435" y="-164" type="line"/>
      <point x="420" y="-171"/>
      <point x="404" y="-175"/>
      <point x="385" y="-175" type="curve" smooth="yes"/>
      <point x="335" y="-175"/>
      <point x="309" y="-126"/>
      <point x="308" y="-8" type="curve"/>
      <point x="501" y="26"/>
      <point x="601" y="294"/>
      <point x="601" y="470" type="curve" smooth="yes"/>
      <point x="601" y="646"/>
      <point x="509" y="725"/>
      <point x="400" y="725" type="curve" smooth="yes"/>
      <point x="176" y="725"/>
      <point x="54" y="443"/>
      <point x="54" y="246" type="curve" smooth="yes"/>
      <point x="54" y="100"/>
      <point x="118" y="12"/>
      <point x="209" y="-6" type="curve"/>
      <point x="209" y="-123"/>
      <point x="248" y="-222"/>
    </contour>
    <contour>
      <point x="266" y="43" type="curve" smooth="yes"/>
      <point x="201" y="43"/>
      <point x="152" y="96"/>
      <point x="152" y="220" type="curve" smooth="yes"/>
      <point x="152" y="379"/>
      <point x="232" y="672"/>
      <point x="389" y="672" type="curve" smooth="yes"/>
      <point x="456" y="672"/>
      <point x="502" y="617"/>
      <point x="502" y="495" type="curve" smooth="yes"/>
      <point x="502" y="335"/>
      <point x="423" y="43"/>
    </contour>
  </outline>
</glyph>
<glyph name="R" format="2">
  <advance width="418"/>
  <unicode hex="0052"/>
  <anchor x="153" y="0" name="bottom"/>
  <anchor x="304" y="714" name="top"/>
  <anchor x="493" y="714" name="topright"/>
  <outline>
    <contour>
      <point x="0" y="0" type="line"/>
      <point x="80" y="0" type="line"/>
      <point x="143" y="299" type="line"/>
      <point x="199" y="299" type="line"/>
      <point x="253" y="0" type="line"/>
      <point x="340" y="0" type="line"/>
      <point x="276" y="315" type="line"/>
      <point x="366" y="338"/>
      <point x="423" y="440"/>
      <point x="423" y="559" type="curve" smooth="yes"/>
      <point x="423" y="657"/>
      <point x="365" y="714"/>
      <point x="259" y="714" type="curve" smooth="yes"/>
      <point x="151" y="714" type="line"/>
    </contour>
    <contour>
      <point x="202" y="367" type="curve" smooth="yes"/>
      <point x="158" y="367" type="line"/>
      <point x="216" y="643" type="line"/>
      <point x="247" y="643" type="line" smooth="yes"/>
      <point x="307" y="643"/>
      <point x="339" y="611"/>
      <point x="339" y="549" type="curve" smooth="yes"/>
      <point x="339" y="457"/>
      <point x="297" y="367"/>
    </contour>
  </outline>
</glyph>
<glyph name="R.serif" format="2">
  <advance width="540"/>
  <unicode hex="0052"/>
  <anchor x="214" y="0" name="bottom"/>
  <anchor x="366" y="714" name="top"/>
  <anchor x="615" y="714" name="topright"/>
  <outline>
    <contour>
      <point x="-17" y="0" type="line"/>
      <point x="240" y="0" type="line"/>
      <point x="250" y="41" type="line"/>
      <point x="225" y="41" type="line" smooth="yes"/>
      <point x="193" y="41"/>
      <point x="170" y="47"/>
      <point x="170" y="79" type="curve" smooth="yes"/>
      <point x="170" y="87"/>
      <point x="172" y="96"/>
      <point x="174" y="107" type="curve" smooth="yes"/>
      <point x="218" y="315" type="line"/>
      <point x="288" y="315" type="line"/>
      <point x="328" y="117" type="line" smooth="yes"/>
      <point x="346" y="24"/>
      <point x="381" y="0"/>
      <point x="473" y="0" type="curve" smooth="yes"/>
      <point x="488" y="0" type="line"/>
      <point x="497" y="41" type="line"/>
      <point x="490" y="41" type="line" smooth="yes"/>
      <point x="455" y="41"/>
      <point x="438" y="67"/>
      <point x="425" y="120" type="curve" smooth="yes"/>
      <point x="377" y="331" type="line"/>
      <point x="449" y="354"/>
      <point x="535" y="410"/>
      <point x="535" y="554" type="curve" smooth="yes"/>
      <point x="535" y="661"/>
      <point x="476" y="714"/>
      <point x="356" y="714" type="curve" smooth="yes"/>
      <point x="133" y="714" type="line"/>
      <point x="124" y="673" type="line"/>
      <point x="135" y="673" type="line" smooth="yes"/>
      <point x="168" y="673"/>
      <point x="191" y="667"/>
      <point x="191" y="635" type="curve" smooth="yes"/>
      <point x="191" y="628"/>
      <point x="189" y="619"/>
      <point x="187" y="605" type="curve" smooth="yes"/>
      <point x="81" y="108" type="line" smooth="yes"/>
      <point x="68" y="47"/>
      <point x="37" y="41"/>
      <point x="3" y="41" type="curve" smooth="yes"/>
      <point x="-8" y="41" type="line"/>
    </contour>
    <contour>
      <point x="286" y="361" type="curve" smooth="yes"/>
      <point x="228" y="361" type="line"/>
      <point x="292" y="667" type="line"/>
      <point x="343" y="667" type="line" smooth="yes"/>
      <point x="406" y="667"/>
      <point x="436" y="632"/>
      <point x="436" y="553" type="curve" smooth="yes"/>
      <point x="436" y="415"/>
      <point x="366" y="361"/>
    </contour>
  </outline>
</glyph>
<glyph name="S" format="2">
  <advance width="376"/>
  <unicode hex="0053"/>
  <anchor x="133" y="0" name="bottom"/>
  <anchor x="284" y="714" name="top"/>
  <anchor x="452" y="714" name="topright"/>
  <outline>
    <contour>
      <point x="114" y="-10" type="curve" smooth="yes"/>
      <point x="248" y="-10"/>
      <point x="321" y="79"/>
      <point x="321" y="204" type="curve" smooth="yes"/>
      <point x="321" y="281"/>
      <point x="297" y="330"/>
      <point x="245" y="382" type="curve" smooth="yes"/>
      <point x="188" y="440"/>
      <point x="160" y="471"/>
      <point x="160" y="529" type="curve" smooth="yes"/>
      <point x="160" y="604"/>
      <point x="210" y="649"/>
      <point x="274" y="649" type="curve" smooth="yes"/>
      <point x="309" y="649"/>
      <point x="343" y="635"/>
      <point x="374" y="614" type="curve"/>
      <point x="412" y="687" type="line"/>
      <point x="382" y="708"/>
      <point x="326" y="724"/>
      <point x="280" y="724" type="curve" smooth="yes"/>
      <point x="156" y="724"/>
      <point x="76" y="644"/>
      <point x="76" y="520" type="curve" smooth="yes"/>
      <point x="76" y="441"/>
      <point x="109" y="395"/>
      <point x="162" y="342" type="curve" smooth="yes"/>
      <point x="223" y="279"/>
      <point x="237" y="250"/>
      <point x="237" y="197" type="curve" smooth="yes"/>
      <point x="237" y="114"/>
      <point x="188" y="66"/>
      <point x="116" y="66" type="curve" smooth="yes"/>
      <point x="69" y="66"/>
      <point x="23" y="83"/>
      <point x="-12" y="107" type="curve"/>
      <point x="-23" y="23" type="line"/>
      <point x="8" y="2"/>
      <point x="56" y="-10"/>
    </contour>
  </outline>
</glyph>
<glyph name="S.serif" format="2">
  <advance width="445"/>
  <unicode hex="0053"/>
  <anchor x="166" y="0" name="bottom"/>
  <anchor x="318" y="714" name="top"/>
  <anchor x="520" y="714" name="topright"/>
  <outline>
    <contour>
      <point x="191" y="-10" type="curve" smooth="yes"/>
      <point x="326" y="-10"/>
      <point x="411" y="70"/>
      <point x="411" y="208" type="curve" smooth="yes"/>
      <point x="411" y="282"/>
      <point x="375" y="337"/>
      <point x="301" y="393" type="curve" smooth="yes"/>
      <point x="237" y="438"/>
      <point x="204" y="471"/>
      <point x="204" y="537" type="curve" smooth="yes"/>
      <point x="204" y="633"/>
      <point x="256" y="676"/>
      <point x="315" y="676" type="curve" smooth="yes"/>
      <point x="386" y="676"/>
      <point x="400" y="605"/>
      <point x="398" y="550" type="curve"/>
      <point x="454" y="550"/>
      <point x="478" y="578"/>
      <point x="478" y="621" type="curve" smooth="yes"/>
      <point x="478" y="682"/>
      <point x="421" y="724"/>
      <point x="325" y="724" type="curve" smooth="yes"/>
      <point x="197" y="724"/>
      <point x="117" y="636"/>
      <point x="117" y="514" type="curve" smooth="yes"/>
      <point x="117" y="424"/>
      <point x="160" y="373"/>
      <point x="226" y="328" type="curve" smooth="yes"/>
      <point x="305" y="269"/>
      <point x="323" y="231"/>
      <point x="323" y="178" type="curve" smooth="yes"/>
      <point x="323" y="92"/>
      <point x="277" y="39"/>
      <point x="201" y="39" type="curve" smooth="yes"/>
      <point x="118" y="39"/>
      <point x="85" y="118"/>
      <point x="87" y="206" type="curve"/>
      <point x="50" y="206"/>
      <point x="13" y="182"/>
      <point x="13" y="128" type="curve" smooth="yes"/>
      <point x="13" y="54"/>
      <point x="72" y="-10"/>
    </contour>
  </outline>
</glyph>
<glyph name="T" format="2">
  <advance width="344"/>
  <unicode hex="0054"/>
  <anchor x="116" y="0" name="bottom"/>
  <anchor x="197" y="357" name="center"/>
  <anchor x="267" y="714" name="top"/>
  <anchor x="419" y="714" name="topright"/>
  <outline>
    <contour>
      <point x="66" y="0" type="line"/>
      <point x="146" y="0" type="line"/>
      <point x="282" y="641" type="line"/>
      <point x="405" y="641" type="line"/>
      <point x="421" y="714" type="line"/>
      <point x="95" y="714" type="line"/>
      <point x="79" y="641" type="line"/>
      <point x="202" y="641" type="line"/>
    </contour>
  </outline>
</glyph>
<glyph name="T.serif" format="2">
  <advance width="499"/>
  <unicode hex="0054"/>
  <anchor x="193" y="0" name="bottom"/>
  <anchor x="288" y="357" name="center"/>
  <anchor x="345" y="714" name="top"/>
  <anchor x="574" y="714" name="topright"/>
  <outline>
    <contour>
      <point x="76" y="0" type="line"/>
      <point x="333" y="0" type="line"/>
      <point x="342" y="41" type="line"/>
      <point x="326" y="41" type="line" smooth="yes"/>
      <point x="292" y="41"/>
      <point x="269" y="47"/>
      <point x="269" y="79" type="curve" smooth="yes"/>
      <point x="269" y="87"/>
      <point x="270" y="95"/>
      <point x="274" y="114" type="curve" smooth="yes"/>
      <point x="390" y="665" type="line"/>
      <point x="465" y="665" type="line" smooth="yes"/>
      <point x="502" y="665"/>
      <point x="516" y="639"/>
      <point x="516" y="605" type="curve" smooth="yes"/>
      <point x="516" y="596"/>
      <point x="511" y="555"/>
      <point x="509" y="542" type="curve"/>
      <point x="553" y="542" type="line"/>
      <point x="587" y="714" type="line"/>
      <point x="124" y="714" type="line"/>
      <point x="82" y="542" type="line"/>
      <point x="127" y="542" type="line"/>
      <point x="140" y="585" type="line" smooth="yes"/>
      <point x="154" y="626"/>
      <point x="177" y="665"/>
      <point x="224" y="665" type="curve" smooth="yes"/>
      <point x="297" y="665" type="line"/>
      <point x="181" y="108" type="line" smooth="yes"/>
      <point x="168" y="47"/>
      <point x="137" y="41"/>
      <point x="102" y="41" type="curve" smooth="yes"/>
      <point x="86" y="41" type="line"/>
    </contour>
  </outline>
</glyph>
<glyph name="U" format="2">
  <advance width="472"/>
  <unicode hex="0055"/>
  <anchor x="180" y="0" name="bottom"/>
  <anchor x="331" y="714" name="top"/>
  <anchor x="546" y="714" name="topright"/>
  <outline>
    <contour>
      <point x="176" y="-10" type="curve" smooth="yes"/>
      <point x="305" y="-10"/>
      <point x="362" y="80"/>
      <point x="392" y="223" type="curve" smooth="yes"/>
      <point x="498" y="714" type="line"/>
      <point x="418" y="714" type="line"/>
      <point x="314" y="231" type="line" smooth="yes"/>
      <point x="288" y="114"/>
      <point x="254" y="63"/>
      <point x="186" y="63" type="curve" smooth="yes"/>
      <point x="139" y="63"/>
      <point x="114" y="91"/>
      <point x="114" y="150" type="curve" smooth="yes"/>
      <point x="114" y="170"/>
      <point x="117" y="195"/>
      <point x="122" y="220" type="curve" smooth="yes"/>
      <point x="227" y="714" type="line"/>
      <point x="147" y="714" type="line"/>
      <point x="43" y="224" type="line" smooth="yes"/>
      <point x="36" y="194"/>
      <point x="33" y="164"/>
      <point x="33" y="140" type="curve" smooth="yes"/>
      <point x="33" y="45"/>
      <point x="86" y="-10"/>
    </contour>
  </outline>
</glyph>
<glyph name="U.serif" format="2">
  <advance width="589"/>
  <unicode hex="0055"/>
  <anchor x="237" y="0" name="bottom"/>
  <anchor x="389" y="714" name="top"/>
  <anchor x="664" y="714" name="topright"/>
  <outline>
    <contour>
      <point x="263" y="-10" type="curve" smooth="yes"/>
      <point x="391" y="-10"/>
      <point x="464" y="71"/>
      <point x="491" y="202" type="curve" smooth="yes"/>
      <point x="575" y="600" type="line" smooth="yes"/>
      <point x="588" y="664"/>
      <point x="621" y="673"/>
      <point x="656" y="673" type="curve" smooth="yes"/>
      <point x="666" y="673" type="line"/>
      <point x="674" y="714" type="line"/>
      <point x="471" y="714" type="line"/>
      <point x="462" y="673" type="line"/>
      <point x="472" y="673" type="line" smooth="yes"/>
      <point x="505" y="673"/>
      <point x="529" y="667"/>
      <point x="529" y="635" type="curve" smooth="yes"/>
      <point x="529" y="628"/>
      <point x="527" y="616"/>
      <point x="524" y="605" type="curve" smooth="yes"/>
      <point x="442" y="218" type="line" smooth="yes"/>
      <point x="421" y="118"/>
      <point x="383" y="49"/>
      <point x="281" y="49" type="curve" smooth="yes"/>
      <point x="213" y="49"/>
      <point x="175" y="83"/>
      <point x="175" y="150" type="curve" smooth="yes"/>
      <point x="175" y="175"/>
      <point x="179" y="206"/>
      <point x="188" y="247" type="curve" smooth="yes"/>
      <point x="263" y="600" type="line" smooth="yes"/>
      <point x="276" y="664"/>
      <point x="309" y="673"/>
      <point x="344" y="673" type="curve" smooth="yes"/>
      <point x="355" y="673" type="line"/>
      <point x="363" y="714" type="line"/>
      <point x="119" y="714" type="line"/>
      <point x="110" y="673" type="line"/>
      <point x="120" y="673" type="line" smooth="yes"/>
      <point x="152" y="673"/>
      <point x="176" y="667"/>
      <point x="176" y="635" type="curve" smooth="yes"/>
      <point x="176" y="628"/>
      <point x="175" y="619"/>
      <point x="171" y="601" type="curve" smooth="yes"/>
      <point x="97" y="252" type="line" smooth="yes"/>
      <point x="92" y="227"/>
      <point x="84" y="179"/>
      <point x="84" y="154" type="curve" smooth="yes"/>
      <point x="84" y="50"/>
      <point x="147" y="-10"/>
    </contour>
  </outline>
</glyph>
<glyph name="V" format="2">
  <advance width="404"/>
  <unicode hex="0056"/>
  <anchor x="146" y="0" name="bottom"/>
  <anchor x="297" y="714" name="top"/>
  <anchor x="479" y="714" name="topright"/>
  <outline>
    <contour>
      <point x="90" y="0" type="line"/>
      <point x="182" y="0" type="line"/>
      <point x="485.992" y="714" type="line"/>
      <point x="400" y="714" type="line"/>
      <point x="207" y="245" type="line" smooth="yes"/>
      <point x="185" y="190"/>
      <point x="169" y="144"/>
      <point x="159" y="108" type="curve"/>
      <point x="157" y="108" type="line"/>
      <point x="162" y="171"/>
      <point x="164" y="219"/>
      <point x="164" y="265" type="curve" smooth="yes"/>
      <point x="168" y="714" type="line"/>
      <point x="86" y="714" type="line"/>
    </contour>
  </outline>
</glyph>
<glyph name="V.serif" format="2">
  <advance width="546"/>
  <unicode hex="0056"/>
  <anchor x="217" y="0" name="bottom"/>
  <anchor x="369" y="714" name="top"/>
  <anchor x="622" y="714" name="topright"/>
  <outline>
    <contour>
      <point x="151" y="620" type="curve" smooth="yes"/>
      <point x="193" y="0" type="line"/>
      <point x="258" y="0" type="line"/>
      <point x="549" y="594" type="line" smooth="yes"/>
      <point x="580" y="659"/>
      <point x="593" y="673"/>
      <point x="624" y="673" type="curve" smooth="yes"/>
      <point x="640" y="673" type="line"/>
      <point x="650" y="714" type="line"/>
      <point x="450" y="714" type="line"/>
      <point x="441" y="673" type="line"/>
      <point x="460" y="673" type="line" smooth="yes"/>
      <point x="489" y="673"/>
      <point x="503" y="662"/>
      <point x="503" y="638" type="curve" smooth="yes"/>
      <point x="503" y="624"/>
      <point x="498" y="606"/>
      <point x="485" y="580" type="curve" smooth="yes"/>
      <point x="342" y="280" type="line" smooth="yes"/>
      <point x="304" y="201"/>
      <point x="283" y="141"/>
      <point x="265" y="91" type="curve"/>
      <point x="266" y="139"/>
      <point x="267" y="183"/>
      <point x="265" y="246" type="curve" smooth="yes"/>
      <point x="248" y="587" type="line" smooth="yes"/>
      <point x="248" y="592"/>
      <point x="247" y="601"/>
      <point x="247" y="607" type="curve" smooth="yes"/>
      <point x="247" y="658"/>
      <point x="271" y="673"/>
      <point x="307" y="673" type="curve" smooth="yes"/>
      <point x="325" y="673" type="line"/>
      <point x="334" y="714" type="line"/>
      <point x="104" y="714" type="line"/>
      <point x="95" y="673" type="line"/>
      <point x="105" y="673" type="line" smooth="yes"/>
      <point x="135" y="673"/>
      <point x="149" y="662"/>
    </contour>
  </outline>
</glyph>
<glyph name="W" format="2">
  <advance width="653"/>
  <unicode hex="0057"/>
  <anchor x="271" y="0" name="bottom"/>
  <anchor x="422" y="714" name="top"/>
  <anchor x="729" y="714" name="topright"/>
  <outline>
    <contour>
      <point x="70" y="0" type="line"/>
      <point x="164" y="0" type="line"/>
      <point x="342" y="459" type="line" smooth="yes"/>
      <point x="354" y="490"/>
      <point x="365" y="524"/>
      <point x="376" y="556" type="curve"/>
      <point x="378" y="556" type="line"/>
      <point x="375" y="520"/>
      <point x="372" y="483"/>
      <point x="371" y="453" type="curve" smooth="yes"/>
      <point x="354" y="0" type="line"/>
      <point x="449" y="0" type="line"/>
      <point x="732" y="714" type="line"/>
      <point x="650" y="714" type="line"/>
      <point x="478" y="273" type="line" smooth="yes"/>
      <point x="461" y="227"/>
      <point x="444" y="182"/>
      <point x="424" y="126" type="curve"/>
      <point x="422" y="126" type="line"/>
      <point x="425" y="170"/>
      <point x="429" y="216"/>
      <point x="431" y="280" type="curve" smooth="yes"/>
      <point x="446" y="714" type="line"/>
      <point x="373" y="714" type="line"/>
      <point x="198" y="266" type="line" smooth="yes"/>
      <point x="180" y="219"/>
      <point x="162" y="172"/>
      <point x="146" y="126" type="curve"/>
      <point x="144" y="126" type="line"/>
      <point x="147" y="161"/>
      <point x="150" y="207"/>
      <point x="152" y="266" type="curve" smooth="yes"/>
      <point x="165" y="714" type="line"/>
      <point x="87" y="714" type="line"/>
    </contour>
  </outline>
</glyph>
<glyph name="W.serif" format="2">
  <advance width="841"/>
  <unicode hex="0057"/>
  <anchor x="364" y="0" name="bottom"/>
  <anchor x="516" y="714" name="top"/>
  <anchor x="916" y="714" name="topright"/>
  <outline>
    <contour>
      <point x="155" y="620" type="curve" smooth="yes"/>
      <point x="171" y="0" type="line"/>
      <point x="251" y="0" type="line"/>
      <point x="485" y="555" type="line"/>
      <point x="502" y="0" type="line"/>
      <point x="581" y="0" type="line"/>
      <point x="838" y="595" type="line" smooth="yes"/>
      <point x="867" y="662"/>
      <point x="884" y="673"/>
      <point x="914" y="673" type="curve" smooth="yes"/>
      <point x="930" y="673" type="line"/>
      <point x="940" y="714" type="line"/>
      <point x="741" y="714" type="line"/>
      <point x="732" y="673" type="line"/>
      <point x="752" y="673" type="line" smooth="yes"/>
      <point x="781" y="673"/>
      <point x="793" y="665"/>
      <point x="793" y="641" type="curve" smooth="yes"/>
      <point x="793" y="627"/>
      <point x="787" y="606"/>
      <point x="776" y="580" type="curve" smooth="yes"/>
      <point x="656" y="303" type="line" smooth="yes"/>
      <point x="627" y="236"/>
      <point x="599" y="166"/>
      <point x="580" y="107" type="curve"/>
      <point x="582" y="150"/>
      <point x="583" y="210"/>
      <point x="581" y="272" type="curve" smooth="yes"/>
      <point x="565" y="707" type="line"/>
      <point x="503" y="707" type="line"/>
      <point x="320" y="288" type="line" smooth="yes"/>
      <point x="293" y="226"/>
      <point x="270" y="171"/>
      <point x="255" y="117" type="curve"/>
      <point x="258" y="167"/>
      <point x="258" y="226"/>
      <point x="257" y="290" type="curve" smooth="yes"/>
      <point x="251" y="575" type="line" smooth="yes"/>
      <point x="251" y="594"/>
      <point x="250" y="612"/>
      <point x="251" y="623" type="curve" smooth="yes"/>
      <point x="252" y="659"/>
      <point x="276" y="673"/>
      <point x="310" y="673" type="curve" smooth="yes"/>
      <point x="328" y="673" type="line"/>
      <point x="338" y="714" type="line"/>
      <point x="108" y="714" type="line"/>
      <point x="99" y="673" type="line"/>
      <point x="109" y="673" type="line" smooth="yes"/>
      <point x="140" y="673"/>
      <point x="155" y="662"/>
    </contour>
  </outline>
</glyph>
<glyph name="X" format="2">
  <advance width="371"/>
  <unicode hex="0058"/>
  <anchor x="129" y="0" name="bottom"/>
  <anchor x="281" y="714" name="top"/>
  <anchor x="446" y="714" name="topright"/>
  <outline>
    <contour>
      <point x="-59" y="0" type="line"/>
      <point x="26" y="0" type="line"/>
      <point x="184" y="287" type="line"/>
      <point x="212" y="0" type="line"/>
      <point x="297" y="0" type="line"/>
      <point x="248" y="365" type="line"/>
      <point x="442" y="714" type="line"/>
      <point x="357" y="714" type="line"/>
      <point x="220" y="451" type="line"/>
      <point x="190" y="714" type="line"/>
      <point x="107" y="714" type="line"/>
      <point x="156" y="376" type="line"/>
    </contour>
  </outline>
</glyph>
<glyph name="X.serif" format="2">
  <advance width="544"/>
  <unicode hex="0058"/>
  <anchor x="215" y="0" name="bottom"/>
  <anchor x="367" y="714" name="top"/>
  <anchor x="619" y="714" name="topright"/>
  <outline>
    <contour>
      <point x="-38" y="0" type="line"/>
      <point x="155" y="0" type="line"/>
      <point x="164" y="41" type="line"/>
      <point x="160" y="41" type="line" smooth="yes"/>
      <point x="128" y="41"/>
      <point x="116" y="48"/>
      <point x="116" y="65" type="curve" smooth="yes"/>
      <point x="116" y="85"/>
      <point x="131" y="111"/>
      <point x="151" y="138" type="curve" smooth="yes"/>
      <point x="305" y="344" type="line"/>
      <point x="267" y="344" type="line"/>
      <point x="316" y="176" type="line"/>
      <point x="329" y="119"/>
      <point x="334" y="98"/>
      <point x="334" y="83" type="curve" smooth="yes"/>
      <point x="334" y="55"/>
      <point x="315" y="41"/>
      <point x="283" y="41" type="curve" smooth="yes"/>
      <point x="273" y="41" type="line"/>
      <point x="264" y="0" type="line"/>
      <point x="491" y="0" type="line"/>
      <point x="501" y="41" type="line"/>
      <point x="490" y="41" type="line" smooth="yes"/>
      <point x="471" y="41"/>
      <point x="450" y="53"/>
      <point x="437" y="94" type="curve" smooth="yes"/>
      <point x="345" y="408" type="line"/>
      <point x="324" y="348" type="line"/>
      <point x="513" y="598" type="line" smooth="yes"/>
      <point x="555" y="653"/>
      <point x="576" y="673"/>
      <point x="607" y="673" type="curve" smooth="yes"/>
      <point x="614" y="673" type="line"/>
      <point x="623" y="714" type="line"/>
      <point x="445" y="714" type="line"/>
      <point x="436" y="673" type="line"/>
      <point x="438" y="673" type="line" smooth="yes"/>
      <point x="463" y="673"/>
      <point x="475" y="665"/>
      <point x="475" y="649" type="curve" smooth="yes"/>
      <point x="475" y="630"/>
      <point x="461" y="607"/>
      <point x="443" y="583" type="curve" smooth="yes"/>
      <point x="309" y="398" type="line"/>
      <point x="344" y="396" type="line"/>
      <point x="295" y="585" type="line" smooth="yes"/>
      <point x="287" y="612"/>
      <point x="283" y="631"/>
      <point x="283" y="644" type="curve" smooth="yes"/>
      <point x="283" y="663"/>
      <point x="295" y="673"/>
      <point x="322" y="673" type="curve" smooth="yes"/>
      <point x="340" y="673" type="line"/>
      <point x="349" y="714" type="line"/>
      <point x="124" y="714" type="line"/>
      <point x="115" y="673" type="line"/>
      <point x="126" y="673" type="line" smooth="yes"/>
      <point x="155" y="673"/>
      <point x="174" y="661"/>
      <point x="185" y="622" type="curve" smooth="yes"/>
      <point x="267" y="332" type="line"/>
      <point x="290" y="394" type="line"/>
      <point x="74" y="113" type="line" smooth="yes"/>
      <point x="31" y="56"/>
      <point x="9" y="41"/>
      <point x="-23" y="41" type="curve" smooth="yes"/>
      <point x="-28" y="41" type="line"/>
    </contour>
  </outline>
</glyph>
<glyph name="Y" format="2">
  <advance width="356"/>
  <unicode hex="0059"/>
  <anchor x="123" y="0" name="bottom"/>
  <anchor x="274" y="714" name="top"/>
  <anchor x="431" y="714" name="topright"/>
  <outline>
    <contour>
      <point x="73" y="0" type="line"/>
      <point x="153" y="0" type="line"/>
      <point x="212" y="277" type="line"/>
      <point x="442" y="714" type="line"/>
      <point x="357" y="714" type="line"/>
      <point x="193" y="383" type="line"/>
      <point x="168" y="714" type="line"/>
      <point x="85" y="714" type="line"/>
      <point x="131" y="275" type="line"/>
    </contour>
  </outline>
</glyph>
<glyph name="Y.serif" format="2">
  <advance width="514"/>
  <unicode hex="0059"/>
  <anchor x="201" y="0" name="bottom"/>
  <anchor x="353" y="714" name="top"/>
  <anchor x="589" y="714" name="topright"/>
  <outline>
    <contour>
      <point x="80" y="0" type="line"/>
      <point x="342" y="0" type="line"/>
      <point x="350" y="41" type="line"/>
      <point x="332" y="41" type="line" smooth="yes"/>
      <point x="299" y="41"/>
      <point x="276" y="47"/>
      <point x="276" y="79" type="curve" smooth="yes"/>
      <point x="276" y="86"/>
      <point x="278" y="99"/>
      <point x="281" y="112" type="curve" smooth="yes"/>
      <point x="318" y="294" type="line"/>
      <point x="515" y="589" type="line" smooth="yes"/>
      <point x="552" y="645"/>
      <point x="569" y="673"/>
      <point x="595" y="673" type="curve" smooth="yes"/>
      <point x="610" y="673" type="line"/>
      <point x="619" y="714" type="line"/>
      <point x="419" y="714" type="line"/>
      <point x="409" y="673" type="line"/>
      <point x="435" y="673" type="line" smooth="yes"/>
      <point x="466" y="673"/>
      <point x="478" y="666"/>
      <point x="478" y="649" type="curve" smooth="yes"/>
      <point x="478" y="628"/>
      <point x="468" y="604"/>
      <point x="443" y="567" type="curve" smooth="yes"/>
      <point x="361" y="440" type="line" smooth="yes"/>
      <point x="332" y="395"/>
      <point x="315" y="366"/>
      <point x="300" y="339" type="curve"/>
      <point x="299" y="371"/>
      <point x="290" y="412"/>
      <point x="283" y="446" type="curve" smooth="yes"/>
      <point x="275" y="486" type="line" smooth="yes"/>
      <point x="264" y="536"/>
      <point x="245" y="604"/>
      <point x="245" y="641" type="curve" smooth="yes"/>
      <point x="245" y="662"/>
      <point x="256" y="673"/>
      <point x="280" y="673" type="curve" smooth="yes"/>
      <point x="319" y="673" type="line"/>
      <point x="328" y="714" type="line"/>
      <point x="101" y="714" type="line"/>
      <point x="92" y="673" type="line"/>
      <point x="102" y="673" type="line" smooth="yes"/>
      <point x="133" y="673"/>
      <point x="138" y="658"/>
      <point x="147" y="620" type="curve" smooth="yes"/>
      <point x="225" y="297" type="line"/>
      <point x="188" y="109" type="line"/>
      <point x="175" y="48"/>
      <point x="144" y="41"/>
      <point x="109" y="41" type="curve" smooth="yes"/>
      <point x="89" y="41" type="line"/>
    </contour>
  </outline>
</glyph>
<glyph name="Z" format="2">
  <advance width="335"/>
  <unicode hex="005A"/>
  <anchor x="112" y="0" name="bottom"/>
  <anchor x="263" y="714" name="top"/>
  <anchor x="410" y="714" name="topright"/>
  <outline>
    <contour>
      <point x="-41" y="0" type="line"/>
      <point x="251.994" y="0" type="line"/>
      <point x="267" y="72" type="line"/>
      <point x="62" y="72" type="line"/>
      <point x="384" y="651" type="line"/>
      <point x="397" y="714" type="line"/>
      <point x="115" y="714" type="line"/>
      <point x="100" y="642" type="line"/>
      <point x="292" y="642" type="line"/>
      <point x="-28" y="62" type="line"/>
    </contour>
  </outline>
</glyph>
<glyph name="Z.serif" format="2">
  <advance width="497"/>
  <unicode hex="005A"/>
  <anchor x="192" y="0" name="bottom"/>
  <anchor x="344" y="714" name="top"/>
  <anchor x="572" y="714" name="topright"/>
  <outline>
    <contour>
      <point x="-9" y="0" type="line"/>
      <point x="423" y="0" type="line"/>
      <point x="465" y="171" type="line"/>
      <point x="420" y="171" type="line"/>
      <point x="407" y="127" type="line" smooth="yes"/>
      <point x="394" y="81"/>
      <point x="370" y="49"/>
      <point x="319" y="49" type="curve" smooth="yes"/>
      <point x="115" y="49" type="line"/>
      <point x="544" y="674" type="line"/>
      <point x="552" y="714" type="line"/>
      <point x="144" y="714" type="line"/>
      <point x="101" y="543" type="line"/>
      <point x="147" y="543" type="line"/>
      <point x="160" y="584" type="line" smooth="yes"/>
      <point x="174" y="626"/>
      <point x="199" y="665"/>
      <point x="247" y="665" type="curve" smooth="yes"/>
      <point x="427" y="665" type="line"/>
      <point x="0" y="39" type="line"/>
    </contour>
  </outline>
</glyph>
<glyph name="bracketleft" format="2">
  <advance width="282"/>
  <unicode hex="005B"/>
  <outline>
    <contour>
      <point x="-27" y="-161" type="line"/>
      <point x="162" y="-161" type="line"/>
      <point x="176" y="-97" type="line"/>
      <point x="58" y="-97" type="line"/>
      <point x="219" y="656" type="line"/>
      <point x="336" y="656" type="line"/>
      <point x="350" y="720" type="line"/>
      <point x="161" y="720" type="line"/>
    </contour>
  </outline>
</glyph>
<glyph name="backslash" format="2">
  <advance width="340"/>
  <unicode hex="005C"/>
  <outline>
    <contour>
      <point x="190" y="-3" type="line"/>
      <point x="262" y="-3" type="line"/>
      <point x="172" y="717" type="line"/>
      <point x="101" y="717" type="line"/>
    </contour>
  </outline>
</glyph>
<glyph name="bracketright" format="2">
  <advance width="282"/>
  <unicode hex="005D"/>
  <outline>
    <contour>
      <point x="-66" y="-161" type="line"/>
      <point x="122" y="-161" type="line"/>
      <point x="310" y="720" type="line"/>
      <point x="121" y="720" type="line"/>
      <point x="107" y="656" type="line"/>
      <point x="224" y="656" type="line"/>
      <point x="64" y="-97" type="line"/>
      <point x="-53" y="-97" type="line"/>
    </contour>
  </outline>
</glyph>
<glyph name="asciicircum" format="2">
  <advance width="398"/>
  <unicode hex="005E"/>
  <outline>
    <contour>
      <point x="11" y="331" type="line"/>
      <point x="88" y="331" type="line"/>
      <point x="250" y="608" type="line"/>
      <point x="324" y="331" type="line"/>
      <point x="396" y="331" type="line"/>
      <point x="294" y="714" type="line"/>
      <point x="242" y="714" type="line"/>
    </contour>
  </outline>
</glyph>
<glyph name="grave" format="2">
  <advance width="249"/>
  <unicode hex="0060"/>
  <anchor x="227" y="529" name="_top"/>
  <outline>
    <contour>
      <point x="232" y="606" type="curve"/>
      <point x="281" y="606" type="line"/>
      <point x="282" y="616" type="line"/>
      <point x="261" y="669"/>
      <point x="247" y="718"/>
      <point x="236" y="765" type="curve"/>
      <point x="146" y="765" type="line"/>
      <point x="146" y="757" type="line"/>
      <point x="160" y="715"/>
      <point x="205" y="641"/>
    </contour>
  </outline>
</glyph>
<glyph name="grave.serif" format="2">
  <advance width="251"/>
  <unicode hex="0060"/>
  <outline>
    <contour>
      <point x="248" y="606" type="curve"/>
      <point x="283" y="606" type="line"/>
      <point x="286" y="619" type="line"/>
      <point x="270" y="661"/>
      <point x="247" y="726"/>
      <point x="236" y="766" type="curve"/>
      <point x="147" y="766" type="line"/>
      <point x="144" y="756" type="line"/>
      <point x="166" y="710"/>
      <point x="212" y="648"/>
    </contour>
  </outline>
</glyph>
<glyph name="a" format="2">
  <advance width="423"/>
  <unicode hex="0061"/>
  <anchor x="155" y="0" name="bottom"/>
  <anchor x="268" y="536" name="top"/>
  <anchor x="459" y="536" name="topright"/>
  <outline>
    <contour>
      <point x="130" y="-10" type="curve" smooth="yes"/>
      <point x="177" y="-10"/>
      <point x="214" y="22"/>
      <point x="249" y="76" type="curve"/>
      <point x="251" y="76" type="line"/>
      <point x="245" y="0" type="line"/>
      <point x="307" y="0" type="line"/>
      <point x="421" y="536" type="line"/>
      <point x="355" y="536" type="line"/>
      <point x="333" y="468" type="line"/>
      <point x="330" y="468" type="line"/>
      <point x="317" y="520"/>
      <point x="286" y="546"/>
      <point x="241" y="546" type="curve" smooth="yes"/>
      <point x="92" y="546"/>
      <point x="25" y="288"/>
      <point x="25" y="139" type="curve" smooth="yes"/>
      <point x="25" y="43"/>
      <point x="62" y="-10"/>
    </contour>
    <contour>
      <point x="155" y="58" type="curve" smooth="yes"/>
      <point x="121" y="58"/>
      <point x="105" y="86"/>
      <point x="105" y="145" type="curve" smooth="yes"/>
      <point x="105" y="267"/>
      <point x="159" y="477"/>
      <point x="250" y="477" type="curve" smooth="yes"/>
      <point x="285" y="477"/>
      <point x="306" y="448"/>
      <point x="306" y="398" type="curve" smooth="yes"/>
      <point x="306" y="353"/>
      <point x="298" y="304"/>
      <point x="282" y="240" type="curve" smooth="yes"/>
      <point x="260" y="151"/>
      <point x="222" y="58"/>
    </contour>
  </outline>
</glyph>
<glyph name="b" format="2">
  <advance width="417"/>
  <unicode hex="0062"/>
  <anchor x="153" y="0" name="bottom"/>
  <anchor x="314" y="760" name="top"/>
  <anchor x="502" y="760" name="topright"/>
  <outline>
    <contour>
      <point x="178.996" y="-10" type="curve" smooth="yes"/>
      <point x="328" y="-10"/>
      <point x="396" y="250"/>
      <point x="396" y="398" type="curve" smooth="yes"/>
      <point x="396" y="495"/>
      <point x="358" y="546"/>
      <point x="293" y="546" type="curve" smooth="yes"/>
      <point x="246" y="546"/>
      <point x="205" y="517"/>
      <point x="173" y="464" type="curve"/>
      <point x="171" y="464" type="line"/>
      <point x="177" y="484"/>
      <point x="182" y="504"/>
      <point x="186" y="521" type="curve" smooth="yes"/>
      <point x="237" y="760" type="line"/>
      <point x="160" y="760" type="line"/>
      <point x="-1" y="0" type="line"/>
      <point x="61" y="0" type="line"/>
      <point x="85" y="66" type="line"/>
      <point x="88" y="66" type="line"/>
      <point x="99" y="20"/>
      <point x="131" y="-10"/>
    </contour>
    <contour>
      <point x="172" y="57" type="curve" smooth="yes"/>
      <point x="134" y="57"/>
      <point x="115" y="85"/>
      <point x="115" y="141" type="curve" smooth="yes"/>
      <point x="115" y="254"/>
      <point x="167" y="478"/>
      <point x="265" y="478" type="curve" smooth="yes"/>
      <point x="300" y="478"/>
      <point x="316" y="451"/>
      <point x="316" y="392" type="curve" smooth="yes"/>
      <point x="316" y="273"/>
      <point x="261" y="57"/>
    </contour>
  </outline>
</glyph>
<glyph name="b.serif" format="2">
  <advance width="464"/>
  <unicode hex="0062"/>
  <anchor x="177" y="0" name="bottom"/>
  <anchor x="339" y="760" name="top"/>
  <anchor x="550" y="760" name="topright"/>
  <outline>
    <contour>
      <point x="188" y="-10" type="curve" smooth="yes"/>
      <point x="345" y="-10"/>
      <point x="448" y="216"/>
      <point x="448" y="383" type="curve" smooth="yes"/>
      <point x="448" y="489"/>
      <point x="409" y="546"/>
      <point x="349" y="546" type="curve" smooth="yes"/>
      <point x="284" y="546"/>
      <point x="238" y="496"/>
      <point x="198" y="416" type="curve"/>
      <point x="194" y="416" type="line"/>
      <point x="202" y="444"/>
      <point x="221" y="502"/>
      <point x="228" y="535" type="curve" smooth="yes"/>
      <point x="275" y="760" type="line"/>
      <point x="114" y="760" type="line"/>
      <point x="104" y="719" type="line"/>
      <point x="115" y="719" type="line" smooth="yes"/>
      <point x="142" y="719"/>
      <point x="165" y="712"/>
      <point x="165" y="678" type="curve" smooth="yes"/>
      <point x="165" y="666"/>
      <point x="161" y="649"/>
      <point x="154" y="613" type="curve" smooth="yes"/>
      <point x="23" y="-3" type="line"/>
      <point x="54" y="-3" type="line"/>
      <point x="93" y="26" type="line"/>
      <point x="111" y="7"/>
      <point x="146" y="-10"/>
    </contour>
    <contour>
      <point x="185" y="36" type="curve" smooth="yes"/>
      <point x="160" y="36"/>
      <point x="139" y="51"/>
      <point x="127" y="71" type="curve"/>
      <point x="169" y="269" type="line" smooth="yes"/>
      <point x="181" y="324"/>
      <point x="244" y="486"/>
      <point x="311" y="486" type="curve" smooth="yes"/>
      <point x="335" y="486"/>
      <point x="356" y="457"/>
      <point x="356" y="384" type="curve" smooth="yes"/>
      <point x="356" y="263"/>
      <point x="294" y="36"/>
    </contour>
  </outline>
</glyph>
<glyph name="c" format="2">
  <advance width="317"/>
  <unicode hex="0063"/>
  <anchor x="102" y="0" name="bottom"/>
  <anchor x="216" y="536" name="top"/>
  <anchor x="354" y="536" name="topright"/>
  <outline>
    <contour>
      <point x="153" y="-10" type="curve" smooth="yes"/>
      <point x="190" y="-10"/>
      <point x="226" y="2"/>
      <point x="252" y="18" type="curve"/>
      <point x="252" y="86" type="line"/>
      <point x="222" y="68"/>
      <point x="195" y="58"/>
      <point x="171" y="58" type="curve" smooth="yes"/>
      <point x="127" y="58"/>
      <point x="104" y="90"/>
      <point x="104" y="160" type="curve" smooth="yes"/>
      <point x="104" y="285"/>
      <point x="154" y="478"/>
      <point x="257" y="478" type="curve" smooth="yes"/>
      <point x="277" y="478"/>
      <point x="299" y="471"/>
      <point x="316" y="459" type="curve"/>
      <point x="347" y="523" type="line"/>
      <point x="322" y="539"/>
      <point x="293" y="546"/>
      <point x="258" y="546" type="curve" smooth="yes"/>
      <point x="93" y="546"/>
      <point x="25" y="310"/>
      <point x="25" y="152" type="curve" smooth="yes"/>
      <point x="25" y="46"/>
      <point x="70" y="-10"/>
    </contour>
  </outline>
</glyph>
<glyph name="c.serif" format="2">
  <advance width="398"/>
  <unicode hex="0063"/>
  <anchor x="173" y="0" name="bottom"/>
  <anchor x="289" y="536" name="top"/>
  <anchor x="435" y="536" name="topright"/>
  <outline>
    <contour>
      <point x="196" y="-10" type="curve" smooth="yes"/>
      <point x="297" y="-10"/>
      <point x="343" y="60"/>
      <point x="343" y="101" type="curve" smooth="yes"/>
      <point x="343" y="110"/>
      <point x="340" y="119"/>
      <point x="335" y="122" type="curve"/>
      <point x="311" y="88"/>
      <point x="275" y="52"/>
      <point x="220" y="52" type="curve" smooth="yes"/>
      <point x="164" y="52"/>
      <point x="134" y="100"/>
      <point x="134" y="185" type="curve" smooth="yes"/>
      <point x="134" y="313"/>
      <point x="198" y="500"/>
      <point x="281" y="500" type="curve" smooth="yes"/>
      <point x="323" y="500"/>
      <point x="340" y="447"/>
      <point x="336" y="383" type="curve"/>
      <point x="390" y="383"/>
      <point x="418" y="415"/>
      <point x="418" y="455" type="curve" smooth="yes"/>
      <point x="418" y="501"/>
      <point x="382" y="546"/>
      <point x="302" y="546" type="curve" smooth="yes"/>
      <point x="137" y="546"/>
      <point x="42" y="334"/>
      <point x="42" y="183" type="curve" smooth="yes"/>
      <point x="42" y="54"/>
      <point x="109" y="-10"/>
    </contour>
  </outline>
</glyph>
<glyph name="d" format="2">
  <advance width="422"/>
  <unicode hex="0064"/>
  <anchor x="155" y="0" name="bottom"/>
  <anchor x="229" y="265" name="center"/>
  <anchor x="317" y="760" name="top"/>
  <anchor x="507" y="760" name="topright"/>
  <outline>
    <contour>
      <point x="127" y="-10" type="curve" smooth="yes"/>
      <point x="176" y="-10"/>
      <point x="211" y="20"/>
      <point x="248" y="74" type="curve"/>
      <point x="250" y="74" type="line"/>
      <point x="244" y="0" type="line"/>
      <point x="306" y="0" type="line"/>
      <point x="467" y="760" type="line"/>
      <point x="390" y="760" type="line"/>
      <point x="350" y="570" type="line" smooth="yes"/>
      <point x="344" y="541"/>
      <point x="338" y="507"/>
      <point x="332" y="473" type="curve"/>
      <point x="329" y="473" type="line"/>
      <point x="318" y="519"/>
      <point x="283" y="546"/>
      <point x="237" y="546" type="curve" smooth="yes"/>
      <point x="92" y="546"/>
      <point x="24" y="286"/>
      <point x="24" y="139" type="curve" smooth="yes"/>
      <point x="24" y="43"/>
      <point x="61" y="-10"/>
    </contour>
    <contour>
      <point x="154" y="57" type="curve" smooth="yes"/>
      <point x="120" y="57"/>
      <point x="104" y="85"/>
      <point x="104" y="143" type="curve" smooth="yes"/>
      <point x="104" y="257"/>
      <point x="155" y="477"/>
      <point x="249" y="477" type="curve" smooth="yes"/>
      <point x="287" y="477"/>
      <point x="305" y="450"/>
      <point x="305" y="400" type="curve" smooth="yes"/>
      <point x="305" y="307"/>
      <point x="261" y="57"/>
    </contour>
  </outline>
</glyph>
<glyph name="d.serif" format="2">
  <advance width="481"/>
  <unicode hex="0064"/>
  <anchor x="184" y="0" name="bottom"/>
  <anchor x="298" y="268" name="center"/>
  <anchor x="346" y="760" name="top"/>
  <anchor x="558" y="760" name="topright"/>
  <outline>
    <contour>
      <point x="139" y="-10" type="curve" smooth="yes"/>
      <point x="205" y="-10"/>
      <point x="253" y="43"/>
      <point x="294" y="134" type="curve"/>
      <point x="298" y="134" type="line"/>
      <point x="293" y="108"/>
      <point x="291" y="86"/>
      <point x="291" y="77" type="curve" smooth="yes"/>
      <point x="291" y="20"/>
      <point x="315" y="-10"/>
      <point x="354" y="-10" type="curve" smooth="yes"/>
      <point x="404" y="-10"/>
      <point x="447" y="24"/>
      <point x="472" y="50" type="curve"/>
      <point x="458" y="78" type="line"/>
      <point x="440" y="62"/>
      <point x="420" y="51"/>
      <point x="403" y="51" type="curve" smooth="yes"/>
      <point x="386" y="51"/>
      <point x="378" y="67"/>
      <point x="378" y="96" type="curve" smooth="yes"/>
      <point x="378" y="125"/>
      <point x="388" y="179"/>
      <point x="395" y="215" type="curve" smooth="yes"/>
      <point x="511" y="760" type="line"/>
      <point x="352" y="760" type="line"/>
      <point x="343" y="719" type="line"/>
      <point x="352" y="719" type="line" smooth="yes"/>
      <point x="379" y="719"/>
      <point x="403" y="711"/>
      <point x="403" y="678" type="curve" smooth="yes"/>
      <point x="403" y="666"/>
      <point x="399" y="648"/>
      <point x="394" y="627" type="curve" smooth="yes"/>
      <point x="385" y="577" type="line" smooth="yes"/>
      <point x="382" y="565"/>
      <point x="376" y="538"/>
      <point x="374" y="521" type="curve"/>
      <point x="354" y="536"/>
      <point x="326" y="546"/>
      <point x="297" y="546" type="curve" smooth="yes"/>
      <point x="138" y="546"/>
      <point x="39" y="316"/>
      <point x="39" y="153" type="curve" smooth="yes"/>
      <point x="39" y="58"/>
      <point x="69" y="-10"/>
    </contour>
    <contour>
      <point x="175" y="50" type="curve" smooth="yes"/>
      <point x="150" y="50"/>
      <point x="131" y="81"/>
      <point x="131" y="153" type="curve" smooth="yes"/>
      <point x="131" y="275"/>
      <point x="195" y="502"/>
      <point x="301" y="502" type="curve" smooth="yes"/>
      <point x="324" y="502"/>
      <point x="348" y="490"/>
      <point x="359" y="465" type="curve"/>
      <point x="322" y="288" type="line" smooth="yes"/>
      <point x="298" y="173"/>
      <point x="228" y="50"/>
    </contour>
  </outline>
</glyph>
<glyph name="e" format="2">
  <advance width="382"/>
  <unicode hex="0065"/>
  <anchor x="135" y="0" name="bottom"/>
  <anchor x="247" y="529" name="top"/>
  <anchor x="417" y="529" name="topright"/>
  <outline>
    <contour>
      <point x="164" y="-10" type="curve" smooth="yes"/>
      <point x="210" y="-10"/>
      <point x="250" y="-1"/>
      <point x="285" y="21" type="curve"/>
      <point x="285" y="86" type="line"/>
      <point x="246" y="64"/>
      <point x="219" y="55"/>
      <point x="183" y="55" type="curve" smooth="yes"/>
      <point x="128" y="55"/>
      <point x="101" y="88"/>
      <point x="101" y="163" type="curve" smooth="yes"/>
      <point x="101" y="189"/>
      <point x="104" y="216"/>
      <point x="109" y="241" type="curve"/>
      <point x="116" y="241" type="line" smooth="yes"/>
      <point x="272" y="241"/>
      <point x="365" y="316"/>
      <point x="365" y="435" type="curve" smooth="yes"/>
      <point x="365" y="508"/>
      <point x="323" y="546"/>
      <point x="257" y="546" type="curve" smooth="yes"/>
      <point x="124" y="546"/>
      <point x="24" y="370"/>
      <point x="24" y="154" type="curve" smooth="yes"/>
      <point x="24" y="49"/>
      <point x="76" y="-10"/>
    </contour>
    <contour>
      <point x="123" y="301" type="curve"/>
      <point x="120" y="301" type="line"/>
      <point x="145" y="406"/>
      <point x="194" y="481"/>
      <point x="246" y="481" type="curve" smooth="yes"/>
      <point x="278" y="481"/>
      <point x="292" y="462"/>
      <point x="292" y="431" type="curve" smooth="yes"/>
      <point x="292" y="353"/>
      <point x="242" y="301"/>
    </contour>
  </outline>
</glyph>
<glyph name="e.serif" format="2">
  <advance width="403"/>
  <unicode hex="0065"/>
  <anchor x="165" y="0" name="bottom"/>
  <anchor x="294" y="536" name="top"/>
  <anchor x="443" y="536" name="topright"/>
  <outline>
    <contour>
      <point x="196" y="-10" type="curve" smooth="yes"/>
      <point x="297" y="-10"/>
      <point x="344" y="59"/>
      <point x="344" y="103" type="curve" smooth="yes"/>
      <point x="344" y="112"/>
      <point x="341" y="120"/>
      <point x="336" y="122" type="curve"/>
      <point x="313" y="87"/>
      <point x="269" y="52"/>
      <point x="217" y="52" type="curve" smooth="yes"/>
      <point x="163" y="52"/>
      <point x="133" y="98"/>
      <point x="133" y="177" type="curve" smooth="yes"/>
      <point x="133" y="194"/>
      <point x="135" y="218"/>
      <point x="138" y="233" type="curve"/>
      <point x="168" y="233" type="line" smooth="yes"/>
      <point x="305" y="233"/>
      <point x="410" y="331"/>
      <point x="410" y="439" type="curve" smooth="yes"/>
      <point x="410" y="506"/>
      <point x="371" y="546"/>
      <point x="304" y="546" type="curve" smooth="yes"/>
      <point x="138" y="546"/>
      <point x="42" y="333"/>
      <point x="42" y="183" type="curve" smooth="yes"/>
      <point x="42" y="54"/>
      <point x="111" y="-10"/>
    </contour>
    <contour>
      <point x="155" y="275" type="curve" smooth="yes"/>
      <point x="145" y="275" type="line"/>
      <point x="164" y="380"/>
      <point x="218" y="502"/>
      <point x="280" y="502" type="curve" smooth="yes"/>
      <point x="305" y="502"/>
      <point x="321" y="480"/>
      <point x="321" y="439" type="curve" smooth="yes"/>
      <point x="321" y="341"/>
      <point x="249" y="275"/>
    </contour>
  </outline>
</glyph>
<glyph name="f" format="2">
  <advance width="230"/>
  <unicode hex="0066"/>
  <anchor x="-72" y="-240" name="bottom"/>
  <anchor x="271" y="765" name="top"/>
  <anchor x="346" y="765" name="topright"/>
  <outline>
    <contour>
      <point x="-72" y="-240" type="curve" smooth="yes"/>
      <point x="22" y="-240"/>
      <point x="48" y="-160"/>
      <point x="69" y="-61" type="curve" smooth="yes"/>
      <point x="184" y="470" type="line"/>
      <point x="257" y="470" type="line"/>
      <point x="271" y="536" type="line"/>
      <point x="198" y="536" type="line"/>
      <point x="209" y="591" type="line" smooth="yes"/>
      <point x="224" y="660"/>
      <point x="239" y="697"/>
      <point x="277" y="697" type="curve" smooth="yes"/>
      <point x="290" y="697"/>
      <point x="304" y="694"/>
      <point x="317" y="687" type="curve"/>
      <point x="346" y="749" type="line"/>
      <point x="325" y="760"/>
      <point x="299" y="765"/>
      <point x="273" y="765" type="curve" smooth="yes"/>
      <point x="184" y="765"/>
      <point x="156" y="702"/>
      <point x="133" y="593" type="curve" smooth="yes"/>
      <point x="120" y="537" type="line"/>
      <point x="57" y="513" type="line"/>
      <point x="49" y="470" type="line"/>
      <point x="106" y="470" type="line"/>
      <point x="-6" y="-55" type="line" smooth="yes"/>
      <point x="-22" y="-129"/>
      <point x="-32" y="-171"/>
      <point x="-80" y="-171" type="curve" smooth="yes"/>
      <point x="-95" y="-171"/>
      <point x="-111" y="-168"/>
      <point x="-123" y="-164" type="curve"/>
      <point x="-123" y="-233" type="line"/>
      <point x="-107" y="-238"/>
      <point x="-91" y="-240"/>
    </contour>
  </outline>
</glyph>
<glyph name="f.serif" format="2">
  <advance width="273"/>
  <unicode hex="0066"/>
  <anchor x="-75" y="-240" name="bottom"/>
  <anchor x="326" y="770" name="top"/>
  <anchor x="454" y="770" name="topright"/>
  <outline>
    <contour>
      <point x="-75" y="-240" type="curve" smooth="yes"/>
      <point x="11" y="-240"/>
      <point x="84" y="-184"/>
      <point x="120" y="-13" type="curve" smooth="yes"/>
      <point x="225" y="480" type="line"/>
      <point x="317" y="480" type="line"/>
      <point x="329" y="536" type="line"/>
      <point x="237" y="536" type="line"/>
      <point x="250" y="600" type="line" smooth="yes"/>
      <point x="267" y="687"/>
      <point x="284" y="724"/>
      <point x="322" y="724" type="curve" smooth="yes"/>
      <point x="355" y="724"/>
      <point x="362" y="683"/>
      <point x="359" y="633" type="curve"/>
      <point x="407" y="633"/>
      <point x="436" y="653"/>
      <point x="436" y="695" type="curve" smooth="yes"/>
      <point x="436" y="741"/>
      <point x="399" y="770"/>
      <point x="329" y="770" type="curve" smooth="yes"/>
      <point x="235" y="770"/>
      <point x="183" y="705"/>
      <point x="161" y="595" type="curve" smooth="yes"/>
      <point x="148" y="536" type="line"/>
      <point x="72" y="515" type="line"/>
      <point x="64" y="480" type="line"/>
      <point x="137" y="480" type="line"/>
      <point x="30" y="-23" type="line" smooth="yes"/>
      <point x="5" y="-142"/>
      <point x="-23" y="-195"/>
      <point x="-75" y="-195" type="curve" smooth="yes"/>
      <point x="-87" y="-195"/>
      <point x="-103" y="-191"/>
      <point x="-111" y="-188" type="curve"/>
      <point x="-122" y="-232" type="line"/>
      <point x="-111" y="-236"/>
      <point x="-91" y="-240"/>
    </contour>
  </outline>
</glyph>
<glyph name="g" format="2">
  <advance width="423"/>
  <unicode hex="0067"/>
  <anchor x="104" y="-240" name="bottom"/>
  <anchor x="266" y="536" name="top"/>
  <anchor x="458" y="534" name="topright"/>
  <outline>
    <contour>
      <point x="91" y="-240" type="curve" smooth="yes"/>
      <point x="204" y="-240"/>
      <point x="269" y="-179"/>
      <point x="300" y="-34" type="curve" smooth="yes"/>
      <point x="420" y="536" type="line"/>
      <point x="354" y="536" type="line"/>
      <point x="334" y="468" type="line"/>
      <point x="331" y="468" type="line"/>
      <point x="318" y="519"/>
      <point x="291" y="546"/>
      <point x="242" y="546" type="curve" smooth="yes"/>
      <point x="93" y="546"/>
      <point x="24" y="286"/>
      <point x="24" y="136" type="curve" smooth="yes"/>
      <point x="24" y="41"/>
      <point x="61" y="-10"/>
      <point x="126" y="-10" type="curve" smooth="yes"/>
      <point x="173" y="-10"/>
      <point x="211" y="16"/>
      <point x="246" y="70" type="curve"/>
      <point x="248" y="70" type="line"/>
      <point x="240" y="42"/>
      <point x="233" y="14"/>
      <point x="230" y="-1" type="curve" smooth="yes"/>
      <point x="222" y="-37" type="line" smooth="yes"/>
      <point x="201" y="-127"/>
      <point x="162" y="-173"/>
      <point x="93" y="-173" type="curve" smooth="yes"/>
      <point x="50" y="-173"/>
      <point x="3" y="-153"/>
      <point x="-22" y="-134" type="curve"/>
      <point x="-22" y="-209" type="line"/>
      <point x="4" y="-225"/>
      <point x="47" y="-240"/>
    </contour>
    <contour>
      <point x="155" y="58" type="curve" smooth="yes"/>
      <point x="119" y="58"/>
      <point x="104" y="86"/>
      <point x="104" y="144" type="curve" smooth="yes"/>
      <point x="104" y="257"/>
      <point x="155" y="477"/>
      <point x="249" y="477" type="curve" smooth="yes"/>
      <point x="284" y="477"/>
      <point x="305" y="451"/>
      <point x="305" y="404" type="curve" smooth="yes"/>
      <point x="305" y="296"/>
      <point x="252" y="58"/>
    </contour>
  </outline>
</glyph>
<glyph name="g.serif" format="2">
  <advance width="450"/>
  <unicode hex="0067"/>
  <anchor x="118" y="-240" name="bottom"/>
  <anchor x="283" y="536" name="top"/>
  <anchor x="487" y="536" name="topright"/>
  <outline>
    <contour>
      <point x="136" y="-240" type="curve" smooth="yes"/>
      <point x="296" y="-240"/>
      <point x="367" y="-144"/>
      <point x="367" y="-41" type="curve" smooth="yes"/>
      <point x="367" y="36"/>
      <point x="325" y="75"/>
      <point x="249" y="86" type="curve" smooth="yes"/>
      <point x="169" y="95" type="line" smooth="yes"/>
      <point x="147" y="98"/>
      <point x="129" y="106"/>
      <point x="129" y="126" type="curve" smooth="yes"/>
      <point x="129" y="156"/>
      <point x="163" y="179"/>
      <point x="189" y="190" type="curve"/>
      <point x="197" y="189"/>
      <point x="205" y="188"/>
      <point x="215" y="188" type="curve" smooth="yes"/>
      <point x="352" y="188"/>
      <point x="410" y="327"/>
      <point x="410" y="422" type="curve" smooth="yes"/>
      <point x="410" y="449"/>
      <point x="406" y="472"/>
      <point x="395" y="491" type="curve"/>
      <point x="407" y="501"/>
      <point x="420" y="514"/>
      <point x="435" y="514" type="curve" smooth="yes"/>
      <point x="451" y="514"/>
      <point x="458" y="499"/>
      <point x="457" y="479" type="curve"/>
      <point x="496" y="479"/>
      <point x="507" y="515"/>
      <point x="507" y="543" type="curve" smooth="yes"/>
      <point x="507" y="567"/>
      <point x="494" y="585"/>
      <point x="468" y="585" type="curve" smooth="yes"/>
      <point x="431" y="585"/>
      <point x="400" y="553"/>
      <point x="376" y="514" type="curve"/>
      <point x="356" y="536"/>
      <point x="326" y="546"/>
      <point x="293" y="546" type="curve" smooth="yes"/>
      <point x="160" y="546"/>
      <point x="94" y="410"/>
      <point x="94" y="314" type="curve" smooth="yes"/>
      <point x="94" y="262"/>
      <point x="113" y="223"/>
      <point x="146" y="204" type="curve"/>
      <point x="86" y="168"/>
      <point x="63" y="140"/>
      <point x="63" y="99" type="curve" smooth="yes"/>
      <point x="63" y="69"/>
      <point x="79" y="48"/>
      <point x="98" y="37" type="curve"/>
      <point x="30" y="20"/>
      <point x="-38" y="-28"/>
      <point x="-38" y="-116" type="curve" smooth="yes"/>
      <point x="-38" y="-190"/>
      <point x="18" y="-240"/>
    </contour>
    <contour>
      <point x="142" y="-192" type="curve" smooth="yes"/>
      <point x="64" y="-192"/>
      <point x="36" y="-157"/>
      <point x="36" y="-104" type="curve" smooth="yes"/>
      <point x="36" y="-43"/>
      <point x="75" y="5"/>
      <point x="144" y="14" type="curve"/>
      <point x="216" y="6" type="line" smooth="yes"/>
      <point x="268" y="1"/>
      <point x="288" y="-25"/>
      <point x="288" y="-65" type="curve" smooth="yes"/>
      <point x="288" y="-132"/>
      <point x="248" y="-192"/>
    </contour>
    <contour>
      <point x="223" y="236" type="curve" smooth="yes"/>
      <point x="192" y="236"/>
      <point x="173" y="257"/>
      <point x="173" y="310" type="curve" smooth="yes"/>
      <point x="173" y="381"/>
      <point x="207" y="502"/>
      <point x="280" y="502" type="curve" smooth="yes"/>
      <point x="312" y="502"/>
      <point x="329" y="479"/>
      <point x="329" y="428" type="curve" smooth="yes"/>
      <point x="329" y="356"/>
      <point x="296" y="236"/>
    </contour>
  </outline>
</glyph>
<glyph name="h" format="2">
  <advance width="411"/>
  <unicode hex="0068"/>
  <anchor x="150" y="0" name="bottom"/>
  <anchor x="223" y="265" name="center"/>
  <anchor x="311" y="760" name="top"/>
  <anchor x="446" y="760" name="topright"/>
  <outline>
    <contour>
      <point x="0" y="0" type="line"/>
      <point x="77" y="0" type="line"/>
      <point x="140" y="296" type="line" smooth="yes"/>
      <point x="166" y="421"/>
      <point x="204" y="475"/>
      <point x="259" y="475" type="curve" smooth="yes"/>
      <point x="288" y="475"/>
      <point x="303" y="458"/>
      <point x="303" y="428" type="curve" smooth="yes"/>
      <point x="303" y="398"/>
      <point x="296" y="362"/>
      <point x="288" y="327" type="curve" smooth="yes"/>
      <point x="219" y="0" type="line"/>
      <point x="296" y="0" type="line"/>
      <point x="368" y="338" type="line" smooth="yes"/>
      <point x="375" y="373"/>
      <point x="383" y="416"/>
      <point x="383" y="444" type="curve" smooth="yes"/>
      <point x="383" y="511"/>
      <point x="347" y="546"/>
      <point x="290" y="546" type="curve" smooth="yes"/>
      <point x="240" y="546"/>
      <point x="201" y="519"/>
      <point x="173" y="468" type="curve"/>
      <point x="171" y="468" type="line"/>
      <point x="180" y="498"/>
      <point x="188" y="530"/>
      <point x="195" y="560" type="curve" smooth="yes"/>
      <point x="238" y="760" type="line"/>
      <point x="161" y="760" type="line"/>
    </contour>
  </outline>
</glyph>
<glyph name="h.serif" format="2">
  <advance width="497"/>
  <unicode hex="0068"/>
  <anchor x="195" y="0" name="bottom"/>
  <anchor x="309" y="268" name="center"/>
  <anchor x="357" y="760" name="top"/>
  <anchor x="582" y="760" name="topright"/>
  <outline>
    <contour>
      <point x="378" y="-10" type="curve" smooth="yes"/>
      <point x="424" y="-10"/>
      <point x="459" y="15"/>
      <point x="485" y="45" type="curve"/>
      <point x="471" y="73" type="line"/>
      <point x="453" y="58"/>
      <point x="436" y="50"/>
      <point x="419" y="50" type="curve" smooth="yes"/>
      <point x="402" y="50"/>
      <point x="393" y="67"/>
      <point x="393" y="94" type="curve" smooth="yes"/>
      <point x="393" y="122"/>
      <point x="400" y="164"/>
      <point x="409" y="206" type="curve" smooth="yes"/>
      <point x="434" y="325" type="line" smooth="yes"/>
      <point x="442" y="361"/>
      <point x="453" y="407"/>
      <point x="453" y="442" type="curve" smooth="yes"/>
      <point x="453" y="497"/>
      <point x="432" y="545"/>
      <point x="369" y="545" type="curve" smooth="yes"/>
      <point x="312" y="545"/>
      <point x="263" y="503"/>
      <point x="216" y="426" type="curve"/>
      <point x="212" y="426" type="line"/>
      <point x="220" y="457"/>
      <point x="232" y="509"/>
      <point x="245" y="574" type="curve" smooth="yes"/>
      <point x="285" y="760" type="line"/>
      <point x="125" y="760" type="line"/>
      <point x="116" y="719" type="line"/>
      <point x="125" y="719" type="line" smooth="yes"/>
      <point x="153" y="719"/>
      <point x="175" y="711"/>
      <point x="175" y="677" type="curve" smooth="yes"/>
      <point x="175" y="667"/>
      <point x="172" y="648"/>
      <point x="166" y="617" type="curve" smooth="yes"/>
      <point x="35" y="0" type="line"/>
      <point x="122" y="0" type="line"/>
      <point x="178" y="264" type="line" smooth="yes"/>
      <point x="195" y="345"/>
      <point x="265" y="484"/>
      <point x="328" y="484" type="curve" smooth="yes"/>
      <point x="357" y="484"/>
      <point x="363" y="455"/>
      <point x="363" y="431" type="curve" smooth="yes"/>
      <point x="363" y="395"/>
      <point x="347" y="333"/>
      <point x="341" y="305" type="curve" smooth="yes"/>
      <point x="322" y="211" type="line" smooth="yes"/>
      <point x="310" y="159"/>
      <point x="304" y="108"/>
      <point x="304" y="80" type="curve" smooth="yes"/>
      <point x="304" y="28"/>
      <point x="329" y="-10"/>
    </contour>
  </outline>
</glyph>
<glyph name="i.serif" format="2">
  <advance width="254"/>
  <unicode hex="0069"/>
  <anchor x="70" y="0" name="bottom"/>
  <anchor x="231" y="756" name="top"/>
  <anchor x="337" y="756" name="topright"/>
  <outline>
    <contour>
      <point x="134" y="-10" type="curve" smooth="yes"/>
      <point x="184" y="-10"/>
      <point x="219" y="24"/>
      <point x="244" y="49" type="curve"/>
      <point x="230" y="77" type="line"/>
      <point x="210" y="62"/>
      <point x="192" y="50"/>
      <point x="175" y="50" type="curve" smooth="yes"/>
      <point x="158" y="50"/>
      <point x="149" y="66"/>
      <point x="149" y="96" type="curve" smooth="yes"/>
      <point x="149" y="124"/>
      <point x="159" y="178"/>
      <point x="167" y="216" type="curve" smooth="yes"/>
      <point x="234" y="536" type="line"/>
      <point x="78" y="536" type="line"/>
      <point x="70" y="495" type="line"/>
      <point x="81" y="495" type="line" smooth="yes"/>
      <point x="109" y="495"/>
      <point x="127" y="489"/>
      <point x="127" y="459" type="curve" smooth="yes"/>
      <point x="127" y="449"/>
      <point x="125" y="435"/>
      <point x="121" y="416" type="curve" smooth="yes"/>
      <point x="85" y="243" type="line" smooth="yes"/>
      <point x="73" y="189"/>
      <point x="60" y="119"/>
      <point x="60" y="79" type="curve" smooth="yes"/>
      <point x="60" y="31"/>
      <point x="84" y="-10"/>
    </contour>
    <contour>
      <point x="209" y="649" type="curve" smooth="yes"/>
      <point x="237" y="649"/>
      <point x="267" y="664"/>
      <point x="267" y="710" type="curve" smooth="yes"/>
      <point x="267" y="742"/>
      <point x="246" y="756"/>
      <point x="219" y="756" type="curve" smooth="yes"/>
      <point x="186" y="756"/>
      <point x="161" y="735"/>
      <point x="161" y="695" type="curve" smooth="yes"/>
      <point x="161" y="663"/>
      <point x="181" y="649"/>
    </contour>
  </outline>
</glyph>
<glyph name="j" format="2">
  <advance width="193"/>
  <unicode hex="006A"/>
  <anchor x="-78" y="-240" name="bottom"/>
  <anchor x="197" y="737" name="top"/>
  <anchor x="273" y="737" name="topright"/>
  <outline>
    <contour>
      <point x="-78" y="-240" type="curve" smooth="yes"/>
      <point x="16" y="-240"/>
      <point x="43" y="-162"/>
      <point x="66" y="-50" type="curve" smooth="yes"/>
      <point x="191" y="536" type="line"/>
      <point x="114" y="536" type="line"/>
      <point x="-9" y="-44" type="line" smooth="yes"/>
      <point x="-28" y="-141"/>
      <point x="-42" y="-170"/>
      <point x="-87" y="-170" type="curve" smooth="yes"/>
      <point x="-101" y="-170"/>
      <point x="-118" y="-168"/>
      <point x="-129" y="-163" type="curve"/>
      <point x="-129" y="-233" type="line"/>
      <point x="-114" y="-238"/>
      <point x="-97" y="-240"/>
    </contour>
    <contour>
      <point x="175" y="626" type="curve" smooth="yes"/>
      <point x="209" y="626"/>
      <point x="231" y="659"/>
      <point x="231" y="700" type="curve" smooth="yes"/>
      <point x="231" y="725"/>
      <point x="218" y="737"/>
      <point x="194" y="737" type="curve" smooth="yes"/>
      <point x="156" y="737"/>
      <point x="137" y="700"/>
      <point x="137" y="665" type="curve" smooth="yes"/>
      <point x="137" y="639"/>
      <point x="150" y="626"/>
    </contour>
  </outline>
</glyph>
<glyph name="j.serif" format="2">
  <advance width="243"/>
  <unicode hex="006A"/>
  <anchor x="-61" y="-240" name="bottom"/>
  <anchor x="225" y="756" name="top"/>
  <anchor x="326" y="756" name="topright"/>
  <outline>
    <contour>
      <point x="-61" y="-240" type="curve" smooth="yes"/>
      <point x="20" y="-239"/>
      <point x="83" y="-184"/>
      <point x="120" y="-8" type="curve" smooth="yes"/>
      <point x="235" y="536" type="line"/>
      <point x="80" y="536" type="line"/>
      <point x="71" y="495" type="line"/>
      <point x="82" y="495" type="line" smooth="yes"/>
      <point x="110" y="495"/>
      <point x="127" y="488"/>
      <point x="127" y="458" type="curve" smooth="yes"/>
      <point x="127" y="445"/>
      <point x="126" y="439"/>
      <point x="122" y="421" type="curve" smooth="yes"/>
      <point x="33" y="-8" type="line" smooth="yes"/>
      <point x="5" y="-141"/>
      <point x="-24" y="-193"/>
      <point x="-75" y="-193" type="curve" smooth="yes"/>
      <point x="-88" y="-193"/>
      <point x="-103" y="-190"/>
      <point x="-112" y="-187" type="curve"/>
      <point x="-122" y="-233" type="line"/>
      <point x="-103" y="-238"/>
      <point x="-85" y="-240"/>
    </contour>
    <contour>
      <point x="210" y="649" type="curve" smooth="yes"/>
      <point x="242" y="649"/>
      <point x="268" y="665"/>
      <point x="268" y="710" type="curve" smooth="yes"/>
      <point x="268" y="742"/>
      <point x="246" y="756"/>
      <point x="220" y="756" type="curve" smooth="yes"/>
      <point x="187" y="756"/>
      <point x="162" y="735"/>
      <point x="162" y="695" type="curve" smooth="yes"/>
      <point x="162" y="663"/>
      <point x="181" y="649"/>
    </contour>
  </outline>
</glyph>
<glyph name="k" format="2">
  <advance width="361"/>
  <unicode hex="006B"/>
  <anchor x="125" y="0" name="bottom"/>
  <anchor x="286" y="760" name="top"/>
  <anchor x="407" y="840" name="topright"/>
  <outline>
    <contour>
      <point x="0" y="0" type="line"/>
      <point x="77" y="0" type="line"/>
      <point x="116" y="189" type="line"/>
      <point x="177" y="255" type="line"/>
      <point x="219" y="0" type="line"/>
      <point x="301" y="0" type="line"/>
      <point x="244" y="319" type="line"/>
      <point x="405" y="536" type="line"/>
      <point x="321" y="536" type="line"/>
      <point x="136" y="286" type="line"/>
      <point x="134" y="286" type="line"/>
      <point x="146" y="330"/>
      <point x="154" y="366"/>
      <point x="160" y="393" type="curve" smooth="yes"/>
      <point x="239" y="760" type="line"/>
      <point x="162" y="760" type="line"/>
    </contour>
  </outline>
</glyph>
<glyph name="k.serif" format="2">
  <advance width="466"/>
  <unicode hex="006B"/>
  <anchor x="179" y="0" name="bottom"/>
  <anchor x="341" y="760" name="top"/>
  <anchor x="481" y="860" name="topright"/>
  <outline>
    <contour>
      <point x="413" y="-9" type="curve" smooth="yes"/>
      <point x="431" y="-9" type="line"/>
      <point x="440" y="31" type="line"/>
      <point x="398" y="31"/>
      <point x="379" y="59"/>
      <point x="364" y="108" type="curve" smooth="yes"/>
      <point x="290" y="345" type="line"/>
      <point x="268" y="288" type="line"/>
      <point x="366" y="393" type="line" smooth="yes"/>
      <point x="425" y="457"/>
      <point x="467" y="495"/>
      <point x="507" y="495" type="curve"/>
      <point x="515" y="536" type="line"/>
      <point x="332" y="536" type="line"/>
      <point x="323" y="495" type="line"/>
      <point x="351" y="495"/>
      <point x="360" y="489"/>
      <point x="360" y="476" type="curve" smooth="yes"/>
      <point x="360" y="457"/>
      <point x="345" y="431"/>
      <point x="290" y="372" type="curve" smooth="yes"/>
      <point x="171" y="248" type="line"/>
      <point x="187" y="302"/>
      <point x="199" y="359"/>
      <point x="210" y="411" type="curve" smooth="yes"/>
      <point x="285" y="760" type="line"/>
      <point x="125" y="760" type="line"/>
      <point x="116" y="719" type="line"/>
      <point x="129" y="719" type="line" smooth="yes"/>
      <point x="154" y="719"/>
      <point x="175" y="713"/>
      <point x="175" y="679" type="curve" smooth="yes"/>
      <point x="175" y="667"/>
      <point x="172" y="648"/>
      <point x="166" y="617" type="curve" smooth="yes"/>
      <point x="35" y="0" type="line"/>
      <point x="122" y="0" type="line"/>
      <point x="163" y="193" type="line"/>
      <point x="263" y="283" type="line"/>
      <point x="223" y="285" type="line"/>
      <point x="275" y="96" type="line" smooth="yes"/>
      <point x="298" y="14"/>
      <point x="327" y="-9"/>
    </contour>
  </outline>
</glyph>
<glyph name="l.serif" format="2">
  <advance width="254"/>
  <unicode hex="006C"/>
  <anchor x="70" y="0" name="bottom"/>
  <anchor x="184" y="268" name="center"/>
  <anchor x="232" y="760" name="top"/>
  <anchor x="339" y="760" name="topright"/>
  <outline>
    <contour>
      <point x="132" y="-10" type="curve" smooth="yes"/>
      <point x="181" y="-10"/>
      <point x="217" y="24"/>
      <point x="241" y="49" type="curve"/>
      <point x="227" y="77" type="line"/>
      <point x="207" y="62"/>
      <point x="187" y="50"/>
      <point x="171" y="50" type="curve" smooth="yes"/>
      <point x="154" y="50"/>
      <point x="147" y="66"/>
      <point x="147" y="96" type="curve" smooth="yes"/>
      <point x="147" y="124"/>
      <point x="158" y="183"/>
      <point x="164" y="216" type="curve" smooth="yes"/>
      <point x="282" y="760" type="line"/>
      <point x="119" y="760" type="line"/>
      <point x="109" y="719" type="line"/>
      <point x="120" y="719" type="line" smooth="yes"/>
      <point x="148" y="719"/>
      <point x="171" y="711"/>
      <point x="171" y="678" type="curve" smooth="yes"/>
      <point x="171" y="668"/>
      <point x="169" y="648"/>
      <point x="164" y="627" type="curve" smooth="yes"/>
      <point x="82" y="237" type="line" smooth="yes"/>
      <point x="70" y="178"/>
      <point x="57" y="115"/>
      <point x="57" y="79" type="curve" smooth="yes"/>
      <point x="57" y="32"/>
      <point x="81" y="-10"/>
    </contour>
  </outline>
</glyph>
<glyph name="m" format="2">
  <advance width="613"/>
  <unicode hex="006D"/>
  <anchor x="251" y="0" name="bottom"/>
  <anchor x="363" y="529" name="top"/>
  <anchor x="649" y="529" name="topright"/>
  <outline>
    <contour>
      <point x="-1" y="0" type="line"/>
      <point x="77" y="0" type="line"/>
      <point x="139" y="292" type="line" smooth="yes"/>
      <point x="158" y="387"/>
      <point x="188" y="476"/>
      <point x="256" y="476" type="curve" smooth="yes"/>
      <point x="284" y="476"/>
      <point x="298" y="458"/>
      <point x="298" y="424" type="curve" smooth="yes"/>
      <point x="298" y="410"/>
      <point x="296" y="389"/>
      <point x="291" y="368" type="curve" smooth="yes"/>
      <point x="213" y="0" type="line"/>
      <point x="290" y="0" type="line"/>
      <point x="364" y="347" type="line" smooth="yes"/>
      <point x="377" y="410"/>
      <point x="408" y="476"/>
      <point x="463" y="476" type="curve" smooth="yes"/>
      <point x="491" y="476"/>
      <point x="506" y="458"/>
      <point x="506" y="423" type="curve" smooth="yes"/>
      <point x="506" y="409"/>
      <point x="502" y="384"/>
      <point x="497" y="360" type="curve" smooth="yes"/>
      <point x="421" y="0" type="line"/>
      <point x="498" y="0" type="line"/>
      <point x="577" y="375" type="line" smooth="yes"/>
      <point x="582" y="399"/>
      <point x="586" y="424"/>
      <point x="586" y="444" type="curve" smooth="yes"/>
      <point x="586" y="511"/>
      <point x="552" y="546"/>
      <point x="495" y="546" type="curve" smooth="yes"/>
      <point x="447" y="546"/>
      <point x="408" y="521"/>
      <point x="378" y="477" type="curve"/>
      <point x="376" y="477" type="line"/>
      <point x="366" y="524"/>
      <point x="337" y="546"/>
      <point x="286" y="546" type="curve" smooth="yes"/>
      <point x="238" y="546"/>
      <point x="198" y="518"/>
      <point x="169" y="466" type="curve"/>
      <point x="166" y="466" type="line"/>
      <point x="176" y="536" type="line"/>
      <point x="113" y="536" type="line"/>
    </contour>
  </outline>
</glyph>
<glyph name="m.serif" format="2">
  <advance width="732"/>
  <unicode hex="006D"/>
  <anchor x="310" y="0" name="bottom"/>
  <anchor x="424" y="536" name="top"/>
  <anchor x="769" y="536" name="topright"/>
  <outline>
    <contour>
      <point x="612" y="-9" type="curve" smooth="yes"/>
      <point x="661" y="-9"/>
      <point x="695" y="20"/>
      <point x="721" y="46" type="curve"/>
      <point x="707" y="74" type="line"/>
      <point x="688" y="58"/>
      <point x="671" y="51"/>
      <point x="654" y="51" type="curve" smooth="yes"/>
      <point x="638" y="51"/>
      <point x="629" y="66"/>
      <point x="629" y="93" type="curve" smooth="yes"/>
      <point x="629" y="121"/>
      <point x="635" y="162"/>
      <point x="645" y="205" type="curve" smooth="yes"/>
      <point x="669" y="322" type="line" smooth="yes"/>
      <point x="677" y="359"/>
      <point x="689" y="406"/>
      <point x="689" y="442" type="curve" smooth="yes"/>
      <point x="689" y="496"/>
      <point x="667" y="545"/>
      <point x="606" y="545" type="curve" smooth="yes"/>
      <point x="544" y="545"/>
      <point x="493" y="505"/>
      <point x="449" y="420" type="curve"/>
      <point x="445" y="420" type="line"/>
      <point x="447" y="428"/>
      <point x="448" y="437"/>
      <point x="448" y="444" type="curve" smooth="yes"/>
      <point x="448" y="496"/>
      <point x="427" y="545"/>
      <point x="366" y="545" type="curve" smooth="yes"/>
      <point x="308" y="545"/>
      <point x="263" y="501"/>
      <point x="215" y="423" type="curve"/>
      <point x="211" y="423" type="line"/>
      <point x="231" y="536" type="line"/>
      <point x="75" y="536" type="line"/>
      <point x="66" y="495" type="line"/>
      <point x="73" y="495" type="line" smooth="yes"/>
      <point x="101" y="495"/>
      <point x="124" y="488"/>
      <point x="124" y="455" type="curve" smooth="yes"/>
      <point x="124" y="445"/>
      <point x="121" y="425"/>
      <point x="116" y="403" type="curve" smooth="yes"/>
      <point x="32" y="0" type="line"/>
      <point x="120" y="0" type="line"/>
      <point x="173" y="256" type="line" smooth="yes"/>
      <point x="191" y="347"/>
      <point x="263" y="484"/>
      <point x="325" y="484" type="curve" smooth="yes"/>
      <point x="353" y="484"/>
      <point x="359" y="456"/>
      <point x="359" y="433" type="curve" smooth="yes"/>
      <point x="359" y="392"/>
      <point x="342" y="324"/>
      <point x="338" y="304" type="curve" smooth="yes"/>
      <point x="320" y="225" type="line" smooth="yes"/>
      <point x="304" y="154"/>
      <point x="286" y="37"/>
      <point x="283" y="0" type="curve"/>
      <point x="372" y="0" type="line"/>
      <point x="376" y="36"/>
      <point x="395" y="163"/>
      <point x="405" y="207" type="curve" smooth="yes"/>
      <point x="419" y="271" type="line" smooth="yes"/>
      <point x="438" y="363"/>
      <point x="500" y="486"/>
      <point x="557" y="485" type="curve" smooth="yes"/>
      <point x="587" y="485"/>
      <point x="598" y="463"/>
      <point x="598" y="431" type="curve" smooth="yes"/>
      <point x="598" y="394"/>
      <point x="583" y="334"/>
      <point x="577" y="304" type="curve" smooth="yes"/>
      <point x="560" y="225" type="line" smooth="yes"/>
      <point x="545" y="155"/>
      <point x="540" y="116"/>
      <point x="540" y="86" type="curve" smooth="yes"/>
      <point x="540" y="35"/>
      <point x="561" y="-9"/>
    </contour>
  </outline>
</glyph>
<glyph name="n" format="2">
  <advance width="411"/>
  <unicode hex="006E"/>
  <anchor x="151" y="0" name="bottom"/>
  <anchor x="264" y="531" name="top"/>
  <anchor x="446" y="529" name="topright"/>
  <outline>
    <contour>
      <point x="-1" y="0" type="line"/>
      <point x="77" y="0" type="line"/>
      <point x="138" y="288" type="line" smooth="yes"/>
      <point x="164" y="409"/>
      <point x="200" y="475"/>
      <point x="260" y="475" type="curve" smooth="yes"/>
      <point x="289" y="475"/>
      <point x="303" y="458"/>
      <point x="303" y="428" type="curve" smooth="yes"/>
      <point x="303" y="402"/>
      <point x="296" y="365"/>
      <point x="289" y="333" type="curve" smooth="yes"/>
      <point x="219" y="0" type="line"/>
      <point x="296" y="0" type="line"/>
      <point x="369" y="344" type="line" smooth="yes"/>
      <point x="376" y="379"/>
      <point x="383" y="417"/>
      <point x="383" y="445" type="curve" smooth="yes"/>
      <point x="383" y="515"/>
      <point x="342" y="546"/>
      <point x="287" y="546" type="curve" smooth="yes"/>
      <point x="239" y="546"/>
      <point x="198" y="517"/>
      <point x="169" y="464" type="curve"/>
      <point x="166" y="464" type="line"/>
      <point x="176" y="536" type="line"/>
      <point x="113" y="536" type="line"/>
    </contour>
  </outline>
</glyph>
<glyph name="n.serif" format="2">
  <advance width="498"/>
  <unicode hex="006E"/>
  <anchor x="192" y="0" name="bottom"/>
  <anchor x="306" y="536" name="top"/>
  <anchor x="535" y="536" name="topright"/>
  <outline>
    <contour>
      <point x="375" y="-10" type="curve" smooth="yes"/>
      <point x="423" y="-10"/>
      <point x="458" y="20"/>
      <point x="483" y="45" type="curve"/>
      <point x="468" y="73" type="line"/>
      <point x="450" y="58"/>
      <point x="433" y="50"/>
      <point x="416" y="50" type="curve" smooth="yes"/>
      <point x="399" y="50"/>
      <point x="391" y="67"/>
      <point x="391" y="94" type="curve" smooth="yes"/>
      <point x="391" y="121"/>
      <point x="397" y="163"/>
      <point x="407" y="206" type="curve" smooth="yes"/>
      <point x="431" y="323" type="line" smooth="yes"/>
      <point x="438" y="360"/>
      <point x="450" y="407"/>
      <point x="450" y="442" type="curve" smooth="yes"/>
      <point x="450" y="497"/>
      <point x="429" y="545"/>
      <point x="366" y="545" type="curve" smooth="yes"/>
      <point x="307" y="545"/>
      <point x="262" y="504"/>
      <point x="214" y="426" type="curve"/>
      <point x="210" y="426" type="line"/>
      <point x="227" y="536" type="line"/>
      <point x="76" y="536" type="line"/>
      <point x="66" y="495" type="line"/>
      <point x="73" y="495" type="line" smooth="yes"/>
      <point x="102" y="495"/>
      <point x="124" y="487"/>
      <point x="124" y="455" type="curve" smooth="yes"/>
      <point x="124" y="444"/>
      <point x="121" y="424"/>
      <point x="116" y="403" type="curve" smooth="yes"/>
      <point x="32" y="0" type="line"/>
      <point x="120" y="0" type="line"/>
      <point x="174" y="255" type="line" smooth="yes"/>
      <point x="191" y="340"/>
      <point x="263" y="484"/>
      <point x="325" y="484" type="curve" smooth="yes"/>
      <point x="354" y="484"/>
      <point x="359" y="455"/>
      <point x="359" y="430" type="curve" smooth="yes"/>
      <point x="359" y="395"/>
      <point x="345" y="333"/>
      <point x="339" y="305" type="curve" smooth="yes"/>
      <point x="321" y="226" type="line" smooth="yes"/>
      <point x="307" y="156"/>
      <point x="302" y="118"/>
      <point x="302" y="86" type="curve" smooth="yes"/>
      <point x="301" y="32"/>
      <point x="326" y="-10"/>
    </contour>
  </outline>
</glyph>
<glyph name="o" format="2">
  <advance width="407"/>
  <unicode hex="006F"/>
  <anchor x="148" y="0" name="bottom"/>
  <anchor x="221" y="265" name="center"/>
  <anchor x="260" y="529" name="top"/>
  <anchor x="443" y="529" name="topright"/>
  <outline>
    <contour>
      <point x="153" y="-10" type="curve" smooth="yes"/>
      <point x="310" y="-10"/>
      <point x="382" y="217"/>
      <point x="382" y="382" type="curve" smooth="yes"/>
      <point x="382" y="487"/>
      <point x="335" y="546"/>
      <point x="255" y="546" type="curve" smooth="yes"/>
      <point x="85" y="546"/>
      <point x="25" y="288"/>
      <point x="25" y="152" type="curve" smooth="yes"/>
      <point x="25" y="47"/>
      <point x="72" y="-10"/>
    </contour>
    <contour>
      <point x="161" y="58" type="curve" smooth="yes"/>
      <point x="122" y="58"/>
      <point x="103" y="91"/>
      <point x="103" y="151" type="curve" smooth="yes"/>
      <point x="103" y="257"/>
      <point x="147" y="479"/>
      <point x="245" y="479" type="curve" smooth="yes"/>
      <point x="284" y="479"/>
      <point x="303" y="444"/>
      <point x="303" y="384" type="curve" smooth="yes"/>
      <point x="303" y="260"/>
      <point x="252" y="58"/>
    </contour>
  </outline>
</glyph>
<glyph name="o.serif" format="2">
  <advance width="469"/>
  <unicode hex="006F"/>
  <anchor x="178" y="0" name="bottom"/>
  <anchor x="292" y="268" name="center"/>
  <anchor x="292" y="536" name="top"/>
  <anchor x="506" y="536" name="topright"/>
  <outline>
    <contour>
      <point x="192" y="-10" type="curve" smooth="yes"/>
      <point x="367" y="-10"/>
      <point x="450" y="211"/>
      <point x="450" y="355" type="curve" smooth="yes"/>
      <point x="450" y="490"/>
      <point x="384" y="546"/>
      <point x="302" y="546" type="curve" smooth="yes"/>
      <point x="129" y="546"/>
      <point x="42" y="332"/>
      <point x="42" y="181" type="curve" smooth="yes"/>
      <point x="42" y="53"/>
      <point x="103" y="-10"/>
    </contour>
    <contour>
      <point x="204" y="38" type="curve" smooth="yes"/>
      <point x="161" y="38"/>
      <point x="133" y="72"/>
      <point x="133" y="161" type="curve" smooth="yes"/>
      <point x="133" y="282"/>
      <point x="185" y="497"/>
      <point x="289" y="497" type="curve" smooth="yes"/>
      <point x="332" y="497"/>
      <point x="359" y="462"/>
      <point x="359" y="372" type="curve" smooth="yes"/>
      <point x="359" y="253"/>
      <point x="310" y="38"/>
    </contour>
  </outline>
</glyph>
<glyph name="p" format="2">
  <advance width="417"/>
  <unicode hex="0070"/>
  <anchor x="103" y="-233" name="bottom"/>
  <anchor x="265" y="529" name="top"/>
  <anchor x="453" y="529" name="topright"/>
  <outline>
    <contour>
      <point x="-48" y="-233" type="line"/>
      <point x="28" y="-233" type="line"/>
      <point x="71" y="-32" type="line" smooth="yes"/>
      <point x="77" y="-4"/>
      <point x="83" y="31"/>
      <point x="88" y="65" type="curve"/>
      <point x="91" y="65" type="line"/>
      <point x="102" y="20"/>
      <point x="135" y="-10"/>
      <point x="180" y="-10" type="curve" smooth="yes"/>
      <point x="326" y="-10"/>
      <point x="396" y="244"/>
      <point x="396" y="397" type="curve" smooth="yes"/>
      <point x="396" y="497"/>
      <point x="359" y="546"/>
      <point x="293" y="546" type="curve" smooth="yes"/>
      <point x="246" y="546"/>
      <point x="207" y="517"/>
      <point x="171" y="459" type="curve"/>
      <point x="168" y="459" type="line"/>
      <point x="178" y="536" type="line"/>
      <point x="114" y="536" type="line"/>
    </contour>
    <contour>
      <point x="172" y="58" type="curve" smooth="yes"/>
      <point x="135" y="58"/>
      <point x="116" y="86"/>
      <point x="116" y="139" type="curve" smooth="yes"/>
      <point x="116" y="249"/>
      <point x="169" y="480"/>
      <point x="266" y="480" type="curve" smooth="yes"/>
      <point x="301" y="480"/>
      <point x="317" y="452"/>
      <point x="317" y="393" type="curve" smooth="yes"/>
      <point x="317" y="269"/>
      <point x="262" y="58"/>
    </contour>
  </outline>
</glyph>
<glyph name="p.serif" format="2">
  <advance width="478"/>
  <unicode hex="0070"/>
  <anchor x="47" y="-240" name="bottom"/>
  <anchor x="300" y="536" name="top"/>
  <anchor x="508" y="536" name="topright"/>
  <outline>
    <contour>
      <point x="119" y="393" type="curve" smooth="yes"/>
      <point x="-14" y="-240" type="line"/>
      <point x="150" y="-240" type="line"/>
      <point x="159" y="-199" type="line"/>
      <point x="142" y="-199" type="line" smooth="yes"/>
      <point x="115" y="-199"/>
      <point x="94" y="-193"/>
      <point x="94" y="-158" type="curve" smooth="yes"/>
      <point x="94" y="-137"/>
      <point x="98" y="-119"/>
      <point x="104" y="-95" type="curve" smooth="yes"/>
      <point x="116" y="-35" type="line" smooth="yes"/>
      <point x="120" y="-19"/>
      <point x="123" y="2"/>
      <point x="124" y="13" type="curve"/>
      <point x="145" y="-2"/>
      <point x="172" y="-10"/>
      <point x="202" y="-10" type="curve" smooth="yes"/>
      <point x="370" y="-8"/>
      <point x="460" y="230"/>
      <point x="460" y="383" type="curve" smooth="yes"/>
      <point x="460" y="488"/>
      <point x="423" y="546"/>
      <point x="360" y="546" type="curve" smooth="yes"/>
      <point x="292" y="546"/>
      <point x="247" y="490"/>
      <point x="212" y="424" type="curve"/>
      <point x="208" y="424" type="line"/>
      <point x="228" y="536" type="line"/>
      <point x="80" y="536" type="line"/>
      <point x="70" y="495" type="line"/>
      <point x="80" y="495" type="line" smooth="yes"/>
      <point x="108" y="495"/>
      <point x="129" y="488"/>
      <point x="129" y="455" type="curve" smooth="yes"/>
      <point x="129" y="443"/>
      <point x="126" y="425"/>
    </contour>
    <contour>
      <point x="200" y="33" type="curve" smooth="yes"/>
      <point x="172" y="33"/>
      <point x="149" y="54"/>
      <point x="140" y="70" type="curve"/>
      <point x="181" y="261" type="line"/>
      <point x="199" y="349"/>
      <point x="264" y="486"/>
      <point x="324" y="486" type="curve" smooth="yes"/>
      <point x="359" y="486"/>
      <point x="369" y="435"/>
      <point x="369" y="383" type="curve" smooth="yes"/>
      <point x="369" y="259"/>
      <point x="302" y="33"/>
    </contour>
  </outline>
</glyph>
<glyph name="q" format="2">
  <advance width="422"/>
  <unicode hex="0071"/>
  <anchor x="105" y="-239" name="bottom"/>
  <anchor x="267" y="529" name="top"/>
  <anchor x="458" y="529" name="topright"/>
  <outline>
    <contour>
      <point x="228" y="-6" type="curve" smooth="yes"/>
      <point x="179" y="-239" type="line"/>
      <point x="256" y="-239" type="line"/>
      <point x="420" y="536" type="line"/>
      <point x="354" y="536" type="line"/>
      <point x="333" y="468" type="line"/>
      <point x="331" y="468" type="line"/>
      <point x="319" y="519"/>
      <point x="291" y="546"/>
      <point x="241" y="546" type="curve" smooth="yes"/>
      <point x="91" y="546"/>
      <point x="24" y="282"/>
      <point x="24" y="136" type="curve" smooth="yes"/>
      <point x="24" y="40"/>
      <point x="61" y="-10"/>
      <point x="126" y="-10" type="curve" smooth="yes"/>
      <point x="173" y="-10"/>
      <point x="212" y="17"/>
      <point x="246" y="70" type="curve"/>
      <point x="248" y="70" type="line"/>
      <point x="240" y="41"/>
      <point x="232" y="12"/>
    </contour>
    <contour>
      <point x="155" y="58" type="curve" smooth="yes"/>
      <point x="120" y="58"/>
      <point x="104" y="85"/>
      <point x="104" y="144" type="curve" smooth="yes"/>
      <point x="104" y="263"/>
      <point x="156" y="477"/>
      <point x="248" y="477" type="curve" smooth="yes"/>
      <point x="284" y="477"/>
      <point x="305" y="450"/>
      <point x="305" y="401" type="curve" smooth="yes"/>
      <point x="305" y="287"/>
      <point x="251" y="58"/>
    </contour>
  </outline>
</glyph>
<glyph name="q.serif" format="2">
  <advance width="463"/>
  <unicode hex="0071"/>
  <anchor x="123" y="-240" name="bottom"/>
  <anchor x="288" y="536" name="top"/>
  <anchor x="500" y="536" name="topright"/>
  <outline>
    <contour>
      <point x="259" y="-40" type="curve" smooth="yes"/>
      <point x="219" y="-240" type="line"/>
      <point x="372" y="-240" type="line"/>
      <point x="382" y="-199" type="line"/>
      <point x="368" y="-199" type="line" smooth="yes"/>
      <point x="345" y="-199"/>
      <point x="320" y="-193"/>
      <point x="320" y="-154" type="curve" smooth="yes"/>
      <point x="320" y="-142"/>
      <point x="323" y="-128"/>
      <point x="328" y="-107" type="curve" smooth="yes"/>
      <point x="465" y="546" type="line"/>
      <point x="436" y="546" type="line"/>
      <point x="393" y="520" type="line"/>
      <point x="368" y="538"/>
      <point x="328" y="546"/>
      <point x="298" y="545" type="curve" smooth="yes"/>
      <point x="140" y="543"/>
      <point x="41" y="317"/>
      <point x="41" y="156" type="curve" smooth="yes"/>
      <point x="41" y="48"/>
      <point x="79" y="-10"/>
      <point x="142" y="-10" type="curve" smooth="yes"/>
      <point x="211" y="-10"/>
      <point x="256" y="53"/>
      <point x="290" y="115" type="curve"/>
      <point x="294" y="115" type="line"/>
      <point x="290" y="99"/>
      <point x="268" y="3"/>
    </contour>
    <contour>
      <point x="176" y="50" type="curve" smooth="yes"/>
      <point x="151" y="50"/>
      <point x="132" y="79"/>
      <point x="132" y="151" type="curve" smooth="yes"/>
      <point x="132" y="263"/>
      <point x="193" y="503"/>
      <point x="303" y="503" type="curve" smooth="yes"/>
      <point x="331" y="503"/>
      <point x="353" y="486"/>
      <point x="359" y="466" type="curve"/>
      <point x="323" y="288" type="line"/>
      <point x="300" y="177"/>
      <point x="231" y="50"/>
    </contour>
  </outline>
</glyph>
<glyph name="r" format="2">
  <advance width="276"/>
  <unicode hex="0072"/>
  <anchor x="82" y="0" name="bottom"/>
  <anchor x="194" y="529" name="top"/>
  <anchor x="312" y="529" name="topright"/>
  <outline>
    <contour>
      <point x="-0.005" y="0" type="line"/>
      <point x="77" y="0" type="line"/>
      <point x="136" y="280" type="line" smooth="yes"/>
      <point x="154" y="366"/>
      <point x="194" y="465"/>
      <point x="263" y="465" type="curve" smooth="yes"/>
      <point x="277" y="465"/>
      <point x="288" y="463"/>
      <point x="299" y="458" type="curve"/>
      <point x="322" y="540" type="line"/>
      <point x="309" y="544"/>
      <point x="297" y="546"/>
      <point x="284" y="546" type="curve" smooth="yes"/>
      <point x="232" y="546"/>
      <point x="195" y="514"/>
      <point x="165" y="448" type="curve"/>
      <point x="162" y="448" type="line"/>
      <point x="173" y="536" type="line"/>
      <point x="113" y="536" type="line"/>
    </contour>
  </outline>
</glyph>
<glyph name="r.serif" format="2">
  <advance width="392"/>
  <unicode hex="0072"/>
  <anchor x="81" y="0" name="bottom"/>
  <anchor x="273" y="536" name="top"/>
  <anchor x="429" y="536" name="topright"/>
  <outline>
    <contour>
      <point x="116" y="380" type="curve" smooth="yes"/>
      <point x="36" y="0" type="line"/>
      <point x="124" y="0" type="line"/>
      <point x="162" y="183" type="line" smooth="yes"/>
      <point x="193" y="337"/>
      <point x="258" y="482"/>
      <point x="314" y="482" type="curve" smooth="yes"/>
      <point x="339" y="482"/>
      <point x="345" y="452"/>
      <point x="343" y="405" type="curve"/>
      <point x="396" y="405"/>
      <point x="420" y="436"/>
      <point x="420" y="481" type="curve" smooth="yes"/>
      <point x="420" y="518"/>
      <point x="398" y="546"/>
      <point x="351" y="546" type="curve" smooth="yes"/>
      <point x="282" y="546"/>
      <point x="244" y="482"/>
      <point x="209" y="415" type="curve"/>
      <point x="204" y="415" type="line"/>
      <point x="223" y="536" type="line"/>
      <point x="72" y="536" type="line"/>
      <point x="63" y="495" type="line"/>
      <point x="73" y="495" type="line" smooth="yes"/>
      <point x="98" y="495"/>
      <point x="127" y="490"/>
      <point x="127" y="452" type="curve" smooth="yes"/>
      <point x="127" y="435"/>
      <point x="124" y="414"/>
    </contour>
  </outline>
</glyph>
<glyph name="s" format="2">
  <advance width="316"/>
  <unicode hex="0073"/>
  <anchor x="101" y="0" name="bottom"/>
  <anchor x="215" y="536" name="top"/>
  <anchor x="353" y="536" name="topright"/>
  <outline>
    <contour>
      <point x="100" y="-10" type="curve" smooth="yes"/>
      <point x="201" y="-10"/>
      <point x="259" y="55"/>
      <point x="259" y="155" type="curve" smooth="yes"/>
      <point x="259" y="222"/>
      <point x="237" y="251"/>
      <point x="184" y="306" type="curve" smooth="yes"/>
      <point x="144" y="346"/>
      <point x="134" y="369"/>
      <point x="134" y="405" type="curve" smooth="yes"/>
      <point x="134" y="450"/>
      <point x="163" y="480"/>
      <point x="209" y="480" type="curve" smooth="yes"/>
      <point x="239" y="480"/>
      <point x="270" y="469"/>
      <point x="295" y="449" type="curve"/>
      <point x="329" y="511" type="line"/>
      <point x="300" y="532"/>
      <point x="258" y="546"/>
      <point x="207" y="546" type="curve" smooth="yes"/>
      <point x="112" y="546"/>
      <point x="55" y="479"/>
      <point x="55" y="394" type="curve" smooth="yes"/>
      <point x="55" y="337"/>
      <point x="78" y="299"/>
      <point x="122" y="255" type="curve" smooth="yes"/>
      <point x="167" y="208"/>
      <point x="178" y="185"/>
      <point x="178" y="147" type="curve" smooth="yes"/>
      <point x="178" y="90"/>
      <point x="146" y="59"/>
      <point x="92" y="59" type="curve" smooth="yes"/>
      <point x="56" y="59"/>
      <point x="13" y="75"/>
      <point x="-11" y="94" type="curve"/>
      <point x="-11" y="15" type="line"/>
      <point x="11" y="1"/>
      <point x="53" y="-10"/>
    </contour>
  </outline>
</glyph>
<glyph name="s.serif" format="2">
  <advance width="381"/>
  <unicode hex="0073"/>
  <anchor x="134" y="0" name="bottom"/>
  <anchor x="248" y="536" name="top"/>
  <anchor x="418" y="536" name="topright"/>
  <outline>
    <contour>
      <point x="155" y="-10" type="curve" smooth="yes"/>
      <point x="273" y="-10"/>
      <point x="335" y="59"/>
      <point x="335" y="163" type="curve" smooth="yes"/>
      <point x="335" y="235"/>
      <point x="301" y="278"/>
      <point x="238" y="313" type="curve" smooth="yes"/>
      <point x="190" y="340"/>
      <point x="164" y="369"/>
      <point x="164" y="411" type="curve" smooth="yes"/>
      <point x="165" y="464"/>
      <point x="195" y="501"/>
      <point x="242" y="501" type="curve" smooth="yes"/>
      <point x="295" y="501"/>
      <point x="308" y="443"/>
      <point x="305" y="390" type="curve"/>
      <point x="350" y="390"/>
      <point x="379" y="410"/>
      <point x="379" y="453" type="curve" smooth="yes"/>
      <point x="379" y="497"/>
      <point x="343" y="546"/>
      <point x="252" y="546" type="curve" smooth="yes"/>
      <point x="151" y="546"/>
      <point x="84" y="479"/>
      <point x="84" y="384" type="curve" smooth="yes"/>
      <point x="84" y="313"/>
      <point x="121" y="276"/>
      <point x="180" y="240" type="curve" smooth="yes"/>
      <point x="233" y="210"/>
      <point x="254" y="181"/>
      <point x="254" y="137" type="curve" smooth="yes"/>
      <point x="254" y="76"/>
      <point x="220" y="38"/>
      <point x="168" y="38" type="curve" smooth="yes"/>
      <point x="107" y="38"/>
      <point x="87" y="97"/>
      <point x="90" y="167" type="curve"/>
      <point x="63" y="167"/>
      <point x="22" y="152"/>
      <point x="22" y="95" type="curve" smooth="yes"/>
      <point x="22" y="30"/>
      <point x="74" y="-10"/>
    </contour>
  </outline>
</glyph>
<glyph name="t" format="2">
  <advance width="238"/>
  <unicode hex="0074"/>
  <anchor x="73" y="0" name="bottom"/>
  <anchor x="127" y="265" name="center"/>
  <anchor x="203" y="658" name="top"/>
  <anchor x="273" y="840" name="topright"/>
  <outline>
    <contour>
      <point x="102" y="-10" type="curve" smooth="yes"/>
      <point x="124.007" y="-10"/>
      <point x="153" y="-5"/>
      <point x="175" y="5" type="curve"/>
      <point x="175" y="68" type="line"/>
      <point x="161" y="62"/>
      <point x="143" y="59"/>
      <point x="131" y="59" type="curve" smooth="yes"/>
      <point x="109" y="59"/>
      <point x="101" y="70"/>
      <point x="101" y="93" type="curve" smooth="yes"/>
      <point x="101" y="106"/>
      <point x="105" y="126"/>
      <point x="109" y="146" type="curve" smooth="yes"/>
      <point x="178" y="470" type="line"/>
      <point x="254" y="470" type="line"/>
      <point x="268" y="536" type="line"/>
      <point x="192" y="536" type="line"/>
      <point x="218" y="658" type="line"/>
      <point x="162" y="658" type="line"/>
      <point x="119" y="535" type="line"/>
      <point x="62" y="514" type="line"/>
      <point x="53" y="470" type="line"/>
      <point x="101" y="470" type="line"/>
      <point x="33" y="151" type="line" smooth="yes"/>
      <point x="27" y="123"/>
      <point x="24" y="99"/>
      <point x="24" y="80" type="curve" smooth="yes"/>
      <point x="24" y="24"/>
      <point x="47" y="-10"/>
    </contour>
  </outline>
</glyph>
<glyph name="t.serif" format="2">
  <advance width="304"/>
  <unicode hex="0074"/>
  <anchor x="95" y="0" name="bottom"/>
  <anchor x="149" y="268" name="center"/>
  <anchor x="235" y="659" name="top"/>
  <anchor x="311" y="960" name="topright"/>
  <outline>
    <contour>
      <point x="149" y="-10" type="curve" smooth="yes"/>
      <point x="195" y="-10"/>
      <point x="233" y="8"/>
      <point x="267" y="35" type="curve"/>
      <point x="254" y="72" type="line"/>
      <point x="236" y="60"/>
      <point x="210" y="50"/>
      <point x="188" y="50" type="curve" smooth="yes"/>
      <point x="163" y="50"/>
      <point x="149" y="67"/>
      <point x="149" y="101" type="curve" smooth="yes"/>
      <point x="149" y="123"/>
      <point x="155" y="158"/>
      <point x="163" y="195" type="curve" smooth="yes"/>
      <point x="223" y="480" type="line"/>
      <point x="319" y="480" type="line"/>
      <point x="331" y="536" type="line"/>
      <point x="236" y="536" type="line"/>
      <point x="262" y="659" type="line"/>
      <point x="222" y="659" type="line"/>
      <point x="180" y="556"/>
      <point x="129" y="519"/>
      <point x="83" y="519" type="curve"/>
      <point x="74" y="480" type="line"/>
      <point x="135" y="480" type="line"/>
      <point x="74" y="191" type="line" smooth="yes"/>
      <point x="68" y="163"/>
      <point x="60" y="119"/>
      <point x="60" y="87" type="curve" smooth="yes"/>
      <point x="60" y="27"/>
      <point x="93" y="-10"/>
    </contour>
  </outline>
</glyph>
<glyph name="u" format="2">
  <advance width="413"/>
  <unicode hex="0075"/>
  <anchor x="150" y="0" name="bottom"/>
  <anchor x="264" y="536" name="top"/>
  <anchor x="450" y="536" name="topright"/>
  <outline>
    <contour>
      <point x="121" y="-10" type="curve" smooth="yes"/>
      <point x="165" y="-10"/>
      <point x="206" y="18"/>
      <point x="236" y="68" type="curve"/>
      <point x="239" y="68" type="line"/>
      <point x="233" y="0" type="line"/>
      <point x="295" y="0" type="line"/>
      <point x="408" y="536" type="line"/>
      <point x="331" y="536" type="line"/>
      <point x="270" y="248" type="line" smooth="yes"/>
      <point x="245" y="128"/>
      <point x="206" y="60"/>
      <point x="147" y="60" type="curve" smooth="yes"/>
      <point x="118" y="60"/>
      <point x="105" y="79"/>
      <point x="105" y="110" type="curve" smooth="yes"/>
      <point x="105" y="135"/>
      <point x="109" y="163"/>
      <point x="116" y="192" type="curve" smooth="yes"/>
      <point x="189" y="536" type="line"/>
      <point x="112" y="536" type="line"/>
      <point x="36" y="181" type="line" smooth="yes"/>
      <point x="30" y="153"/>
      <point x="25" y="118"/>
      <point x="25" y="94" type="curve" smooth="yes"/>
      <point x="25" y="27"/>
      <point x="58" y="-10"/>
    </contour>
  </outline>
</glyph>
<glyph name="u.serif" format="2">
  <advance width="495"/>
  <unicode hex="0075"/>
  <anchor x="190" y="0" name="bottom"/>
  <anchor x="304" y="536" name="top"/>
  <anchor x="532" y="536" name="topright"/>
  <outline>
    <contour>
      <point x="377" y="-10" type="curve" smooth="yes"/>
      <point x="425" y="-10"/>
      <point x="459" y="20"/>
      <point x="484" y="45" type="curve"/>
      <point x="469" y="73" type="line"/>
      <point x="450" y="58"/>
      <point x="435" y="50"/>
      <point x="418" y="50" type="curve" smooth="yes"/>
      <point x="402" y="50"/>
      <point x="393" y="66"/>
      <point x="393" y="96" type="curve" smooth="yes"/>
      <point x="393" y="126"/>
      <point x="400" y="166"/>
      <point x="407" y="200" type="curve" smooth="yes"/>
      <point x="478" y="536" type="line"/>
      <point x="389" y="536" type="line"/>
      <point x="336" y="283" type="line" smooth="yes"/>
      <point x="313" y="173"/>
      <point x="240" y="51"/>
      <point x="185" y="51" type="curve" smooth="yes"/>
      <point x="158" y="51"/>
      <point x="150" y="77"/>
      <point x="150" y="107" type="curve" smooth="yes"/>
      <point x="150" y="140"/>
      <point x="162" y="196"/>
      <point x="171" y="237" type="curve" smooth="yes"/>
      <point x="235" y="536" type="line"/>
      <point x="76" y="536" type="line"/>
      <point x="66" y="495" type="line"/>
      <point x="74" y="495" type="line" smooth="yes"/>
      <point x="110" y="495"/>
      <point x="126" y="483"/>
      <point x="126" y="456" type="curve" smooth="yes"/>
      <point x="126" y="436"/>
      <point x="121" y="411"/>
      <point x="116" y="387" type="curve" smooth="yes"/>
      <point x="77" y="212" type="line"/>
      <point x="69" y="176"/>
      <point x="59" y="129"/>
      <point x="59" y="94" type="curve" smooth="yes"/>
      <point x="59" y="38"/>
      <point x="79" y="-9"/>
      <point x="140" y="-9" type="curve" smooth="yes"/>
      <point x="212" y="-9"/>
      <point x="254" y="41"/>
      <point x="303" y="117" type="curve"/>
      <point x="307" y="117" type="line"/>
      <point x="305" y="98"/>
      <point x="304" y="86"/>
      <point x="304" y="77" type="curve" smooth="yes"/>
      <point x="304" y="30"/>
      <point x="323" y="-10"/>
    </contour>
  </outline>
</glyph>
<glyph name="v" format="2">
  <advance width="336"/>
  <unicode hex="0076"/>
  <anchor x="112" y="0" name="bottom"/>
  <anchor x="224" y="529" name="top"/>
  <anchor x="372" y="529" name="topright"/>
  <outline>
    <contour>
      <point x="67" y="0" type="line"/>
      <point x="152" y="0" type="line"/>
      <point x="387" y="536" type="line"/>
      <point x="307" y="536" type="line"/>
      <point x="169" y="208" type="line" smooth="yes"/>
      <point x="156" y="177"/>
      <point x="144" y="147"/>
      <point x="133" y="112" type="curve"/>
      <point x="129" y="112" type="line"/>
      <point x="132" y="139"/>
      <point x="134" y="207"/>
      <point x="134" y="239" type="curve" smooth="yes"/>
      <point x="136" y="536" type="line"/>
      <point x="59" y="536" type="line"/>
    </contour>
  </outline>
</glyph>
<glyph name="v.serif" format="2">
  <advance width="441"/>
  <unicode hex="0076"/>
  <anchor x="163" y="0" name="bottom"/>
  <anchor x="277" y="536" name="top"/>
  <anchor x="478" y="536" name="topright"/>
  <outline>
    <contour>
      <point x="97" y="442" type="curve"/>
      <point x="134" y="-9" type="line"/>
      <point x="215" y="1" type="line"/>
      <point x="294" y="94"/>
      <point x="435" y="298"/>
      <point x="435" y="458" type="curve" smooth="yes"/>
      <point x="435" y="518"/>
      <point x="415" y="542"/>
      <point x="383" y="542" type="curve" smooth="yes"/>
      <point x="354" y="542"/>
      <point x="329" y="521"/>
      <point x="325" y="472" type="curve"/>
      <point x="353" y="473"/>
      <point x="371" y="451"/>
      <point x="371" y="401" type="curve" smooth="yes"/>
      <point x="371" y="315"/>
      <point x="294" y="158"/>
      <point x="210" y="60" type="curve"/>
      <point x="208" y="60" type="line"/>
      <point x="208" y="93"/>
      <point x="204" y="173"/>
      <point x="199" y="240" type="curve" smooth="yes"/>
      <point x="174" y="536" type="line"/>
      <point x="45" y="536" type="line"/>
      <point x="36" y="495" type="line"/>
      <point x="44" y="495" type="line" smooth="yes"/>
      <point x="75" y="495"/>
      <point x="93" y="484"/>
    </contour>
  </outline>
</glyph>
<glyph name="w" format="2">
  <advance width="543"/>
  <unicode hex="0077"/>
  <anchor x="216" y="0" name="bottom"/>
  <anchor x="328" y="529" name="top"/>
  <anchor x="579" y="529" name="topright"/>
  <outline>
    <contour>
      <point x="53" y="0" type="line"/>
      <point x="141" y="0" type="line"/>
      <point x="276" y="352" type="line" smooth="yes"/>
      <point x="286" y="378"/>
      <point x="295" y="403"/>
      <point x="303" y="430" type="curve"/>
      <point x="305" y="430" type="line"/>
      <point x="302" y="397"/>
      <point x="300" y="364"/>
      <point x="299" y="332" type="curve" smooth="yes"/>
      <point x="286" y="0" type="line"/>
      <point x="376" y="0" type="line"/>
      <point x="591" y="536" type="line"/>
      <point x="513" y="536" type="line"/>
      <point x="401" y="244" type="line" smooth="yes"/>
      <point x="384" y="200"/>
      <point x="370" y="159"/>
      <point x="355" y="115" type="curve"/>
      <point x="353" y="115" type="line"/>
      <point x="355" y="155"/>
      <point x="359" y="197"/>
      <point x="360" y="233" type="curve" smooth="yes"/>
      <point x="370" y="536" type="line"/>
      <point x="283" y="536" type="line"/>
      <point x="159" y="219" type="line" smooth="yes"/>
      <point x="148" y="191"/>
      <point x="134" y="152"/>
      <point x="124" y="119" type="curve"/>
      <point x="122" y="119" type="line"/>
      <point x="125" y="153"/>
      <point x="128" y="190"/>
      <point x="129" y="230" type="curve" smooth="yes"/>
      <point x="138" y="536" type="line"/>
      <point x="63" y="536" type="line"/>
    </contour>
  </outline>
</glyph>
<glyph name="w.serif" format="2">
  <advance width="668"/>
  <unicode hex="0077"/>
  <anchor x="277" y="0" name="bottom"/>
  <anchor x="391" y="536" name="top"/>
  <anchor x="705" y="536" name="topright"/>
  <outline>
    <contour>
      <point x="364" y="-11" type="curve"/>
      <point x="446" y="1" type="line"/>
      <point x="578" y="209"/>
      <point x="672" y="362"/>
      <point x="672" y="480" type="curve" smooth="yes"/>
      <point x="672" y="525"/>
      <point x="657" y="546"/>
      <point x="628" y="546" type="curve" smooth="yes"/>
      <point x="599" y="546"/>
      <point x="578" y="519"/>
      <point x="575" y="489" type="curve"/>
      <point x="596" y="484"/>
      <point x="608" y="463"/>
      <point x="608" y="433" type="curve" smooth="yes"/>
      <point x="608" y="357"/>
      <point x="529" y="181"/>
      <point x="450" y="73" type="curve"/>
      <point x="445" y="73" type="line"/>
      <point x="448" y="163"/>
      <point x="451" y="432"/>
      <point x="447" y="531" type="curve"/>
      <point x="373" y="527" type="line"/>
      <point x="319" y="379"/>
      <point x="237" y="189"/>
      <point x="182" y="75" type="curve"/>
      <point x="178" y="75" type="line"/>
      <point x="186" y="210"/>
      <point x="190" y="394"/>
      <point x="194" y="536" type="curve"/>
      <point x="64" y="536" type="line"/>
      <point x="53" y="495" type="line"/>
      <point x="59" y="495" type="line" smooth="yes"/>
      <point x="90" y="495"/>
      <point x="110" y="485"/>
      <point x="108" y="424" type="curve" smooth="yes"/>
      <point x="96" y="-9" type="line"/>
      <point x="183" y="3" type="line"/>
      <point x="222" y="72"/>
      <point x="348" y="348"/>
      <point x="374" y="426" type="curve"/>
      <point x="373" y="348"/>
      <point x="369" y="112"/>
    </contour>
  </outline>
</glyph>
<glyph name="x" format="2">
  <advance width="344"/>
  <unicode hex="0078"/>
  <anchor x="116" y="0" name="bottom"/>
  <anchor x="228" y="529" name="top"/>
  <anchor x="380" y="529" name="topright"/>
  <outline>
    <contour>
      <point x="-46" y="0" type="line"/>
      <point x="38" y="0" type="line"/>
      <point x="157" y="205" type="line"/>
      <point x="193" y="0" type="line"/>
      <point x="274" y="0" type="line"/>
      <point x="217" y="272" type="line"/>
      <point x="382" y="536" type="line"/>
      <point x="297" y="536" type="line"/>
      <point x="187" y="345" type="line"/>
      <point x="156" y="536" type="line"/>
      <point x="75" y="536" type="line"/>
      <point x="126" y="279" type="line"/>
    </contour>
  </outline>
</glyph>
<glyph name="x.serif" format="2">
  <advance width="449"/>
  <unicode hex="0078"/>
  <anchor x="168" y="0" name="bottom"/>
  <anchor x="282" y="536" name="top"/>
  <anchor x="486" y="536" name="topright"/>
  <outline>
    <contour>
      <point x="-15" y="0" type="line"/>
      <point x="84" y="0" type="line"/>
      <point x="215" y="222" type="line"/>
      <point x="270" y="0" type="line"/>
      <point x="389" y="0" type="line"/>
      <point x="398" y="41" type="line"/>
      <point x="388" y="41" type="line" smooth="yes"/>
      <point x="356" y="41"/>
      <point x="346" y="54"/>
      <point x="331" y="113" type="curve"/>
      <point x="283" y="287" type="line"/>
      <point x="372" y="424" type="line" smooth="yes"/>
      <point x="411" y="483"/>
      <point x="427" y="495"/>
      <point x="458" y="495" type="curve" smooth="yes"/>
      <point x="473" y="495" type="line"/>
      <point x="484" y="536" type="line"/>
      <point x="382" y="536" type="line"/>
      <point x="266" y="332" type="line"/>
      <point x="215" y="536" type="line"/>
      <point x="97" y="536" type="line"/>
      <point x="88" y="495" type="line"/>
      <point x="99" y="495" type="line" smooth="yes"/>
      <point x="130" y="495"/>
      <point x="137" y="479"/>
      <point x="154" y="422" type="curve" smooth="yes"/>
      <point x="200" y="267" type="line"/>
      <point x="92" y="110" type="line" smooth="yes"/>
      <point x="51" y="52"/>
      <point x="36" y="41"/>
      <point x="5" y="41" type="curve" smooth="yes"/>
      <point x="-5" y="41" type="line"/>
    </contour>
  </outline>
</glyph>
<glyph name="y" format="2">
  <advance width="340"/>
  <unicode hex="0079"/>
  <anchor x="63" y="-241" name="bottom"/>
  <anchor x="227" y="529" name="top"/>
  <anchor x="376" y="529" name="topright"/>
  <outline>
    <contour>
      <point x="-41" y="-241" type="curve" smooth="yes"/>
      <point x="36" y="-241"/>
      <point x="73" y="-187"/>
      <point x="111" y="-103" type="curve" smooth="yes"/>
      <point x="392" y="536" type="line"/>
      <point x="312" y="536" type="line"/>
      <point x="181" y="226" type="line" smooth="yes"/>
      <point x="170" y="198"/>
      <point x="154" y="157"/>
      <point x="141" y="116" type="curve"/>
      <point x="138" y="116" type="line"/>
      <point x="141" y="157"/>
      <point x="142" y="199"/>
      <point x="142" y="239" type="curve" smooth="yes"/>
      <point x="141" y="536" type="line"/>
      <point x="64" y="536" type="line"/>
      <point x="77" y="2" type="line"/>
      <point x="39" y="-85" type="line" smooth="yes"/>
      <point x="16" y="-138"/>
      <point x="-4" y="-170"/>
      <point x="-43" y="-170" type="curve" smooth="yes"/>
      <point x="-58" y="-170"/>
      <point x="-71" y="-167"/>
      <point x="-84" y="-162" type="curve"/>
      <point x="-94" y="-231" type="line"/>
      <point x="-80" y="-237"/>
      <point x="-63" y="-241"/>
    </contour>
  </outline>
</glyph>
<glyph name="y.serif" format="2">
  <advance width="437"/>
  <unicode hex="0079"/>
  <anchor x="12" y="-240" name="bottom"/>
  <anchor x="248" y="536" name="top"/>
  <anchor x="464" y="536" name="topright"/>
  <outline>
    <contour>
      <point x="-61" y="-240" type="curve" smooth="yes"/>
      <point x="92" y="-240"/>
      <point x="155" y="-147"/>
      <point x="272" y="56" type="curve"/>
      <point x="369" y="225"/>
      <point x="432" y="365"/>
      <point x="432" y="468" type="curve" smooth="yes"/>
      <point x="432" y="520"/>
      <point x="412" y="545"/>
      <point x="378" y="545" type="curve" smooth="yes"/>
      <point x="350" y="545"/>
      <point x="322" y="526"/>
      <point x="320" y="479" type="curve"/>
      <point x="346" y="479"/>
      <point x="360" y="457"/>
      <point x="360" y="423" type="curve" smooth="yes"/>
      <point x="360" y="338"/>
      <point x="302" y="212"/>
      <point x="235" y="91" type="curve"/>
      <point x="233" y="91" type="line"/>
      <point x="232" y="122"/>
      <point x="217" y="213"/>
      <point x="207" y="264" type="curve" smooth="yes"/>
      <point x="159" y="536" type="line"/>
      <point x="33" y="536" type="line"/>
      <point x="24" y="495" type="line"/>
      <point x="32" y="495" type="line" smooth="yes"/>
      <point x="63" y="495"/>
      <point x="77" y="482"/>
      <point x="85" y="442" type="curve" smooth="yes"/>
      <point x="171" y="-3" type="line"/>
      <point x="118" y="-79"/>
      <point x="47" y="-183"/>
      <point x="-61" y="-183" type="curve" smooth="yes"/>
      <point x="-94" y="-183"/>
      <point x="-112" y="-178"/>
      <point x="-124" y="-173" type="curve"/>
      <point x="-138" y="-222" type="line"/>
      <point x="-117" y="-233"/>
      <point x="-89" y="-240"/>
    </contour>
  </outline>
</glyph>
<glyph name="z" format="2">
  <advance width="283"/>
  <unicode hex="007A"/>
  <anchor x="86" y="0" name="bottom"/>
  <anchor x="198" y="529" name="top"/>
  <anchor x="319" y="529" name="topright"/>
  <outline>
    <contour>
      <point x="-36" y="0" type="line"/>
      <point x="205" y="0" type="line"/>
      <point x="220" y="67" type="line"/>
      <point x="66" y="67" type="line"/>
      <point x="301" y="481" type="line"/>
      <point x="313" y="536" type="line"/>
      <point x="87" y="536" type="line"/>
      <point x="73" y="470" type="line"/>
      <point x="213" y="470" type="line"/>
      <point x="-25" y="52" type="line"/>
    </contour>
  </outline>
</glyph>
